G04 #@! TF.FileFunction,Legend,Top*
%FSLAX46Y46*%
G04 Gerber Fmt 4.6, Leading zero omitted, Abs format (unit mm)*
G04 Created by KiCad (PCBNEW 4.0.3+e1-6302~38~ubuntu14.04.1-stable) date Sun Sep  4 17:25:44 2016*
%MOMM*%
%LPD*%
G01*
G04 APERTURE LIST*
%ADD10C,0.100000*%
%ADD11C,0.150000*%
G04 APERTURE END LIST*
D10*
D11*
X83111700Y-108555000D02*
X88109700Y-108555000D01*
X83119700Y-108415000D02*
X88101700Y-108415000D01*
X83135700Y-108275000D02*
X85515700Y-108275000D01*
X85705700Y-108275000D02*
X88085700Y-108275000D01*
X83159700Y-108135000D02*
X85120700Y-108135000D01*
X86100700Y-108135000D02*
X88061700Y-108135000D01*
X83192700Y-107995000D02*
X84953700Y-107995000D01*
X86267700Y-107995000D02*
X88028700Y-107995000D01*
X83233700Y-107855000D02*
X84846700Y-107855000D01*
X86374700Y-107855000D02*
X87987700Y-107855000D01*
X83283700Y-107715000D02*
X84775700Y-107715000D01*
X86445700Y-107715000D02*
X87937700Y-107715000D01*
X83344700Y-107575000D02*
X84731700Y-107575000D01*
X86489700Y-107575000D02*
X87876700Y-107575000D01*
X83414700Y-107435000D02*
X84712700Y-107435000D01*
X86508700Y-107435000D02*
X87806700Y-107435000D01*
X83496700Y-107295000D02*
X84714700Y-107295000D01*
X86506700Y-107295000D02*
X87724700Y-107295000D01*
X83591700Y-107155000D02*
X84739700Y-107155000D01*
X86481700Y-107155000D02*
X87629700Y-107155000D01*
X83702700Y-107015000D02*
X84787700Y-107015000D01*
X86433700Y-107015000D02*
X87518700Y-107015000D01*
X83830700Y-106875000D02*
X84865700Y-106875000D01*
X86355700Y-106875000D02*
X87390700Y-106875000D01*
X83979700Y-106735000D02*
X84982700Y-106735000D01*
X86238700Y-106735000D02*
X87241700Y-106735000D01*
X84158700Y-106595000D02*
X85170700Y-106595000D01*
X86050700Y-106595000D02*
X87062700Y-106595000D01*
X84377700Y-106455000D02*
X86843700Y-106455000D01*
X84666700Y-106315000D02*
X86554700Y-106315000D01*
X85138700Y-106175000D02*
X86082700Y-106175000D01*
X86510700Y-107380000D02*
G75*
G03X86510700Y-107380000I-900000J0D01*
G01*
X88148200Y-108630000D02*
G75*
G03X88148200Y-108630000I-2537500J0D01*
G01*
X143792000Y-140051000D02*
X148790000Y-140051000D01*
X143800000Y-139911000D02*
X148782000Y-139911000D01*
X143816000Y-139771000D02*
X146196000Y-139771000D01*
X146386000Y-139771000D02*
X148766000Y-139771000D01*
X143840000Y-139631000D02*
X145801000Y-139631000D01*
X146781000Y-139631000D02*
X148742000Y-139631000D01*
X143873000Y-139491000D02*
X145634000Y-139491000D01*
X146948000Y-139491000D02*
X148709000Y-139491000D01*
X143914000Y-139351000D02*
X145527000Y-139351000D01*
X147055000Y-139351000D02*
X148668000Y-139351000D01*
X143964000Y-139211000D02*
X145456000Y-139211000D01*
X147126000Y-139211000D02*
X148618000Y-139211000D01*
X144025000Y-139071000D02*
X145412000Y-139071000D01*
X147170000Y-139071000D02*
X148557000Y-139071000D01*
X144095000Y-138931000D02*
X145393000Y-138931000D01*
X147189000Y-138931000D02*
X148487000Y-138931000D01*
X144177000Y-138791000D02*
X145395000Y-138791000D01*
X147187000Y-138791000D02*
X148405000Y-138791000D01*
X144272000Y-138651000D02*
X145420000Y-138651000D01*
X147162000Y-138651000D02*
X148310000Y-138651000D01*
X144383000Y-138511000D02*
X145468000Y-138511000D01*
X147114000Y-138511000D02*
X148199000Y-138511000D01*
X144511000Y-138371000D02*
X145546000Y-138371000D01*
X147036000Y-138371000D02*
X148071000Y-138371000D01*
X144660000Y-138231000D02*
X145663000Y-138231000D01*
X146919000Y-138231000D02*
X147922000Y-138231000D01*
X144839000Y-138091000D02*
X145851000Y-138091000D01*
X146731000Y-138091000D02*
X147743000Y-138091000D01*
X145058000Y-137951000D02*
X147524000Y-137951000D01*
X145347000Y-137811000D02*
X147235000Y-137811000D01*
X145819000Y-137671000D02*
X146763000Y-137671000D01*
X147191000Y-138876000D02*
G75*
G03X147191000Y-138876000I-900000J0D01*
G01*
X148828500Y-140126000D02*
G75*
G03X148828500Y-140126000I-2537500J0D01*
G01*
X143361000Y-133091000D02*
X150361000Y-133091000D01*
X150361000Y-133091000D02*
X150361000Y-135591000D01*
X150361000Y-135591000D02*
X143361000Y-135591000D01*
X143361000Y-135591000D02*
X143361000Y-133091000D01*
X120070000Y-115484000D02*
X120070000Y-120482000D01*
X120210000Y-115492000D02*
X120210000Y-120474000D01*
X120350000Y-115508000D02*
X120350000Y-117888000D01*
X120350000Y-118078000D02*
X120350000Y-120458000D01*
X120490000Y-115532000D02*
X120490000Y-117493000D01*
X120490000Y-118473000D02*
X120490000Y-120434000D01*
X120630000Y-115565000D02*
X120630000Y-117326000D01*
X120630000Y-118640000D02*
X120630000Y-120401000D01*
X120770000Y-115606000D02*
X120770000Y-117219000D01*
X120770000Y-118747000D02*
X120770000Y-120360000D01*
X120910000Y-115656000D02*
X120910000Y-117148000D01*
X120910000Y-118818000D02*
X120910000Y-120310000D01*
X121050000Y-115717000D02*
X121050000Y-117104000D01*
X121050000Y-118862000D02*
X121050000Y-120249000D01*
X121190000Y-115787000D02*
X121190000Y-117085000D01*
X121190000Y-118881000D02*
X121190000Y-120179000D01*
X121330000Y-115869000D02*
X121330000Y-117087000D01*
X121330000Y-118879000D02*
X121330000Y-120097000D01*
X121470000Y-115964000D02*
X121470000Y-117112000D01*
X121470000Y-118854000D02*
X121470000Y-120002000D01*
X121610000Y-116075000D02*
X121610000Y-117160000D01*
X121610000Y-118806000D02*
X121610000Y-119891000D01*
X121750000Y-116203000D02*
X121750000Y-117238000D01*
X121750000Y-118728000D02*
X121750000Y-119763000D01*
X121890000Y-116352000D02*
X121890000Y-117355000D01*
X121890000Y-118611000D02*
X121890000Y-119614000D01*
X122030000Y-116531000D02*
X122030000Y-117543000D01*
X122030000Y-118423000D02*
X122030000Y-119435000D01*
X122170000Y-116750000D02*
X122170000Y-119216000D01*
X122310000Y-117039000D02*
X122310000Y-118927000D01*
X122450000Y-117511000D02*
X122450000Y-118455000D01*
X122145000Y-117983000D02*
G75*
G03X122145000Y-117983000I-900000J0D01*
G01*
X122532500Y-117983000D02*
G75*
G03X122532500Y-117983000I-2537500J0D01*
G01*
X152886000Y-116009000D02*
X159886000Y-116009000D01*
X159886000Y-116009000D02*
X159886000Y-118509000D01*
X159886000Y-118509000D02*
X152886000Y-118509000D01*
X152886000Y-118509000D02*
X152886000Y-116009000D01*
X115148000Y-123880000D02*
X110150000Y-123880000D01*
X115140000Y-124020000D02*
X110158000Y-124020000D01*
X115124000Y-124160000D02*
X112744000Y-124160000D01*
X112554000Y-124160000D02*
X110174000Y-124160000D01*
X115100000Y-124300000D02*
X113139000Y-124300000D01*
X112159000Y-124300000D02*
X110198000Y-124300000D01*
X115067000Y-124440000D02*
X113306000Y-124440000D01*
X111992000Y-124440000D02*
X110231000Y-124440000D01*
X115026000Y-124580000D02*
X113413000Y-124580000D01*
X111885000Y-124580000D02*
X110272000Y-124580000D01*
X114976000Y-124720000D02*
X113484000Y-124720000D01*
X111814000Y-124720000D02*
X110322000Y-124720000D01*
X114915000Y-124860000D02*
X113528000Y-124860000D01*
X111770000Y-124860000D02*
X110383000Y-124860000D01*
X114845000Y-125000000D02*
X113547000Y-125000000D01*
X111751000Y-125000000D02*
X110453000Y-125000000D01*
X114763000Y-125140000D02*
X113545000Y-125140000D01*
X111753000Y-125140000D02*
X110535000Y-125140000D01*
X114668000Y-125280000D02*
X113520000Y-125280000D01*
X111778000Y-125280000D02*
X110630000Y-125280000D01*
X114557000Y-125420000D02*
X113472000Y-125420000D01*
X111826000Y-125420000D02*
X110741000Y-125420000D01*
X114429000Y-125560000D02*
X113394000Y-125560000D01*
X111904000Y-125560000D02*
X110869000Y-125560000D01*
X114280000Y-125700000D02*
X113277000Y-125700000D01*
X112021000Y-125700000D02*
X111018000Y-125700000D01*
X114101000Y-125840000D02*
X113089000Y-125840000D01*
X112209000Y-125840000D02*
X111197000Y-125840000D01*
X113882000Y-125980000D02*
X111416000Y-125980000D01*
X113593000Y-126120000D02*
X111705000Y-126120000D01*
X113121000Y-126260000D02*
X112177000Y-126260000D01*
X113549000Y-125055000D02*
G75*
G03X113549000Y-125055000I-900000J0D01*
G01*
X115186500Y-123805000D02*
G75*
G03X115186500Y-123805000I-2537500J0D01*
G01*
X108880000Y-104974000D02*
X113878000Y-104974000D01*
X108888000Y-104834000D02*
X113870000Y-104834000D01*
X108904000Y-104694000D02*
X111284000Y-104694000D01*
X111474000Y-104694000D02*
X113854000Y-104694000D01*
X108928000Y-104554000D02*
X110889000Y-104554000D01*
X111869000Y-104554000D02*
X113830000Y-104554000D01*
X108961000Y-104414000D02*
X110722000Y-104414000D01*
X112036000Y-104414000D02*
X113797000Y-104414000D01*
X109002000Y-104274000D02*
X110615000Y-104274000D01*
X112143000Y-104274000D02*
X113756000Y-104274000D01*
X109052000Y-104134000D02*
X110544000Y-104134000D01*
X112214000Y-104134000D02*
X113706000Y-104134000D01*
X109113000Y-103994000D02*
X110500000Y-103994000D01*
X112258000Y-103994000D02*
X113645000Y-103994000D01*
X109183000Y-103854000D02*
X110481000Y-103854000D01*
X112277000Y-103854000D02*
X113575000Y-103854000D01*
X109265000Y-103714000D02*
X110483000Y-103714000D01*
X112275000Y-103714000D02*
X113493000Y-103714000D01*
X109360000Y-103574000D02*
X110508000Y-103574000D01*
X112250000Y-103574000D02*
X113398000Y-103574000D01*
X109471000Y-103434000D02*
X110556000Y-103434000D01*
X112202000Y-103434000D02*
X113287000Y-103434000D01*
X109599000Y-103294000D02*
X110634000Y-103294000D01*
X112124000Y-103294000D02*
X113159000Y-103294000D01*
X109748000Y-103154000D02*
X110751000Y-103154000D01*
X112007000Y-103154000D02*
X113010000Y-103154000D01*
X109927000Y-103014000D02*
X110939000Y-103014000D01*
X111819000Y-103014000D02*
X112831000Y-103014000D01*
X110146000Y-102874000D02*
X112612000Y-102874000D01*
X110435000Y-102734000D02*
X112323000Y-102734000D01*
X110907000Y-102594000D02*
X111851000Y-102594000D01*
X112279000Y-103799000D02*
G75*
G03X112279000Y-103799000I-900000J0D01*
G01*
X113916500Y-105049000D02*
G75*
G03X113916500Y-105049000I-2537500J0D01*
G01*
X112284000Y-109875000D02*
X119284000Y-109875000D01*
X119284000Y-109875000D02*
X119284000Y-112375000D01*
X119284000Y-112375000D02*
X112284000Y-112375000D01*
X112284000Y-112375000D02*
X112284000Y-109875000D01*
X133198000Y-139289000D02*
X139496000Y-139289000D01*
X133204000Y-139149000D02*
X139490000Y-139149000D01*
X133217000Y-139009000D02*
X135901000Y-139009000D01*
X136793000Y-139009000D02*
X139477000Y-139009000D01*
X133236000Y-138869000D02*
X135691000Y-138869000D01*
X137003000Y-138869000D02*
X139458000Y-138869000D01*
X133262000Y-138729000D02*
X135558000Y-138729000D01*
X137136000Y-138729000D02*
X139432000Y-138729000D01*
X133294000Y-138589000D02*
X135467000Y-138589000D01*
X137227000Y-138589000D02*
X139400000Y-138589000D01*
X133333000Y-138449000D02*
X135405000Y-138449000D01*
X137289000Y-138449000D02*
X139361000Y-138449000D01*
X133379000Y-138309000D02*
X135366000Y-138309000D01*
X137328000Y-138309000D02*
X139315000Y-138309000D01*
X133432000Y-138169000D02*
X135349000Y-138169000D01*
X137345000Y-138169000D02*
X139262000Y-138169000D01*
X133494000Y-138029000D02*
X135351000Y-138029000D01*
X137343000Y-138029000D02*
X139200000Y-138029000D01*
X133564000Y-137889000D02*
X135373000Y-137889000D01*
X137321000Y-137889000D02*
X139130000Y-137889000D01*
X133643000Y-137749000D02*
X135416000Y-137749000D01*
X137278000Y-137749000D02*
X139051000Y-137749000D01*
X133731000Y-137609000D02*
X135484000Y-137609000D01*
X137210000Y-137609000D02*
X138963000Y-137609000D01*
X133831000Y-137469000D02*
X135583000Y-137469000D01*
X137111000Y-137469000D02*
X138863000Y-137469000D01*
X133943000Y-137329000D02*
X135728000Y-137329000D01*
X136966000Y-137329000D02*
X138751000Y-137329000D01*
X134068000Y-137189000D02*
X135967000Y-137189000D01*
X136727000Y-137189000D02*
X138626000Y-137189000D01*
X134211000Y-137049000D02*
X138483000Y-137049000D01*
X134373000Y-136909000D02*
X138321000Y-136909000D01*
X134561000Y-136769000D02*
X138133000Y-136769000D01*
X134784000Y-136629000D02*
X137910000Y-136629000D01*
X135060000Y-136489000D02*
X137634000Y-136489000D01*
X135435000Y-136349000D02*
X137259000Y-136349000D01*
X137347000Y-138114000D02*
G75*
G03X137347000Y-138114000I-1000000J0D01*
G01*
X139534500Y-139364000D02*
G75*
G03X139534500Y-139364000I-3187500J0D01*
G01*
X136484000Y-112196000D02*
X131486000Y-112196000D01*
X136476000Y-112336000D02*
X131494000Y-112336000D01*
X136460000Y-112476000D02*
X134080000Y-112476000D01*
X133890000Y-112476000D02*
X131510000Y-112476000D01*
X136436000Y-112616000D02*
X134475000Y-112616000D01*
X133495000Y-112616000D02*
X131534000Y-112616000D01*
X136403000Y-112756000D02*
X134642000Y-112756000D01*
X133328000Y-112756000D02*
X131567000Y-112756000D01*
X136362000Y-112896000D02*
X134749000Y-112896000D01*
X133221000Y-112896000D02*
X131608000Y-112896000D01*
X136312000Y-113036000D02*
X134820000Y-113036000D01*
X133150000Y-113036000D02*
X131658000Y-113036000D01*
X136251000Y-113176000D02*
X134864000Y-113176000D01*
X133106000Y-113176000D02*
X131719000Y-113176000D01*
X136181000Y-113316000D02*
X134883000Y-113316000D01*
X133087000Y-113316000D02*
X131789000Y-113316000D01*
X136099000Y-113456000D02*
X134881000Y-113456000D01*
X133089000Y-113456000D02*
X131871000Y-113456000D01*
X136004000Y-113596000D02*
X134856000Y-113596000D01*
X133114000Y-113596000D02*
X131966000Y-113596000D01*
X135893000Y-113736000D02*
X134808000Y-113736000D01*
X133162000Y-113736000D02*
X132077000Y-113736000D01*
X135765000Y-113876000D02*
X134730000Y-113876000D01*
X133240000Y-113876000D02*
X132205000Y-113876000D01*
X135616000Y-114016000D02*
X134613000Y-114016000D01*
X133357000Y-114016000D02*
X132354000Y-114016000D01*
X135437000Y-114156000D02*
X134425000Y-114156000D01*
X133545000Y-114156000D02*
X132533000Y-114156000D01*
X135218000Y-114296000D02*
X132752000Y-114296000D01*
X134929000Y-114436000D02*
X133041000Y-114436000D01*
X134457000Y-114576000D02*
X133513000Y-114576000D01*
X134885000Y-113371000D02*
G75*
G03X134885000Y-113371000I-900000J0D01*
G01*
X136522500Y-112121000D02*
G75*
G03X136522500Y-112121000I-2537500J0D01*
G01*
X120863000Y-97591000D02*
X115865000Y-97591000D01*
X120855000Y-97731000D02*
X115873000Y-97731000D01*
X120839000Y-97871000D02*
X118459000Y-97871000D01*
X118269000Y-97871000D02*
X115889000Y-97871000D01*
X120815000Y-98011000D02*
X118854000Y-98011000D01*
X117874000Y-98011000D02*
X115913000Y-98011000D01*
X120782000Y-98151000D02*
X119021000Y-98151000D01*
X117707000Y-98151000D02*
X115946000Y-98151000D01*
X120741000Y-98291000D02*
X119128000Y-98291000D01*
X117600000Y-98291000D02*
X115987000Y-98291000D01*
X120691000Y-98431000D02*
X119199000Y-98431000D01*
X117529000Y-98431000D02*
X116037000Y-98431000D01*
X120630000Y-98571000D02*
X119243000Y-98571000D01*
X117485000Y-98571000D02*
X116098000Y-98571000D01*
X120560000Y-98711000D02*
X119262000Y-98711000D01*
X117466000Y-98711000D02*
X116168000Y-98711000D01*
X120478000Y-98851000D02*
X119260000Y-98851000D01*
X117468000Y-98851000D02*
X116250000Y-98851000D01*
X120383000Y-98991000D02*
X119235000Y-98991000D01*
X117493000Y-98991000D02*
X116345000Y-98991000D01*
X120272000Y-99131000D02*
X119187000Y-99131000D01*
X117541000Y-99131000D02*
X116456000Y-99131000D01*
X120144000Y-99271000D02*
X119109000Y-99271000D01*
X117619000Y-99271000D02*
X116584000Y-99271000D01*
X119995000Y-99411000D02*
X118992000Y-99411000D01*
X117736000Y-99411000D02*
X116733000Y-99411000D01*
X119816000Y-99551000D02*
X118804000Y-99551000D01*
X117924000Y-99551000D02*
X116912000Y-99551000D01*
X119597000Y-99691000D02*
X117131000Y-99691000D01*
X119308000Y-99831000D02*
X117420000Y-99831000D01*
X118836000Y-99971000D02*
X117892000Y-99971000D01*
X119264000Y-98766000D02*
G75*
G03X119264000Y-98766000I-900000J0D01*
G01*
X120901500Y-97516000D02*
G75*
G03X120901500Y-97516000I-2537500J0D01*
G01*
X99724000Y-108275000D02*
X106724000Y-108275000D01*
X106724000Y-108275000D02*
X106724000Y-110775000D01*
X106724000Y-110775000D02*
X99724000Y-110775000D01*
X99724000Y-110775000D02*
X99724000Y-108275000D01*
X110739000Y-100187000D02*
X110739000Y-93187000D01*
X110739000Y-93187000D02*
X113239000Y-93187000D01*
X113239000Y-93187000D02*
X113239000Y-100187000D01*
X113239000Y-100187000D02*
X110739000Y-100187000D01*
X87716000Y-96155900D02*
X82718000Y-96155900D01*
X87708000Y-96295900D02*
X82726000Y-96295900D01*
X87692000Y-96435900D02*
X85312000Y-96435900D01*
X85122000Y-96435900D02*
X82742000Y-96435900D01*
X87668000Y-96575900D02*
X85707000Y-96575900D01*
X84727000Y-96575900D02*
X82766000Y-96575900D01*
X87635000Y-96715900D02*
X85874000Y-96715900D01*
X84560000Y-96715900D02*
X82799000Y-96715900D01*
X87594000Y-96855900D02*
X85981000Y-96855900D01*
X84453000Y-96855900D02*
X82840000Y-96855900D01*
X87544000Y-96995900D02*
X86052000Y-96995900D01*
X84382000Y-96995900D02*
X82890000Y-96995900D01*
X87483000Y-97135900D02*
X86096000Y-97135900D01*
X84338000Y-97135900D02*
X82951000Y-97135900D01*
X87413000Y-97275900D02*
X86115000Y-97275900D01*
X84319000Y-97275900D02*
X83021000Y-97275900D01*
X87331000Y-97415900D02*
X86113000Y-97415900D01*
X84321000Y-97415900D02*
X83103000Y-97415900D01*
X87236000Y-97555900D02*
X86088000Y-97555900D01*
X84346000Y-97555900D02*
X83198000Y-97555900D01*
X87125000Y-97695900D02*
X86040000Y-97695900D01*
X84394000Y-97695900D02*
X83309000Y-97695900D01*
X86997000Y-97835900D02*
X85962000Y-97835900D01*
X84472000Y-97835900D02*
X83437000Y-97835900D01*
X86848000Y-97975900D02*
X85845000Y-97975900D01*
X84589000Y-97975900D02*
X83586000Y-97975900D01*
X86669000Y-98115900D02*
X85657000Y-98115900D01*
X84777000Y-98115900D02*
X83765000Y-98115900D01*
X86450000Y-98255900D02*
X83984000Y-98255900D01*
X86161000Y-98395900D02*
X84273000Y-98395900D01*
X85689000Y-98535900D02*
X84745000Y-98535900D01*
X86117000Y-97330900D02*
G75*
G03X86117000Y-97330900I-900000J0D01*
G01*
X87754500Y-96080900D02*
G75*
G03X87754500Y-96080900I-2537500J0D01*
G01*
X140950000Y-109236000D02*
X140950000Y-116236000D01*
X140950000Y-116236000D02*
X138450000Y-116236000D01*
X138450000Y-116236000D02*
X138450000Y-109236000D01*
X138450000Y-109236000D02*
X140950000Y-109236000D01*
X146180000Y-68892100D02*
X153180000Y-68892100D01*
X153180000Y-68892100D02*
X153180000Y-71392100D01*
X153180000Y-71392100D02*
X146180000Y-71392100D01*
X146180000Y-71392100D02*
X146180000Y-68892100D01*
X152562000Y-66248600D02*
X145562000Y-66248600D01*
X145562000Y-66248600D02*
X145562000Y-63748600D01*
X145562000Y-63748600D02*
X152562000Y-63748600D01*
X152562000Y-63748600D02*
X152562000Y-66248600D01*
X151426000Y-84589300D02*
X154426000Y-84589300D01*
X154426000Y-87089300D02*
X151426000Y-87089300D01*
X154479000Y-81882300D02*
X151479000Y-81882300D01*
X151479000Y-79382300D02*
X154479000Y-79382300D01*
X157119000Y-77047600D02*
X157119000Y-70047600D01*
X157119000Y-70047600D02*
X159619000Y-70047600D01*
X159619000Y-70047600D02*
X159619000Y-77047600D01*
X159619000Y-77047600D02*
X157119000Y-77047600D01*
X149253000Y-129091000D02*
X154251000Y-129091000D01*
X149261000Y-128951000D02*
X154243000Y-128951000D01*
X149277000Y-128811000D02*
X151657000Y-128811000D01*
X151847000Y-128811000D02*
X154227000Y-128811000D01*
X149301000Y-128671000D02*
X151262000Y-128671000D01*
X152242000Y-128671000D02*
X154203000Y-128671000D01*
X149334000Y-128531000D02*
X151095000Y-128531000D01*
X152409000Y-128531000D02*
X154170000Y-128531000D01*
X149375000Y-128391000D02*
X150988000Y-128391000D01*
X152516000Y-128391000D02*
X154129000Y-128391000D01*
X149425000Y-128251000D02*
X150917000Y-128251000D01*
X152587000Y-128251000D02*
X154079000Y-128251000D01*
X149486000Y-128111000D02*
X150873000Y-128111000D01*
X152631000Y-128111000D02*
X154018000Y-128111000D01*
X149556000Y-127971000D02*
X150854000Y-127971000D01*
X152650000Y-127971000D02*
X153948000Y-127971000D01*
X149638000Y-127831000D02*
X150856000Y-127831000D01*
X152648000Y-127831000D02*
X153866000Y-127831000D01*
X149733000Y-127691000D02*
X150881000Y-127691000D01*
X152623000Y-127691000D02*
X153771000Y-127691000D01*
X149844000Y-127551000D02*
X150929000Y-127551000D01*
X152575000Y-127551000D02*
X153660000Y-127551000D01*
X149972000Y-127411000D02*
X151007000Y-127411000D01*
X152497000Y-127411000D02*
X153532000Y-127411000D01*
X150121000Y-127271000D02*
X151124000Y-127271000D01*
X152380000Y-127271000D02*
X153383000Y-127271000D01*
X150300000Y-127131000D02*
X151312000Y-127131000D01*
X152192000Y-127131000D02*
X153204000Y-127131000D01*
X150519000Y-126991000D02*
X152985000Y-126991000D01*
X150808000Y-126851000D02*
X152696000Y-126851000D01*
X151280000Y-126711000D02*
X152224000Y-126711000D01*
X152652000Y-127916000D02*
G75*
G03X152652000Y-127916000I-900000J0D01*
G01*
X154289500Y-129166000D02*
G75*
G03X154289500Y-129166000I-2537500J0D01*
G01*
X124907000Y-60447800D02*
X129905000Y-60447800D01*
X124915000Y-60307800D02*
X129897000Y-60307800D01*
X124931000Y-60167800D02*
X127311000Y-60167800D01*
X127501000Y-60167800D02*
X129881000Y-60167800D01*
X124955000Y-60027800D02*
X126916000Y-60027800D01*
X127896000Y-60027800D02*
X129857000Y-60027800D01*
X124988000Y-59887800D02*
X126749000Y-59887800D01*
X128063000Y-59887800D02*
X129824000Y-59887800D01*
X125029000Y-59747800D02*
X126642000Y-59747800D01*
X128170000Y-59747800D02*
X129783000Y-59747800D01*
X125079000Y-59607800D02*
X126571000Y-59607800D01*
X128241000Y-59607800D02*
X129733000Y-59607800D01*
X125140000Y-59467800D02*
X126527000Y-59467800D01*
X128285000Y-59467800D02*
X129672000Y-59467800D01*
X125210000Y-59327800D02*
X126508000Y-59327800D01*
X128304000Y-59327800D02*
X129602000Y-59327800D01*
X125292000Y-59187800D02*
X126510000Y-59187800D01*
X128302000Y-59187800D02*
X129520000Y-59187800D01*
X125387000Y-59047800D02*
X126535000Y-59047800D01*
X128277000Y-59047800D02*
X129425000Y-59047800D01*
X125498000Y-58907800D02*
X126583000Y-58907800D01*
X128229000Y-58907800D02*
X129314000Y-58907800D01*
X125626000Y-58767800D02*
X126661000Y-58767800D01*
X128151000Y-58767800D02*
X129186000Y-58767800D01*
X125775000Y-58627800D02*
X126778000Y-58627800D01*
X128034000Y-58627800D02*
X129037000Y-58627800D01*
X125954000Y-58487800D02*
X126966000Y-58487800D01*
X127846000Y-58487800D02*
X128858000Y-58487800D01*
X126173000Y-58347800D02*
X128639000Y-58347800D01*
X126462000Y-58207800D02*
X128350000Y-58207800D01*
X126934000Y-58067800D02*
X127878000Y-58067800D01*
X128306000Y-59272800D02*
G75*
G03X128306000Y-59272800I-900000J0D01*
G01*
X129943500Y-60522800D02*
G75*
G03X129943500Y-60522800I-2537500J0D01*
G01*
X102235000Y-125222000D02*
X101473000Y-124206000D01*
X102235000Y-125222000D02*
X101473000Y-126238000D01*
X102235000Y-126238000D02*
X102235000Y-124206000D01*
X101473000Y-126238000D02*
X101473000Y-124206000D01*
X101905000Y-103543000D02*
X101143000Y-102527000D01*
X101905000Y-103543000D02*
X101143000Y-104559000D01*
X101905000Y-104559000D02*
X101905000Y-102527000D01*
X101143000Y-104559000D02*
X101143000Y-102527000D01*
X154153000Y-147396000D02*
X155169000Y-146634000D01*
X154153000Y-147396000D02*
X153137000Y-146634000D01*
X153137000Y-147396000D02*
X155169000Y-147396000D01*
X153137000Y-146634000D02*
X155169000Y-146634000D01*
X171648888Y-94233096D02*
G75*
G03X171664000Y-97258000I-2484888J-1524904D01*
G01*
X171664000Y-94258000D02*
X171664000Y-97258000D01*
X171681936Y-95758000D02*
G75*
G03X171681936Y-95758000I-2517936J0D01*
G01*
X161366000Y-145440000D02*
X162128000Y-146456000D01*
X161366000Y-145440000D02*
X162128000Y-144424000D01*
X161366000Y-144424000D02*
X161366000Y-146456000D01*
X162128000Y-144424000D02*
X162128000Y-146456000D01*
X159207000Y-141618000D02*
X158445000Y-140602000D01*
X159207000Y-141618000D02*
X158445000Y-142634000D01*
X159207000Y-142634000D02*
X159207000Y-140602000D01*
X158445000Y-142634000D02*
X158445000Y-140602000D01*
X159385000Y-138151000D02*
X158623000Y-137135000D01*
X159385000Y-138151000D02*
X158623000Y-139167000D01*
X159385000Y-139167000D02*
X159385000Y-137135000D01*
X158623000Y-139167000D02*
X158623000Y-137135000D01*
X158966000Y-132550000D02*
X159728000Y-133566000D01*
X158966000Y-132550000D02*
X159728000Y-131534000D01*
X158966000Y-131534000D02*
X158966000Y-133566000D01*
X159728000Y-131534000D02*
X159728000Y-133566000D01*
X116738000Y-69088000D02*
X117500000Y-70104000D01*
X116738000Y-69088000D02*
X117500000Y-68072000D01*
X116738000Y-68072000D02*
X116738000Y-70104000D01*
X117500000Y-68072000D02*
X117500000Y-70104000D01*
X116624000Y-54317900D02*
X115862000Y-53301900D01*
X116624000Y-54317900D02*
X115862000Y-55333900D01*
X116624000Y-55333900D02*
X116624000Y-53301900D01*
X115862000Y-55333900D02*
X115862000Y-53301900D01*
X116662000Y-64147700D02*
X115900000Y-63131700D01*
X116662000Y-64147700D02*
X115900000Y-65163700D01*
X116662000Y-65163700D02*
X116662000Y-63131700D01*
X115900000Y-65163700D02*
X115900000Y-63131700D01*
X116116000Y-58496200D02*
X116878000Y-59512200D01*
X116116000Y-58496200D02*
X116878000Y-57480200D01*
X116116000Y-57480200D02*
X116116000Y-59512200D01*
X116878000Y-57480200D02*
X116878000Y-59512200D01*
X171648888Y-102488096D02*
G75*
G03X171664000Y-105513000I-2484888J-1524904D01*
G01*
X171664000Y-102513000D02*
X171664000Y-105513000D01*
X171681936Y-104013000D02*
G75*
G03X171681936Y-104013000I-2517936J0D01*
G01*
X76234700Y-141008000D02*
X76234700Y-120688000D01*
X76784700Y-140468000D02*
X76784700Y-121248000D01*
X85334700Y-141008000D02*
X85334700Y-120688000D01*
X84784700Y-140468000D02*
X84784700Y-133098000D01*
X84784700Y-128598000D02*
X84784700Y-121248000D01*
X84784700Y-133098000D02*
X85334700Y-133098000D01*
X84784700Y-128598000D02*
X85334700Y-128598000D01*
X76234700Y-141008000D02*
X85334700Y-141008000D01*
X76784700Y-140468000D02*
X84784700Y-140468000D01*
X76234700Y-120688000D02*
X85334700Y-120688000D01*
X76784700Y-121248000D02*
X84784700Y-121248000D01*
X76234700Y-141008000D02*
X76784700Y-140468000D01*
X76234700Y-120688000D02*
X76784700Y-121248000D01*
X85334700Y-141008000D02*
X84784700Y-140468000D01*
X85334700Y-120688000D02*
X84784700Y-121248000D01*
X166195000Y-114578000D02*
X172195000Y-114578000D01*
X172195000Y-114578000D02*
X172195000Y-109298000D01*
X172195000Y-109298000D02*
X166195000Y-109298000D01*
X166195000Y-109298000D02*
X166195000Y-114578000D01*
X172195000Y-113208000D02*
X171195000Y-113208000D01*
X171195000Y-113208000D02*
X171195000Y-110668000D01*
X171195000Y-110668000D02*
X172195000Y-110668000D01*
X171195000Y-113208000D02*
X170765000Y-112958000D01*
X170765000Y-112958000D02*
X170765000Y-110918000D01*
X170765000Y-110918000D02*
X171195000Y-110668000D01*
X172195000Y-112958000D02*
X171195000Y-112958000D01*
X172195000Y-110918000D02*
X171195000Y-110918000D01*
X166195000Y-114008000D02*
X166815000Y-114008000D01*
X166815000Y-114008000D02*
X166815000Y-112408000D01*
X166815000Y-112408000D02*
X166195000Y-112408000D01*
X166195000Y-111468000D02*
X166815000Y-111468000D01*
X166815000Y-111468000D02*
X166815000Y-109868000D01*
X166815000Y-109868000D02*
X166195000Y-109868000D01*
X166246000Y-127786000D02*
X172246000Y-127786000D01*
X172246000Y-127786000D02*
X172246000Y-122506000D01*
X172246000Y-122506000D02*
X166246000Y-122506000D01*
X166246000Y-122506000D02*
X166246000Y-127786000D01*
X172246000Y-126416000D02*
X171246000Y-126416000D01*
X171246000Y-126416000D02*
X171246000Y-123876000D01*
X171246000Y-123876000D02*
X172246000Y-123876000D01*
X171246000Y-126416000D02*
X170816000Y-126166000D01*
X170816000Y-126166000D02*
X170816000Y-124126000D01*
X170816000Y-124126000D02*
X171246000Y-123876000D01*
X172246000Y-126166000D02*
X171246000Y-126166000D01*
X172246000Y-124126000D02*
X171246000Y-124126000D01*
X166246000Y-127216000D02*
X166866000Y-127216000D01*
X166866000Y-127216000D02*
X166866000Y-125616000D01*
X166866000Y-125616000D02*
X166246000Y-125616000D01*
X166246000Y-124676000D02*
X166866000Y-124676000D01*
X166866000Y-124676000D02*
X166866000Y-123076000D01*
X166866000Y-123076000D02*
X166246000Y-123076000D01*
X166246000Y-120852000D02*
X172246000Y-120852000D01*
X172246000Y-120852000D02*
X172246000Y-115572000D01*
X172246000Y-115572000D02*
X166246000Y-115572000D01*
X166246000Y-115572000D02*
X166246000Y-120852000D01*
X172246000Y-119482000D02*
X171246000Y-119482000D01*
X171246000Y-119482000D02*
X171246000Y-116942000D01*
X171246000Y-116942000D02*
X172246000Y-116942000D01*
X171246000Y-119482000D02*
X170816000Y-119232000D01*
X170816000Y-119232000D02*
X170816000Y-117192000D01*
X170816000Y-117192000D02*
X171246000Y-116942000D01*
X172246000Y-119232000D02*
X171246000Y-119232000D01*
X172246000Y-117192000D02*
X171246000Y-117192000D01*
X166246000Y-120282000D02*
X166866000Y-120282000D01*
X166866000Y-120282000D02*
X166866000Y-118682000D01*
X166866000Y-118682000D02*
X166246000Y-118682000D01*
X166246000Y-117742000D02*
X166866000Y-117742000D01*
X166866000Y-117742000D02*
X166866000Y-116142000D01*
X166866000Y-116142000D02*
X166246000Y-116142000D01*
X166398000Y-142238000D02*
X172398000Y-142238000D01*
X172398000Y-142238000D02*
X172398000Y-136958000D01*
X172398000Y-136958000D02*
X166398000Y-136958000D01*
X166398000Y-136958000D02*
X166398000Y-142238000D01*
X172398000Y-140868000D02*
X171398000Y-140868000D01*
X171398000Y-140868000D02*
X171398000Y-138328000D01*
X171398000Y-138328000D02*
X172398000Y-138328000D01*
X171398000Y-140868000D02*
X170968000Y-140618000D01*
X170968000Y-140618000D02*
X170968000Y-138578000D01*
X170968000Y-138578000D02*
X171398000Y-138328000D01*
X172398000Y-140618000D02*
X171398000Y-140618000D01*
X172398000Y-138578000D02*
X171398000Y-138578000D01*
X166398000Y-141668000D02*
X167018000Y-141668000D01*
X167018000Y-141668000D02*
X167018000Y-140068000D01*
X167018000Y-140068000D02*
X166398000Y-140068000D01*
X166398000Y-139128000D02*
X167018000Y-139128000D01*
X167018000Y-139128000D02*
X167018000Y-137528000D01*
X167018000Y-137528000D02*
X166398000Y-137528000D01*
X80391000Y-90805000D02*
G75*
G03X80391000Y-90805000I-2286000J0D01*
G01*
X89573100Y-56007000D02*
G75*
G03X89573100Y-56007000I-2286000J0D01*
G01*
X166246000Y-135101000D02*
X172246000Y-135101000D01*
X172246000Y-135101000D02*
X172246000Y-129821000D01*
X172246000Y-129821000D02*
X166246000Y-129821000D01*
X166246000Y-129821000D02*
X166246000Y-135101000D01*
X172246000Y-133731000D02*
X171246000Y-133731000D01*
X171246000Y-133731000D02*
X171246000Y-131191000D01*
X171246000Y-131191000D02*
X172246000Y-131191000D01*
X171246000Y-133731000D02*
X170816000Y-133481000D01*
X170816000Y-133481000D02*
X170816000Y-131441000D01*
X170816000Y-131441000D02*
X171246000Y-131191000D01*
X172246000Y-133481000D02*
X171246000Y-133481000D01*
X172246000Y-131441000D02*
X171246000Y-131441000D01*
X166246000Y-134531000D02*
X166866000Y-134531000D01*
X166866000Y-134531000D02*
X166866000Y-132931000D01*
X166866000Y-132931000D02*
X166246000Y-132931000D01*
X166246000Y-131991000D02*
X166866000Y-131991000D01*
X166866000Y-131991000D02*
X166866000Y-130391000D01*
X166866000Y-130391000D02*
X166246000Y-130391000D01*
X132842000Y-144348000D02*
X132842000Y-149936000D01*
X132842000Y-149936000D02*
X149098000Y-149936000D01*
X149098000Y-149936000D02*
X149098000Y-144348000D01*
X149098000Y-144348000D02*
X132842000Y-144348000D01*
X152527000Y-142875000D02*
X152527000Y-147955000D01*
X152527000Y-147955000D02*
X149987000Y-147955000D01*
X149987000Y-147955000D02*
X149987000Y-142875000D01*
X149987000Y-142875000D02*
X152527000Y-142875000D01*
X171818000Y-84416900D02*
X171818000Y-89496900D01*
X171818000Y-89496900D02*
X169278000Y-89496900D01*
X169278000Y-89496900D02*
X169278000Y-84416900D01*
X169278000Y-84416900D02*
X171818000Y-84416900D01*
X147002000Y-89408000D02*
X152082000Y-89408000D01*
X152082000Y-89408000D02*
X152082000Y-91948000D01*
X152082000Y-91948000D02*
X147002000Y-91948000D01*
X147002000Y-91948000D02*
X147002000Y-89408000D01*
X156134000Y-65405000D02*
X161214000Y-65405000D01*
X161214000Y-65405000D02*
X161214000Y-67945000D01*
X161214000Y-67945000D02*
X156134000Y-67945000D01*
X156134000Y-67945000D02*
X156134000Y-65405000D01*
X158775000Y-113081000D02*
X153695000Y-113081000D01*
X153695000Y-113081000D02*
X153695000Y-110541000D01*
X153695000Y-110541000D02*
X158775000Y-110541000D01*
X158775000Y-110541000D02*
X158775000Y-113081000D01*
X151892000Y-74587100D02*
X146812000Y-74587100D01*
X146812000Y-74587100D02*
X146812000Y-72047100D01*
X146812000Y-72047100D02*
X151892000Y-72047100D01*
X151892000Y-72047100D02*
X151892000Y-74587100D01*
X121310000Y-91084400D02*
X116230000Y-91084400D01*
X116230000Y-91084400D02*
X116230000Y-88544400D01*
X116230000Y-88544400D02*
X121310000Y-88544400D01*
X121310000Y-88544400D02*
X121310000Y-91084400D01*
X129210000Y-123673000D02*
X129210000Y-118593000D01*
X129210000Y-118593000D02*
X131750000Y-118593000D01*
X131750000Y-118593000D02*
X131750000Y-123673000D01*
X131750000Y-123673000D02*
X129210000Y-123673000D01*
X136144000Y-65481200D02*
X131064000Y-65481200D01*
X131064000Y-65481200D02*
X131064000Y-62941200D01*
X131064000Y-62941200D02*
X136144000Y-62941200D01*
X136144000Y-62941200D02*
X136144000Y-65481200D01*
X125108000Y-71589900D02*
X125108000Y-76669900D01*
X125108000Y-76669900D02*
X122568000Y-76669900D01*
X122568000Y-76669900D02*
X122568000Y-71589900D01*
X122568000Y-71589900D02*
X125108000Y-71589900D01*
X165138000Y-97205800D02*
X165138000Y-102285800D01*
X165138000Y-102285800D02*
X162598000Y-102285800D01*
X162598000Y-102285800D02*
X162598000Y-97205800D01*
X162598000Y-97205800D02*
X165138000Y-97205800D01*
X147244000Y-111062000D02*
X147244000Y-116142000D01*
X147244000Y-116142000D02*
X144704000Y-116142000D01*
X144704000Y-116142000D02*
X144704000Y-111062000D01*
X144704000Y-111062000D02*
X147244000Y-111062000D01*
X108458000Y-51689000D02*
X91948000Y-51816000D01*
X91948000Y-51816000D02*
X91948000Y-86868000D01*
X91948000Y-86868000D02*
X108331000Y-86868000D01*
X108331000Y-86868000D02*
X108458000Y-51689000D01*
X90732500Y-120566000D02*
X92002500Y-120566000D01*
X90732500Y-113216000D02*
X92002500Y-113216000D01*
X110562500Y-113216000D02*
X109292500Y-113216000D01*
X110562500Y-120566000D02*
X109292500Y-120566000D01*
X90732500Y-120566000D02*
X90732500Y-113216000D01*
X110562500Y-120566000D02*
X110562500Y-113216000D01*
X92002500Y-120566000D02*
X92002500Y-121501000D01*
X90211800Y-100043000D02*
X91481800Y-100043000D01*
X90211800Y-92693000D02*
X91481800Y-92693000D01*
X110041800Y-92693000D02*
X108771800Y-92693000D01*
X110041800Y-100043000D02*
X108771800Y-100043000D01*
X90211800Y-100043000D02*
X90211800Y-92693000D01*
X110041800Y-100043000D02*
X110041800Y-92693000D01*
X91481800Y-100043000D02*
X91481800Y-100978000D01*
X142537000Y-108619000D02*
X142537000Y-107349000D01*
X127567000Y-108619000D02*
X127567000Y-107349000D01*
X127567000Y-65929000D02*
X127567000Y-67199000D01*
X142537000Y-65929000D02*
X142537000Y-67199000D01*
X142537000Y-108619000D02*
X127567000Y-108619000D01*
X142537000Y-65929000D02*
X127567000Y-65929000D01*
X142537000Y-107349000D02*
X143472000Y-107349000D01*
X114046000Y-87071200D02*
X114046000Y-75641200D01*
X114046000Y-75641200D02*
X116586000Y-73101200D01*
X116586000Y-73101200D02*
X119126000Y-73101200D01*
X119126000Y-73101200D02*
X121666000Y-75641200D01*
X121666000Y-75641200D02*
X121666000Y-87071200D01*
X121666000Y-87071200D02*
X114046000Y-87071200D01*
X114046000Y-78689200D02*
X114046000Y-77546200D01*
X121666000Y-77800200D02*
X121666000Y-78689200D01*
X117348000Y-81991200D02*
X117348000Y-74498200D01*
X118364000Y-81991200D02*
X118364000Y-74498200D01*
X121718554Y-78181200D02*
G75*
G03X121718554Y-78181200I-3862554J0D01*
G01*
X148942760Y-87795100D02*
X148541440Y-87995760D01*
X148541440Y-87995760D02*
X147942000Y-88097360D01*
X147942000Y-88097360D02*
X147441620Y-87995760D01*
X147441620Y-87995760D02*
X146743120Y-87596980D01*
X146743120Y-87596980D02*
X146341800Y-86995000D01*
X146341800Y-86995000D02*
X146141140Y-86395560D01*
X146141140Y-86395560D02*
X146141140Y-79796640D01*
X146141140Y-79796640D02*
X146341800Y-79095600D01*
X146341800Y-79095600D02*
X146641520Y-78696820D01*
X146641520Y-78696820D02*
X147141900Y-78295500D01*
X147141900Y-78295500D02*
X147741340Y-78094840D01*
X147741340Y-78094840D02*
X148241720Y-78094840D01*
X148241720Y-78094840D02*
X148742100Y-78295500D01*
X148742100Y-78295500D02*
X149341540Y-78795880D01*
X149341540Y-78795880D02*
X149641260Y-79296260D01*
X149641260Y-79296260D02*
X149742860Y-79796640D01*
X149742860Y-79895700D02*
X149742860Y-86497160D01*
X149742860Y-86497160D02*
X149641260Y-86895940D01*
X149641260Y-86895940D02*
X149341540Y-87396320D01*
X149341540Y-87396320D02*
X148841160Y-87896700D01*
X150271180Y-79905860D02*
X150222920Y-79446120D01*
X150222920Y-79446120D02*
X150111160Y-79047340D01*
X150111160Y-79047340D02*
X149892720Y-78615540D01*
X149892720Y-78615540D02*
X149661580Y-78325980D01*
X149661580Y-78325980D02*
X149311060Y-77995780D01*
X149311060Y-77995780D02*
X148772580Y-77706220D01*
X148772580Y-77706220D02*
X148173140Y-77576680D01*
X148173140Y-77576680D02*
X147662600Y-77576680D01*
X147662600Y-77576680D02*
X146961560Y-77746860D01*
X146961560Y-77746860D02*
X146372280Y-78145640D01*
X146372280Y-78145640D02*
X146001440Y-78605380D01*
X146001440Y-78605380D02*
X145793160Y-79027020D01*
X145793160Y-79027020D02*
X145633140Y-79476600D01*
X145633140Y-79476600D02*
X145602660Y-79916020D01*
X145821100Y-87256620D02*
X146042080Y-87635080D01*
X146042080Y-87635080D02*
X146321480Y-87955120D01*
X146321480Y-87955120D02*
X146651680Y-88206580D01*
X146651680Y-88206580D02*
X147202860Y-88506300D01*
X147202860Y-88506300D02*
X147672760Y-88615520D01*
X147672760Y-88615520D02*
X148132500Y-88635840D01*
X148132500Y-88635840D02*
X148592240Y-88546940D01*
X148592240Y-88546940D02*
X149041820Y-88356440D01*
X149041820Y-88356440D02*
X149511720Y-87995760D01*
X149511720Y-87995760D02*
X149831760Y-87645240D01*
X149831760Y-87645240D02*
X150062900Y-87256620D01*
X150062900Y-87256620D02*
X150202600Y-86827360D01*
X150202600Y-86827360D02*
X150271180Y-86385400D01*
X145612820Y-79895700D02*
X145612820Y-86347300D01*
X145612820Y-86347300D02*
X145650920Y-86766400D01*
X145650920Y-86766400D02*
X145821100Y-87256620D01*
X150271180Y-79895700D02*
X150271180Y-86347300D01*
X75119600Y-87437600D02*
X75119600Y-60437600D01*
X75119600Y-60437600D02*
X86119600Y-60437600D01*
X86119600Y-60437600D02*
X86119600Y-87437600D01*
X86119600Y-87437600D02*
X75119600Y-87437600D01*
X130861000Y-149123000D02*
X87427000Y-149123000D01*
X87427000Y-149123000D02*
X87427000Y-128041000D01*
X87427000Y-128041000D02*
X131115000Y-128041000D01*
X131115000Y-128041000D02*
X130861000Y-149123000D01*
X134092000Y-121529000D02*
X145522000Y-121529000D01*
X145522000Y-121529000D02*
X148062000Y-124069000D01*
X148062000Y-124069000D02*
X148062000Y-126609000D01*
X148062000Y-126609000D02*
X145522000Y-129149000D01*
X145522000Y-129149000D02*
X134092000Y-129149000D01*
X134092000Y-129149000D02*
X134092000Y-121529000D01*
X142474000Y-121529000D02*
X143617000Y-121529000D01*
X143363000Y-129149000D02*
X142474000Y-129149000D01*
X139172000Y-124831000D02*
X146665000Y-124831000D01*
X139172000Y-125847000D02*
X146665000Y-125847000D01*
X146844554Y-125339000D02*
G75*
G03X146844554Y-125339000I-3862554J0D01*
G01*
X79720440Y-54229000D02*
G75*
G03X79720440Y-54229000I-2286000J0D01*
G01*
X80391000Y-146039840D02*
G75*
G03X80391000Y-146039840I-2286000J0D01*
G01*
X171378880Y-145790920D02*
G75*
G03X171378880Y-145790920I-2286000J0D01*
G01*
X171196000Y-55118000D02*
G75*
G03X171196000Y-55118000I-2286000J0D01*
G01*
X82167843Y-108796666D02*
X82215462Y-108844285D01*
X82263081Y-108987142D01*
X82263081Y-109082380D01*
X82215462Y-109225238D01*
X82120224Y-109320476D01*
X82024986Y-109368095D01*
X81834510Y-109415714D01*
X81691652Y-109415714D01*
X81501176Y-109368095D01*
X81405938Y-109320476D01*
X81310700Y-109225238D01*
X81263081Y-109082380D01*
X81263081Y-108987142D01*
X81310700Y-108844285D01*
X81358319Y-108796666D01*
X82263081Y-107844285D02*
X82263081Y-108415714D01*
X82263081Y-108130000D02*
X81263081Y-108130000D01*
X81405938Y-108225238D01*
X81501176Y-108320476D01*
X81548795Y-108415714D01*
X89863081Y-109558571D02*
X89863081Y-110130000D01*
X89863081Y-109844286D02*
X88863081Y-109844286D01*
X89005938Y-109939524D01*
X89101176Y-110034762D01*
X89148795Y-110130000D01*
X88863081Y-108939524D02*
X88863081Y-108844285D01*
X88910700Y-108749047D01*
X88958319Y-108701428D01*
X89053557Y-108653809D01*
X89244033Y-108606190D01*
X89482129Y-108606190D01*
X89672605Y-108653809D01*
X89767843Y-108701428D01*
X89815462Y-108749047D01*
X89863081Y-108844285D01*
X89863081Y-108939524D01*
X89815462Y-109034762D01*
X89767843Y-109082381D01*
X89672605Y-109130000D01*
X89482129Y-109177619D01*
X89244033Y-109177619D01*
X89053557Y-109130000D01*
X88958319Y-109082381D01*
X88910700Y-109034762D01*
X88863081Y-108939524D01*
X89196414Y-107749047D02*
X89863081Y-107749047D01*
X89196414Y-108177619D02*
X89720224Y-108177619D01*
X89815462Y-108130000D01*
X89863081Y-108034762D01*
X89863081Y-107891904D01*
X89815462Y-107796666D01*
X89767843Y-107749047D01*
X89196414Y-107415714D02*
X89196414Y-107034762D01*
X89863081Y-107272857D02*
X89005938Y-107272857D01*
X88910700Y-107225238D01*
X88863081Y-107130000D01*
X88863081Y-107034762D01*
X142848143Y-140292666D02*
X142895762Y-140340285D01*
X142943381Y-140483142D01*
X142943381Y-140578380D01*
X142895762Y-140721238D01*
X142800524Y-140816476D01*
X142705286Y-140864095D01*
X142514810Y-140911714D01*
X142371952Y-140911714D01*
X142181476Y-140864095D01*
X142086238Y-140816476D01*
X141991000Y-140721238D01*
X141943381Y-140578380D01*
X141943381Y-140483142D01*
X141991000Y-140340285D01*
X142038619Y-140292666D01*
X142038619Y-139911714D02*
X141991000Y-139864095D01*
X141943381Y-139768857D01*
X141943381Y-139530761D01*
X141991000Y-139435523D01*
X142038619Y-139387904D01*
X142133857Y-139340285D01*
X142229095Y-139340285D01*
X142371952Y-139387904D01*
X142943381Y-139959333D01*
X142943381Y-139340285D01*
X149765981Y-138621571D02*
X149765981Y-139193000D01*
X149765981Y-138907286D02*
X148765981Y-138907286D01*
X148908838Y-139002524D01*
X149004076Y-139097762D01*
X149051695Y-139193000D01*
X148765981Y-138002524D02*
X148765981Y-137907285D01*
X148813600Y-137812047D01*
X148861219Y-137764428D01*
X148956457Y-137716809D01*
X149146933Y-137669190D01*
X149385029Y-137669190D01*
X149575505Y-137716809D01*
X149670743Y-137764428D01*
X149718362Y-137812047D01*
X149765981Y-137907285D01*
X149765981Y-138002524D01*
X149718362Y-138097762D01*
X149670743Y-138145381D01*
X149575505Y-138193000D01*
X149385029Y-138240619D01*
X149146933Y-138240619D01*
X148956457Y-138193000D01*
X148861219Y-138145381D01*
X148813600Y-138097762D01*
X148765981Y-138002524D01*
X149099314Y-136812047D02*
X149765981Y-136812047D01*
X149099314Y-137240619D02*
X149623124Y-137240619D01*
X149718362Y-137193000D01*
X149765981Y-137097762D01*
X149765981Y-136954904D01*
X149718362Y-136859666D01*
X149670743Y-136812047D01*
X149099314Y-136478714D02*
X149099314Y-136097762D01*
X149765981Y-136335857D02*
X148908838Y-136335857D01*
X148813600Y-136288238D01*
X148765981Y-136193000D01*
X148765981Y-136097762D01*
X146694334Y-132198143D02*
X146646715Y-132245762D01*
X146503858Y-132293381D01*
X146408620Y-132293381D01*
X146265762Y-132245762D01*
X146170524Y-132150524D01*
X146122905Y-132055286D01*
X146075286Y-131864810D01*
X146075286Y-131721952D01*
X146122905Y-131531476D01*
X146170524Y-131436238D01*
X146265762Y-131341000D01*
X146408620Y-131293381D01*
X146503858Y-131293381D01*
X146646715Y-131341000D01*
X146694334Y-131388619D01*
X147027667Y-131293381D02*
X147646715Y-131293381D01*
X147313381Y-131674333D01*
X147456239Y-131674333D01*
X147551477Y-131721952D01*
X147599096Y-131769571D01*
X147646715Y-131864810D01*
X147646715Y-132102905D01*
X147599096Y-132198143D01*
X147551477Y-132245762D01*
X147456239Y-132293381D01*
X147170524Y-132293381D01*
X147075286Y-132245762D01*
X147027667Y-132198143D01*
X145718453Y-134717181D02*
X145147024Y-134717181D01*
X145432738Y-134717181D02*
X145432738Y-133717181D01*
X145337500Y-133860038D01*
X145242262Y-133955276D01*
X145147024Y-134002895D01*
X146337500Y-133717181D02*
X146432739Y-133717181D01*
X146527977Y-133764800D01*
X146575596Y-133812419D01*
X146623215Y-133907657D01*
X146670834Y-134098133D01*
X146670834Y-134336229D01*
X146623215Y-134526705D01*
X146575596Y-134621943D01*
X146527977Y-134669562D01*
X146432739Y-134717181D01*
X146337500Y-134717181D01*
X146242262Y-134669562D01*
X146194643Y-134621943D01*
X146147024Y-134526705D01*
X146099405Y-134336229D01*
X146099405Y-134098133D01*
X146147024Y-133907657D01*
X146194643Y-133812419D01*
X146242262Y-133764800D01*
X146337500Y-133717181D01*
X147289881Y-133717181D02*
X147385120Y-133717181D01*
X147480358Y-133764800D01*
X147527977Y-133812419D01*
X147575596Y-133907657D01*
X147623215Y-134098133D01*
X147623215Y-134336229D01*
X147575596Y-134526705D01*
X147527977Y-134621943D01*
X147480358Y-134669562D01*
X147385120Y-134717181D01*
X147289881Y-134717181D01*
X147194643Y-134669562D01*
X147147024Y-134621943D01*
X147099405Y-134526705D01*
X147051786Y-134336229D01*
X147051786Y-134098133D01*
X147099405Y-133907657D01*
X147147024Y-133812419D01*
X147194643Y-133764800D01*
X147289881Y-133717181D01*
X148051786Y-134050514D02*
X148051786Y-134717181D01*
X148051786Y-134145752D02*
X148099405Y-134098133D01*
X148194643Y-134050514D01*
X148337501Y-134050514D01*
X148432739Y-134098133D01*
X148480358Y-134193371D01*
X148480358Y-134717181D01*
X119828334Y-114540143D02*
X119780715Y-114587762D01*
X119637858Y-114635381D01*
X119542620Y-114635381D01*
X119399762Y-114587762D01*
X119304524Y-114492524D01*
X119256905Y-114397286D01*
X119209286Y-114206810D01*
X119209286Y-114063952D01*
X119256905Y-113873476D01*
X119304524Y-113778238D01*
X119399762Y-113683000D01*
X119542620Y-113635381D01*
X119637858Y-113635381D01*
X119780715Y-113683000D01*
X119828334Y-113730619D01*
X120685477Y-113968714D02*
X120685477Y-114635381D01*
X120447381Y-113587762D02*
X120209286Y-114302048D01*
X120828334Y-114302048D01*
X123503096Y-117285714D02*
X123503096Y-117952381D01*
X123265000Y-116904762D02*
X123026905Y-117619048D01*
X123645953Y-117619048D01*
X124026905Y-117857143D02*
X124074524Y-117904762D01*
X124026905Y-117952381D01*
X123979286Y-117904762D01*
X124026905Y-117857143D01*
X124026905Y-117952381D01*
X124407857Y-116952381D02*
X125074524Y-116952381D01*
X124645952Y-117952381D01*
X125884048Y-117285714D02*
X125884048Y-117952381D01*
X125455476Y-117285714D02*
X125455476Y-117809524D01*
X125503095Y-117904762D01*
X125598333Y-117952381D01*
X125741191Y-117952381D01*
X125836429Y-117904762D01*
X125884048Y-117857143D01*
X126217381Y-117285714D02*
X126598333Y-117285714D01*
X126360238Y-117952381D02*
X126360238Y-117095238D01*
X126407857Y-117000000D01*
X126503095Y-116952381D01*
X126598333Y-116952381D01*
X156297434Y-121896043D02*
X156249815Y-121943662D01*
X156106958Y-121991281D01*
X156011720Y-121991281D01*
X155868862Y-121943662D01*
X155773624Y-121848424D01*
X155726005Y-121753186D01*
X155678386Y-121562710D01*
X155678386Y-121419852D01*
X155726005Y-121229376D01*
X155773624Y-121134138D01*
X155868862Y-121038900D01*
X156011720Y-120991281D01*
X156106958Y-120991281D01*
X156249815Y-121038900D01*
X156297434Y-121086519D01*
X157202196Y-120991281D02*
X156726005Y-120991281D01*
X156678386Y-121467471D01*
X156726005Y-121419852D01*
X156821243Y-121372233D01*
X157059339Y-121372233D01*
X157154577Y-121419852D01*
X157202196Y-121467471D01*
X157249815Y-121562710D01*
X157249815Y-121800805D01*
X157202196Y-121896043D01*
X157154577Y-121943662D01*
X157059339Y-121991281D01*
X156821243Y-121991281D01*
X156726005Y-121943662D01*
X156678386Y-121896043D01*
X155345053Y-119756081D02*
X154773624Y-119756081D01*
X155059338Y-119756081D02*
X155059338Y-118756081D01*
X154964100Y-118898938D01*
X154868862Y-118994176D01*
X154773624Y-119041795D01*
X155964100Y-118756081D02*
X156059339Y-118756081D01*
X156154577Y-118803700D01*
X156202196Y-118851319D01*
X156249815Y-118946557D01*
X156297434Y-119137033D01*
X156297434Y-119375129D01*
X156249815Y-119565605D01*
X156202196Y-119660843D01*
X156154577Y-119708462D01*
X156059339Y-119756081D01*
X155964100Y-119756081D01*
X155868862Y-119708462D01*
X155821243Y-119660843D01*
X155773624Y-119565605D01*
X155726005Y-119375129D01*
X155726005Y-119137033D01*
X155773624Y-118946557D01*
X155821243Y-118851319D01*
X155868862Y-118803700D01*
X155964100Y-118756081D01*
X156916481Y-118756081D02*
X157011720Y-118756081D01*
X157106958Y-118803700D01*
X157154577Y-118851319D01*
X157202196Y-118946557D01*
X157249815Y-119137033D01*
X157249815Y-119375129D01*
X157202196Y-119565605D01*
X157154577Y-119660843D01*
X157106958Y-119708462D01*
X157011720Y-119756081D01*
X156916481Y-119756081D01*
X156821243Y-119708462D01*
X156773624Y-119660843D01*
X156726005Y-119565605D01*
X156678386Y-119375129D01*
X156678386Y-119137033D01*
X156726005Y-118946557D01*
X156773624Y-118851319D01*
X156821243Y-118803700D01*
X156916481Y-118756081D01*
X157678386Y-119089414D02*
X157678386Y-119756081D01*
X157678386Y-119184652D02*
X157726005Y-119137033D01*
X157821243Y-119089414D01*
X157964101Y-119089414D01*
X158059339Y-119137033D01*
X158106958Y-119232271D01*
X158106958Y-119756081D01*
X116806143Y-123971666D02*
X116853762Y-124019285D01*
X116901381Y-124162142D01*
X116901381Y-124257380D01*
X116853762Y-124400238D01*
X116758524Y-124495476D01*
X116663286Y-124543095D01*
X116472810Y-124590714D01*
X116329952Y-124590714D01*
X116139476Y-124543095D01*
X116044238Y-124495476D01*
X115949000Y-124400238D01*
X115901381Y-124257380D01*
X115901381Y-124162142D01*
X115949000Y-124019285D01*
X115996619Y-123971666D01*
X115901381Y-123114523D02*
X115901381Y-123305000D01*
X115949000Y-123400238D01*
X115996619Y-123447857D01*
X116139476Y-123543095D01*
X116329952Y-123590714D01*
X116710905Y-123590714D01*
X116806143Y-123543095D01*
X116853762Y-123495476D01*
X116901381Y-123400238D01*
X116901381Y-123209761D01*
X116853762Y-123114523D01*
X116806143Y-123066904D01*
X116710905Y-123019285D01*
X116472810Y-123019285D01*
X116377571Y-123066904D01*
X116329952Y-123114523D01*
X116282333Y-123209761D01*
X116282333Y-123400238D01*
X116329952Y-123495476D01*
X116377571Y-123543095D01*
X116472810Y-123590714D01*
X113457381Y-120273428D02*
X113457381Y-120844857D01*
X113457381Y-120559143D02*
X112457381Y-120559143D01*
X112600238Y-120654381D01*
X112695476Y-120749619D01*
X112743095Y-120844857D01*
X112457381Y-119654381D02*
X112457381Y-119559142D01*
X112505000Y-119463904D01*
X112552619Y-119416285D01*
X112647857Y-119368666D01*
X112838333Y-119321047D01*
X113076429Y-119321047D01*
X113266905Y-119368666D01*
X113362143Y-119416285D01*
X113409762Y-119463904D01*
X113457381Y-119559142D01*
X113457381Y-119654381D01*
X113409762Y-119749619D01*
X113362143Y-119797238D01*
X113266905Y-119844857D01*
X113076429Y-119892476D01*
X112838333Y-119892476D01*
X112647857Y-119844857D01*
X112552619Y-119797238D01*
X112505000Y-119749619D01*
X112457381Y-119654381D01*
X112790714Y-118463904D02*
X113457381Y-118463904D01*
X112790714Y-118892476D02*
X113314524Y-118892476D01*
X113409762Y-118844857D01*
X113457381Y-118749619D01*
X113457381Y-118606761D01*
X113409762Y-118511523D01*
X113362143Y-118463904D01*
X112933571Y-117654380D02*
X112933571Y-117987714D01*
X113457381Y-117987714D02*
X112457381Y-117987714D01*
X112457381Y-117511523D01*
X107936143Y-105215666D02*
X107983762Y-105263285D01*
X108031381Y-105406142D01*
X108031381Y-105501380D01*
X107983762Y-105644238D01*
X107888524Y-105739476D01*
X107793286Y-105787095D01*
X107602810Y-105834714D01*
X107459952Y-105834714D01*
X107269476Y-105787095D01*
X107174238Y-105739476D01*
X107079000Y-105644238D01*
X107031381Y-105501380D01*
X107031381Y-105406142D01*
X107079000Y-105263285D01*
X107126619Y-105215666D01*
X107031381Y-104882333D02*
X107031381Y-104215666D01*
X108031381Y-104644238D01*
X115631381Y-106120428D02*
X115631381Y-106691857D01*
X115631381Y-106406143D02*
X114631381Y-106406143D01*
X114774238Y-106501381D01*
X114869476Y-106596619D01*
X114917095Y-106691857D01*
X114631381Y-105501381D02*
X114631381Y-105406142D01*
X114679000Y-105310904D01*
X114726619Y-105263285D01*
X114821857Y-105215666D01*
X115012333Y-105168047D01*
X115250429Y-105168047D01*
X115440905Y-105215666D01*
X115536143Y-105263285D01*
X115583762Y-105310904D01*
X115631381Y-105406142D01*
X115631381Y-105501381D01*
X115583762Y-105596619D01*
X115536143Y-105644238D01*
X115440905Y-105691857D01*
X115250429Y-105739476D01*
X115012333Y-105739476D01*
X114821857Y-105691857D01*
X114726619Y-105644238D01*
X114679000Y-105596619D01*
X114631381Y-105501381D01*
X114964714Y-104310904D02*
X115631381Y-104310904D01*
X114964714Y-104739476D02*
X115488524Y-104739476D01*
X115583762Y-104691857D01*
X115631381Y-104596619D01*
X115631381Y-104453761D01*
X115583762Y-104358523D01*
X115536143Y-104310904D01*
X115107571Y-103501380D02*
X115107571Y-103834714D01*
X115631381Y-103834714D02*
X114631381Y-103834714D01*
X114631381Y-103358523D01*
X115617334Y-108982143D02*
X115569715Y-109029762D01*
X115426858Y-109077381D01*
X115331620Y-109077381D01*
X115188762Y-109029762D01*
X115093524Y-108934524D01*
X115045905Y-108839286D01*
X114998286Y-108648810D01*
X114998286Y-108505952D01*
X115045905Y-108315476D01*
X115093524Y-108220238D01*
X115188762Y-108125000D01*
X115331620Y-108077381D01*
X115426858Y-108077381D01*
X115569715Y-108125000D01*
X115617334Y-108172619D01*
X116188762Y-108505952D02*
X116093524Y-108458333D01*
X116045905Y-108410714D01*
X115998286Y-108315476D01*
X115998286Y-108267857D01*
X116045905Y-108172619D01*
X116093524Y-108125000D01*
X116188762Y-108077381D01*
X116379239Y-108077381D01*
X116474477Y-108125000D01*
X116522096Y-108172619D01*
X116569715Y-108267857D01*
X116569715Y-108315476D01*
X116522096Y-108410714D01*
X116474477Y-108458333D01*
X116379239Y-108505952D01*
X116188762Y-108505952D01*
X116093524Y-108553571D01*
X116045905Y-108601190D01*
X115998286Y-108696429D01*
X115998286Y-108886905D01*
X116045905Y-108982143D01*
X116093524Y-109029762D01*
X116188762Y-109077381D01*
X116379239Y-109077381D01*
X116474477Y-109029762D01*
X116522096Y-108982143D01*
X116569715Y-108886905D01*
X116569715Y-108696429D01*
X116522096Y-108601190D01*
X116474477Y-108553571D01*
X116379239Y-108505952D01*
X114379238Y-114077381D02*
X113807809Y-114077381D01*
X114093523Y-114077381D02*
X114093523Y-113077381D01*
X113998285Y-113220238D01*
X113903047Y-113315476D01*
X113807809Y-113363095D01*
X114998285Y-113077381D02*
X115093524Y-113077381D01*
X115188762Y-113125000D01*
X115236381Y-113172619D01*
X115284000Y-113267857D01*
X115331619Y-113458333D01*
X115331619Y-113696429D01*
X115284000Y-113886905D01*
X115236381Y-113982143D01*
X115188762Y-114029762D01*
X115093524Y-114077381D01*
X114998285Y-114077381D01*
X114903047Y-114029762D01*
X114855428Y-113982143D01*
X114807809Y-113886905D01*
X114760190Y-113696429D01*
X114760190Y-113458333D01*
X114807809Y-113267857D01*
X114855428Y-113172619D01*
X114903047Y-113125000D01*
X114998285Y-113077381D01*
X115950666Y-113077381D02*
X116045905Y-113077381D01*
X116141143Y-113125000D01*
X116188762Y-113172619D01*
X116236381Y-113267857D01*
X116284000Y-113458333D01*
X116284000Y-113696429D01*
X116236381Y-113886905D01*
X116188762Y-113982143D01*
X116141143Y-114029762D01*
X116045905Y-114077381D01*
X115950666Y-114077381D01*
X115855428Y-114029762D01*
X115807809Y-113982143D01*
X115760190Y-113886905D01*
X115712571Y-113696429D01*
X115712571Y-113458333D01*
X115760190Y-113267857D01*
X115807809Y-113172619D01*
X115855428Y-113125000D01*
X115950666Y-113077381D01*
X116712571Y-113410714D02*
X116712571Y-114077381D01*
X116712571Y-113505952D02*
X116760190Y-113458333D01*
X116855428Y-113410714D01*
X116998286Y-113410714D01*
X117093524Y-113458333D01*
X117141143Y-113553571D01*
X117141143Y-114077381D01*
X117474476Y-113410714D02*
X117855428Y-113410714D01*
X117617333Y-114077381D02*
X117617333Y-113220238D01*
X117664952Y-113125000D01*
X117760190Y-113077381D01*
X117855428Y-113077381D01*
X132304143Y-139530666D02*
X132351762Y-139578285D01*
X132399381Y-139721142D01*
X132399381Y-139816380D01*
X132351762Y-139959238D01*
X132256524Y-140054476D01*
X132161286Y-140102095D01*
X131970810Y-140149714D01*
X131827952Y-140149714D01*
X131637476Y-140102095D01*
X131542238Y-140054476D01*
X131447000Y-139959238D01*
X131399381Y-139816380D01*
X131399381Y-139721142D01*
X131447000Y-139578285D01*
X131494619Y-139530666D01*
X132399381Y-139054476D02*
X132399381Y-138864000D01*
X132351762Y-138768761D01*
X132304143Y-138721142D01*
X132161286Y-138625904D01*
X131970810Y-138578285D01*
X131589857Y-138578285D01*
X131494619Y-138625904D01*
X131447000Y-138673523D01*
X131399381Y-138768761D01*
X131399381Y-138959238D01*
X131447000Y-139054476D01*
X131494619Y-139102095D01*
X131589857Y-139149714D01*
X131827952Y-139149714D01*
X131923190Y-139102095D01*
X131970810Y-139054476D01*
X132018429Y-138959238D01*
X132018429Y-138768761D01*
X131970810Y-138673523D01*
X131923190Y-138625904D01*
X131827952Y-138578285D01*
X141199381Y-140768762D02*
X141199381Y-141340191D01*
X141199381Y-141054477D02*
X140199381Y-141054477D01*
X140342238Y-141149715D01*
X140437476Y-141244953D01*
X140485095Y-141340191D01*
X140199381Y-140149715D02*
X140199381Y-140054476D01*
X140247000Y-139959238D01*
X140294619Y-139911619D01*
X140389857Y-139864000D01*
X140580333Y-139816381D01*
X140818429Y-139816381D01*
X141008905Y-139864000D01*
X141104143Y-139911619D01*
X141151762Y-139959238D01*
X141199381Y-140054476D01*
X141199381Y-140149715D01*
X141151762Y-140244953D01*
X141104143Y-140292572D01*
X141008905Y-140340191D01*
X140818429Y-140387810D01*
X140580333Y-140387810D01*
X140389857Y-140340191D01*
X140294619Y-140292572D01*
X140247000Y-140244953D01*
X140199381Y-140149715D01*
X140199381Y-139197334D02*
X140199381Y-139102095D01*
X140247000Y-139006857D01*
X140294619Y-138959238D01*
X140389857Y-138911619D01*
X140580333Y-138864000D01*
X140818429Y-138864000D01*
X141008905Y-138911619D01*
X141104143Y-138959238D01*
X141151762Y-139006857D01*
X141199381Y-139102095D01*
X141199381Y-139197334D01*
X141151762Y-139292572D01*
X141104143Y-139340191D01*
X141008905Y-139387810D01*
X140818429Y-139435429D01*
X140580333Y-139435429D01*
X140389857Y-139387810D01*
X140294619Y-139340191D01*
X140247000Y-139292572D01*
X140199381Y-139197334D01*
X140532714Y-138006857D02*
X141199381Y-138006857D01*
X140532714Y-138435429D02*
X141056524Y-138435429D01*
X141151762Y-138387810D01*
X141199381Y-138292572D01*
X141199381Y-138149714D01*
X141151762Y-138054476D01*
X141104143Y-138006857D01*
X140532714Y-137673524D02*
X140532714Y-137292572D01*
X141199381Y-137530667D02*
X140342238Y-137530667D01*
X140247000Y-137483048D01*
X140199381Y-137387810D01*
X140199381Y-137292572D01*
X134583443Y-116733557D02*
X134631062Y-116781176D01*
X134678681Y-116924033D01*
X134678681Y-117019271D01*
X134631062Y-117162129D01*
X134535824Y-117257367D01*
X134440586Y-117304986D01*
X134250110Y-117352605D01*
X134107252Y-117352605D01*
X133916776Y-117304986D01*
X133821538Y-117257367D01*
X133726300Y-117162129D01*
X133678681Y-117019271D01*
X133678681Y-116924033D01*
X133726300Y-116781176D01*
X133773919Y-116733557D01*
X134678681Y-115781176D02*
X134678681Y-116352605D01*
X134678681Y-116066891D02*
X133678681Y-116066891D01*
X133821538Y-116162129D01*
X133916776Y-116257367D01*
X133964395Y-116352605D01*
X133678681Y-115162129D02*
X133678681Y-115066890D01*
X133726300Y-114971652D01*
X133773919Y-114924033D01*
X133869157Y-114876414D01*
X134059633Y-114828795D01*
X134297729Y-114828795D01*
X134488205Y-114876414D01*
X134583443Y-114924033D01*
X134631062Y-114971652D01*
X134678681Y-115066890D01*
X134678681Y-115162129D01*
X134631062Y-115257367D01*
X134583443Y-115304986D01*
X134488205Y-115352605D01*
X134297729Y-115400224D01*
X134059633Y-115400224D01*
X133869157Y-115352605D01*
X133773919Y-115304986D01*
X133726300Y-115257367D01*
X133678681Y-115162129D01*
X130637381Y-113049571D02*
X130637381Y-113621000D01*
X130637381Y-113335286D02*
X129637381Y-113335286D01*
X129780238Y-113430524D01*
X129875476Y-113525762D01*
X129923095Y-113621000D01*
X129637381Y-112430524D02*
X129637381Y-112335285D01*
X129685000Y-112240047D01*
X129732619Y-112192428D01*
X129827857Y-112144809D01*
X130018333Y-112097190D01*
X130256429Y-112097190D01*
X130446905Y-112144809D01*
X130542143Y-112192428D01*
X130589762Y-112240047D01*
X130637381Y-112335285D01*
X130637381Y-112430524D01*
X130589762Y-112525762D01*
X130542143Y-112573381D01*
X130446905Y-112621000D01*
X130256429Y-112668619D01*
X130018333Y-112668619D01*
X129827857Y-112621000D01*
X129732619Y-112573381D01*
X129685000Y-112525762D01*
X129637381Y-112430524D01*
X129970714Y-111240047D02*
X130637381Y-111240047D01*
X129970714Y-111668619D02*
X130494524Y-111668619D01*
X130589762Y-111621000D01*
X130637381Y-111525762D01*
X130637381Y-111382904D01*
X130589762Y-111287666D01*
X130542143Y-111240047D01*
X129970714Y-110906714D02*
X129970714Y-110525762D01*
X130637381Y-110763857D02*
X129780238Y-110763857D01*
X129685000Y-110716238D01*
X129637381Y-110621000D01*
X129637381Y-110525762D01*
X122521143Y-98158857D02*
X122568762Y-98206476D01*
X122616381Y-98349333D01*
X122616381Y-98444571D01*
X122568762Y-98587429D01*
X122473524Y-98682667D01*
X122378286Y-98730286D01*
X122187810Y-98777905D01*
X122044952Y-98777905D01*
X121854476Y-98730286D01*
X121759238Y-98682667D01*
X121664000Y-98587429D01*
X121616381Y-98444571D01*
X121616381Y-98349333D01*
X121664000Y-98206476D01*
X121711619Y-98158857D01*
X122616381Y-97206476D02*
X122616381Y-97777905D01*
X122616381Y-97492191D02*
X121616381Y-97492191D01*
X121759238Y-97587429D01*
X121854476Y-97682667D01*
X121902095Y-97777905D01*
X122616381Y-96254095D02*
X122616381Y-96825524D01*
X122616381Y-96539810D02*
X121616381Y-96539810D01*
X121759238Y-96635048D01*
X121854476Y-96730286D01*
X121902095Y-96825524D01*
X121435121Y-101578611D02*
X121435121Y-102150040D01*
X121435121Y-101864326D02*
X120435121Y-101864326D01*
X120577978Y-101959564D01*
X120673216Y-102054802D01*
X120720835Y-102150040D01*
X120435121Y-100959564D02*
X120435121Y-100864325D01*
X120482740Y-100769087D01*
X120530359Y-100721468D01*
X120625597Y-100673849D01*
X120816073Y-100626230D01*
X121054169Y-100626230D01*
X121244645Y-100673849D01*
X121339883Y-100721468D01*
X121387502Y-100769087D01*
X121435121Y-100864325D01*
X121435121Y-100959564D01*
X121387502Y-101054802D01*
X121339883Y-101102421D01*
X121244645Y-101150040D01*
X121054169Y-101197659D01*
X120816073Y-101197659D01*
X120625597Y-101150040D01*
X120530359Y-101102421D01*
X120482740Y-101054802D01*
X120435121Y-100959564D01*
X120768454Y-99769087D02*
X121435121Y-99769087D01*
X120768454Y-100197659D02*
X121292264Y-100197659D01*
X121387502Y-100150040D01*
X121435121Y-100054802D01*
X121435121Y-99911944D01*
X121387502Y-99816706D01*
X121339883Y-99769087D01*
X120768454Y-99435754D02*
X120768454Y-99054802D01*
X121435121Y-99292897D02*
X120577978Y-99292897D01*
X120482740Y-99245278D01*
X120435121Y-99150040D01*
X120435121Y-99054802D01*
X102456043Y-108149863D02*
X102408424Y-108197482D01*
X102265567Y-108245101D01*
X102170329Y-108245101D01*
X102027471Y-108197482D01*
X101932233Y-108102244D01*
X101884614Y-108007006D01*
X101836995Y-107816530D01*
X101836995Y-107673672D01*
X101884614Y-107483196D01*
X101932233Y-107387958D01*
X102027471Y-107292720D01*
X102170329Y-107245101D01*
X102265567Y-107245101D01*
X102408424Y-107292720D01*
X102456043Y-107340339D01*
X103408424Y-108245101D02*
X102836995Y-108245101D01*
X103122709Y-108245101D02*
X103122709Y-107245101D01*
X103027471Y-107387958D01*
X102932233Y-107483196D01*
X102836995Y-107530815D01*
X103789376Y-107340339D02*
X103836995Y-107292720D01*
X103932233Y-107245101D01*
X104170329Y-107245101D01*
X104265567Y-107292720D01*
X104313186Y-107340339D01*
X104360805Y-107435577D01*
X104360805Y-107530815D01*
X104313186Y-107673672D01*
X103741757Y-108245101D01*
X104360805Y-108245101D01*
X102371013Y-110815581D02*
X101799584Y-110815581D01*
X102085298Y-110815581D02*
X102085298Y-109815581D01*
X101990060Y-109958438D01*
X101894822Y-110053676D01*
X101799584Y-110101295D01*
X102990060Y-109815581D02*
X103085299Y-109815581D01*
X103180537Y-109863200D01*
X103228156Y-109910819D01*
X103275775Y-110006057D01*
X103323394Y-110196533D01*
X103323394Y-110434629D01*
X103275775Y-110625105D01*
X103228156Y-110720343D01*
X103180537Y-110767962D01*
X103085299Y-110815581D01*
X102990060Y-110815581D01*
X102894822Y-110767962D01*
X102847203Y-110720343D01*
X102799584Y-110625105D01*
X102751965Y-110434629D01*
X102751965Y-110196533D01*
X102799584Y-110006057D01*
X102847203Y-109910819D01*
X102894822Y-109863200D01*
X102990060Y-109815581D01*
X103942441Y-109815581D02*
X104037680Y-109815581D01*
X104132918Y-109863200D01*
X104180537Y-109910819D01*
X104228156Y-110006057D01*
X104275775Y-110196533D01*
X104275775Y-110434629D01*
X104228156Y-110625105D01*
X104180537Y-110720343D01*
X104132918Y-110767962D01*
X104037680Y-110815581D01*
X103942441Y-110815581D01*
X103847203Y-110767962D01*
X103799584Y-110720343D01*
X103751965Y-110625105D01*
X103704346Y-110434629D01*
X103704346Y-110196533D01*
X103751965Y-110006057D01*
X103799584Y-109910819D01*
X103847203Y-109863200D01*
X103942441Y-109815581D01*
X104704346Y-110148914D02*
X104704346Y-110815581D01*
X104704346Y-110244152D02*
X104751965Y-110196533D01*
X104847203Y-110148914D01*
X104990061Y-110148914D01*
X105085299Y-110196533D01*
X105132918Y-110291771D01*
X105132918Y-110815581D01*
X109846143Y-97329857D02*
X109893762Y-97377476D01*
X109941381Y-97520333D01*
X109941381Y-97615571D01*
X109893762Y-97758429D01*
X109798524Y-97853667D01*
X109703286Y-97901286D01*
X109512810Y-97948905D01*
X109369952Y-97948905D01*
X109179476Y-97901286D01*
X109084238Y-97853667D01*
X108989000Y-97758429D01*
X108941381Y-97615571D01*
X108941381Y-97520333D01*
X108989000Y-97377476D01*
X109036619Y-97329857D01*
X109941381Y-96377476D02*
X109941381Y-96948905D01*
X109941381Y-96663191D02*
X108941381Y-96663191D01*
X109084238Y-96758429D01*
X109179476Y-96853667D01*
X109227095Y-96948905D01*
X108941381Y-96044143D02*
X108941381Y-95425095D01*
X109322333Y-95758429D01*
X109322333Y-95615571D01*
X109369952Y-95520333D01*
X109417571Y-95472714D01*
X109512810Y-95425095D01*
X109750905Y-95425095D01*
X109846143Y-95472714D01*
X109893762Y-95520333D01*
X109941381Y-95615571D01*
X109941381Y-95901286D01*
X109893762Y-95996524D01*
X109846143Y-96044143D01*
X112504681Y-97829347D02*
X112504681Y-98400776D01*
X112504681Y-98115062D02*
X111504681Y-98115062D01*
X111647538Y-98210300D01*
X111742776Y-98305538D01*
X111790395Y-98400776D01*
X111504681Y-97210300D02*
X111504681Y-97115061D01*
X111552300Y-97019823D01*
X111599919Y-96972204D01*
X111695157Y-96924585D01*
X111885633Y-96876966D01*
X112123729Y-96876966D01*
X112314205Y-96924585D01*
X112409443Y-96972204D01*
X112457062Y-97019823D01*
X112504681Y-97115061D01*
X112504681Y-97210300D01*
X112457062Y-97305538D01*
X112409443Y-97353157D01*
X112314205Y-97400776D01*
X112123729Y-97448395D01*
X111885633Y-97448395D01*
X111695157Y-97400776D01*
X111599919Y-97353157D01*
X111552300Y-97305538D01*
X111504681Y-97210300D01*
X111504681Y-96257919D02*
X111504681Y-96162680D01*
X111552300Y-96067442D01*
X111599919Y-96019823D01*
X111695157Y-95972204D01*
X111885633Y-95924585D01*
X112123729Y-95924585D01*
X112314205Y-95972204D01*
X112409443Y-96019823D01*
X112457062Y-96067442D01*
X112504681Y-96162680D01*
X112504681Y-96257919D01*
X112457062Y-96353157D01*
X112409443Y-96400776D01*
X112314205Y-96448395D01*
X112123729Y-96496014D01*
X111885633Y-96496014D01*
X111695157Y-96448395D01*
X111599919Y-96400776D01*
X111552300Y-96353157D01*
X111504681Y-96257919D01*
X111838014Y-95496014D02*
X112504681Y-95496014D01*
X111933252Y-95496014D02*
X111885633Y-95448395D01*
X111838014Y-95353157D01*
X111838014Y-95210299D01*
X111885633Y-95115061D01*
X111980871Y-95067442D01*
X112504681Y-95067442D01*
X89374143Y-96723757D02*
X89421762Y-96771376D01*
X89469381Y-96914233D01*
X89469381Y-97009471D01*
X89421762Y-97152329D01*
X89326524Y-97247567D01*
X89231286Y-97295186D01*
X89040810Y-97342805D01*
X88897952Y-97342805D01*
X88707476Y-97295186D01*
X88612238Y-97247567D01*
X88517000Y-97152329D01*
X88469381Y-97009471D01*
X88469381Y-96914233D01*
X88517000Y-96771376D01*
X88564619Y-96723757D01*
X89469381Y-95771376D02*
X89469381Y-96342805D01*
X89469381Y-96057091D02*
X88469381Y-96057091D01*
X88612238Y-96152329D01*
X88707476Y-96247567D01*
X88755095Y-96342805D01*
X88802714Y-94914233D02*
X89469381Y-94914233D01*
X88421762Y-95152329D02*
X89136048Y-95390424D01*
X89136048Y-94771376D01*
X85307514Y-92511604D02*
X85974181Y-92511604D01*
X84926562Y-92749700D02*
X85640848Y-92987795D01*
X85640848Y-92368747D01*
X85878943Y-91987795D02*
X85926562Y-91940176D01*
X85974181Y-91987795D01*
X85926562Y-92035414D01*
X85878943Y-91987795D01*
X85974181Y-91987795D01*
X84974181Y-91606843D02*
X84974181Y-90940176D01*
X85974181Y-91368748D01*
X85307514Y-90130652D02*
X85974181Y-90130652D01*
X85307514Y-90559224D02*
X85831324Y-90559224D01*
X85926562Y-90511605D01*
X85974181Y-90416367D01*
X85974181Y-90273509D01*
X85926562Y-90178271D01*
X85878943Y-90130652D01*
X85307514Y-89797319D02*
X85307514Y-89416367D01*
X85974181Y-89654462D02*
X85117038Y-89654462D01*
X85021800Y-89606843D01*
X84974181Y-89511605D01*
X84974181Y-89416367D01*
X142557143Y-113378857D02*
X142604762Y-113426476D01*
X142652381Y-113569333D01*
X142652381Y-113664571D01*
X142604762Y-113807429D01*
X142509524Y-113902667D01*
X142414286Y-113950286D01*
X142223810Y-113997905D01*
X142080952Y-113997905D01*
X141890476Y-113950286D01*
X141795238Y-113902667D01*
X141700000Y-113807429D01*
X141652381Y-113664571D01*
X141652381Y-113569333D01*
X141700000Y-113426476D01*
X141747619Y-113378857D01*
X142652381Y-112426476D02*
X142652381Y-112997905D01*
X142652381Y-112712191D02*
X141652381Y-112712191D01*
X141795238Y-112807429D01*
X141890476Y-112902667D01*
X141938095Y-112997905D01*
X141652381Y-111521714D02*
X141652381Y-111997905D01*
X142128571Y-112045524D01*
X142080952Y-111997905D01*
X142033333Y-111902667D01*
X142033333Y-111664571D01*
X142080952Y-111569333D01*
X142128571Y-111521714D01*
X142223810Y-111474095D01*
X142461905Y-111474095D01*
X142557143Y-111521714D01*
X142604762Y-111569333D01*
X142652381Y-111664571D01*
X142652381Y-111902667D01*
X142604762Y-111997905D01*
X142557143Y-112045524D01*
X142514581Y-117863762D02*
X142514581Y-118435191D01*
X142514581Y-118149477D02*
X141514581Y-118149477D01*
X141657438Y-118244715D01*
X141752676Y-118339953D01*
X141800295Y-118435191D01*
X141514581Y-117244715D02*
X141514581Y-117149476D01*
X141562200Y-117054238D01*
X141609819Y-117006619D01*
X141705057Y-116959000D01*
X141895533Y-116911381D01*
X142133629Y-116911381D01*
X142324105Y-116959000D01*
X142419343Y-117006619D01*
X142466962Y-117054238D01*
X142514581Y-117149476D01*
X142514581Y-117244715D01*
X142466962Y-117339953D01*
X142419343Y-117387572D01*
X142324105Y-117435191D01*
X142133629Y-117482810D01*
X141895533Y-117482810D01*
X141705057Y-117435191D01*
X141609819Y-117387572D01*
X141562200Y-117339953D01*
X141514581Y-117244715D01*
X141514581Y-116292334D02*
X141514581Y-116197095D01*
X141562200Y-116101857D01*
X141609819Y-116054238D01*
X141705057Y-116006619D01*
X141895533Y-115959000D01*
X142133629Y-115959000D01*
X142324105Y-116006619D01*
X142419343Y-116054238D01*
X142466962Y-116101857D01*
X142514581Y-116197095D01*
X142514581Y-116292334D01*
X142466962Y-116387572D01*
X142419343Y-116435191D01*
X142324105Y-116482810D01*
X142133629Y-116530429D01*
X141895533Y-116530429D01*
X141705057Y-116482810D01*
X141609819Y-116435191D01*
X141562200Y-116387572D01*
X141514581Y-116292334D01*
X141847914Y-115530429D02*
X142514581Y-115530429D01*
X141943152Y-115530429D02*
X141895533Y-115482810D01*
X141847914Y-115387572D01*
X141847914Y-115244714D01*
X141895533Y-115149476D01*
X141990771Y-115101857D01*
X142514581Y-115101857D01*
X141847914Y-114768524D02*
X141847914Y-114387572D01*
X142514581Y-114625667D02*
X141657438Y-114625667D01*
X141562200Y-114578048D01*
X141514581Y-114482810D01*
X141514581Y-114387572D01*
X148861243Y-69663583D02*
X148813624Y-69711202D01*
X148670767Y-69758821D01*
X148575529Y-69758821D01*
X148432671Y-69711202D01*
X148337433Y-69615964D01*
X148289814Y-69520726D01*
X148242195Y-69330250D01*
X148242195Y-69187392D01*
X148289814Y-68996916D01*
X148337433Y-68901678D01*
X148432671Y-68806440D01*
X148575529Y-68758821D01*
X148670767Y-68758821D01*
X148813624Y-68806440D01*
X148861243Y-68854059D01*
X149813624Y-69758821D02*
X149242195Y-69758821D01*
X149527909Y-69758821D02*
X149527909Y-68758821D01*
X149432671Y-68901678D01*
X149337433Y-68996916D01*
X149242195Y-69044535D01*
X150670767Y-68758821D02*
X150480290Y-68758821D01*
X150385052Y-68806440D01*
X150337433Y-68854059D01*
X150242195Y-68996916D01*
X150194576Y-69187392D01*
X150194576Y-69568345D01*
X150242195Y-69663583D01*
X150289814Y-69711202D01*
X150385052Y-69758821D01*
X150575529Y-69758821D01*
X150670767Y-69711202D01*
X150718386Y-69663583D01*
X150766005Y-69568345D01*
X150766005Y-69330250D01*
X150718386Y-69235011D01*
X150670767Y-69187392D01*
X150575529Y-69139773D01*
X150385052Y-69139773D01*
X150289814Y-69187392D01*
X150242195Y-69235011D01*
X150194576Y-69330250D01*
X148575153Y-71432681D02*
X148003724Y-71432681D01*
X148289438Y-71432681D02*
X148289438Y-70432681D01*
X148194200Y-70575538D01*
X148098962Y-70670776D01*
X148003724Y-70718395D01*
X149194200Y-70432681D02*
X149289439Y-70432681D01*
X149384677Y-70480300D01*
X149432296Y-70527919D01*
X149479915Y-70623157D01*
X149527534Y-70813633D01*
X149527534Y-71051729D01*
X149479915Y-71242205D01*
X149432296Y-71337443D01*
X149384677Y-71385062D01*
X149289439Y-71432681D01*
X149194200Y-71432681D01*
X149098962Y-71385062D01*
X149051343Y-71337443D01*
X149003724Y-71242205D01*
X148956105Y-71051729D01*
X148956105Y-70813633D01*
X149003724Y-70623157D01*
X149051343Y-70527919D01*
X149098962Y-70480300D01*
X149194200Y-70432681D01*
X150146581Y-70432681D02*
X150241820Y-70432681D01*
X150337058Y-70480300D01*
X150384677Y-70527919D01*
X150432296Y-70623157D01*
X150479915Y-70813633D01*
X150479915Y-71051729D01*
X150432296Y-71242205D01*
X150384677Y-71337443D01*
X150337058Y-71385062D01*
X150241820Y-71432681D01*
X150146581Y-71432681D01*
X150051343Y-71385062D01*
X150003724Y-71337443D01*
X149956105Y-71242205D01*
X149908486Y-71051729D01*
X149908486Y-70813633D01*
X149956105Y-70623157D01*
X150003724Y-70527919D01*
X150051343Y-70480300D01*
X150146581Y-70432681D01*
X150908486Y-70766014D02*
X150908486Y-71432681D01*
X150908486Y-70861252D02*
X150956105Y-70813633D01*
X151051343Y-70766014D01*
X151194201Y-70766014D01*
X151289439Y-70813633D01*
X151337058Y-70908871D01*
X151337058Y-71432681D01*
X148404543Y-66346343D02*
X148356924Y-66393962D01*
X148214067Y-66441581D01*
X148118829Y-66441581D01*
X147975971Y-66393962D01*
X147880733Y-66298724D01*
X147833114Y-66203486D01*
X147785495Y-66013010D01*
X147785495Y-65870152D01*
X147833114Y-65679676D01*
X147880733Y-65584438D01*
X147975971Y-65489200D01*
X148118829Y-65441581D01*
X148214067Y-65441581D01*
X148356924Y-65489200D01*
X148404543Y-65536819D01*
X149356924Y-66441581D02*
X148785495Y-66441581D01*
X149071209Y-66441581D02*
X149071209Y-65441581D01*
X148975971Y-65584438D01*
X148880733Y-65679676D01*
X148785495Y-65727295D01*
X149690257Y-65441581D02*
X150356924Y-65441581D01*
X149928352Y-66441581D01*
X148375962Y-64424821D02*
X147804533Y-64424821D01*
X148090247Y-64424821D02*
X148090247Y-63424821D01*
X147995009Y-63567678D01*
X147899771Y-63662916D01*
X147804533Y-63710535D01*
X148804533Y-63758154D02*
X148804533Y-64424821D01*
X148804533Y-63853392D02*
X148852152Y-63805773D01*
X148947390Y-63758154D01*
X149090248Y-63758154D01*
X149185486Y-63805773D01*
X149233105Y-63901011D01*
X149233105Y-64424821D01*
X150042629Y-63901011D02*
X149709295Y-63901011D01*
X149709295Y-64424821D02*
X149709295Y-63424821D01*
X150185486Y-63424821D01*
X156049643Y-81192643D02*
X156002024Y-81240262D01*
X155859167Y-81287881D01*
X155763929Y-81287881D01*
X155621071Y-81240262D01*
X155525833Y-81145024D01*
X155478214Y-81049786D01*
X155430595Y-80859310D01*
X155430595Y-80716452D01*
X155478214Y-80525976D01*
X155525833Y-80430738D01*
X155621071Y-80335500D01*
X155763929Y-80287881D01*
X155859167Y-80287881D01*
X156002024Y-80335500D01*
X156049643Y-80383119D01*
X157002024Y-81287881D02*
X156430595Y-81287881D01*
X156716309Y-81287881D02*
X156716309Y-80287881D01*
X156621071Y-80430738D01*
X156525833Y-80525976D01*
X156430595Y-80573595D01*
X157573452Y-80716452D02*
X157478214Y-80668833D01*
X157430595Y-80621214D01*
X157382976Y-80525976D01*
X157382976Y-80478357D01*
X157430595Y-80383119D01*
X157478214Y-80335500D01*
X157573452Y-80287881D01*
X157763929Y-80287881D01*
X157859167Y-80335500D01*
X157906786Y-80383119D01*
X157954405Y-80478357D01*
X157954405Y-80525976D01*
X157906786Y-80621214D01*
X157859167Y-80668833D01*
X157763929Y-80716452D01*
X157573452Y-80716452D01*
X157478214Y-80764071D01*
X157430595Y-80811690D01*
X157382976Y-80906929D01*
X157382976Y-81097405D01*
X157430595Y-81192643D01*
X157478214Y-81240262D01*
X157573452Y-81287881D01*
X157763929Y-81287881D01*
X157859167Y-81240262D01*
X157906786Y-81192643D01*
X157954405Y-81097405D01*
X157954405Y-80906929D01*
X157906786Y-80811690D01*
X157859167Y-80764071D01*
X157763929Y-80716452D01*
X151283143Y-87886919D02*
X151330762Y-87839300D01*
X151426000Y-87791681D01*
X151664096Y-87791681D01*
X151759334Y-87839300D01*
X151806953Y-87886919D01*
X151854572Y-87982157D01*
X151854572Y-88077395D01*
X151806953Y-88220252D01*
X151235524Y-88791681D01*
X151854572Y-88791681D01*
X152235524Y-87886919D02*
X152283143Y-87839300D01*
X152378381Y-87791681D01*
X152616477Y-87791681D01*
X152711715Y-87839300D01*
X152759334Y-87886919D01*
X152806953Y-87982157D01*
X152806953Y-88077395D01*
X152759334Y-88220252D01*
X152187905Y-88791681D01*
X152806953Y-88791681D01*
X153235524Y-88125014D02*
X153235524Y-89125014D01*
X153235524Y-88172633D02*
X153330762Y-88125014D01*
X153521239Y-88125014D01*
X153616477Y-88172633D01*
X153664096Y-88220252D01*
X153711715Y-88315490D01*
X153711715Y-88601205D01*
X153664096Y-88696443D01*
X153616477Y-88744062D01*
X153521239Y-88791681D01*
X153330762Y-88791681D01*
X153235524Y-88744062D01*
X154473620Y-88267871D02*
X154140286Y-88267871D01*
X154140286Y-88791681D02*
X154140286Y-87791681D01*
X154616477Y-87791681D01*
X156011843Y-86742543D02*
X155964224Y-86790162D01*
X155821367Y-86837781D01*
X155726129Y-86837781D01*
X155583271Y-86790162D01*
X155488033Y-86694924D01*
X155440414Y-86599686D01*
X155392795Y-86409210D01*
X155392795Y-86266352D01*
X155440414Y-86075876D01*
X155488033Y-85980638D01*
X155583271Y-85885400D01*
X155726129Y-85837781D01*
X155821367Y-85837781D01*
X155964224Y-85885400D01*
X156011843Y-85933019D01*
X156964224Y-86837781D02*
X156392795Y-86837781D01*
X156678509Y-86837781D02*
X156678509Y-85837781D01*
X156583271Y-85980638D01*
X156488033Y-86075876D01*
X156392795Y-86123495D01*
X157440414Y-86837781D02*
X157630890Y-86837781D01*
X157726129Y-86790162D01*
X157773748Y-86742543D01*
X157868986Y-86599686D01*
X157916605Y-86409210D01*
X157916605Y-86028257D01*
X157868986Y-85933019D01*
X157821367Y-85885400D01*
X157726129Y-85837781D01*
X157535652Y-85837781D01*
X157440414Y-85885400D01*
X157392795Y-85933019D01*
X157345176Y-86028257D01*
X157345176Y-86266352D01*
X157392795Y-86361590D01*
X157440414Y-86409210D01*
X157535652Y-86456829D01*
X157726129Y-86456829D01*
X157821367Y-86409210D01*
X157868986Y-86361590D01*
X157916605Y-86266352D01*
X151336143Y-77679919D02*
X151383762Y-77632300D01*
X151479000Y-77584681D01*
X151717096Y-77584681D01*
X151812334Y-77632300D01*
X151859953Y-77679919D01*
X151907572Y-77775157D01*
X151907572Y-77870395D01*
X151859953Y-78013252D01*
X151288524Y-78584681D01*
X151907572Y-78584681D01*
X152288524Y-77679919D02*
X152336143Y-77632300D01*
X152431381Y-77584681D01*
X152669477Y-77584681D01*
X152764715Y-77632300D01*
X152812334Y-77679919D01*
X152859953Y-77775157D01*
X152859953Y-77870395D01*
X152812334Y-78013252D01*
X152240905Y-78584681D01*
X152859953Y-78584681D01*
X153288524Y-77918014D02*
X153288524Y-78918014D01*
X153288524Y-77965633D02*
X153383762Y-77918014D01*
X153574239Y-77918014D01*
X153669477Y-77965633D01*
X153717096Y-78013252D01*
X153764715Y-78108490D01*
X153764715Y-78394205D01*
X153717096Y-78489443D01*
X153669477Y-78537062D01*
X153574239Y-78584681D01*
X153383762Y-78584681D01*
X153288524Y-78537062D01*
X154526620Y-78060871D02*
X154193286Y-78060871D01*
X154193286Y-78584681D02*
X154193286Y-77584681D01*
X154669477Y-77584681D01*
X156226143Y-74190457D02*
X156273762Y-74238076D01*
X156321381Y-74380933D01*
X156321381Y-74476171D01*
X156273762Y-74619029D01*
X156178524Y-74714267D01*
X156083286Y-74761886D01*
X155892810Y-74809505D01*
X155749952Y-74809505D01*
X155559476Y-74761886D01*
X155464238Y-74714267D01*
X155369000Y-74619029D01*
X155321381Y-74476171D01*
X155321381Y-74380933D01*
X155369000Y-74238076D01*
X155416619Y-74190457D01*
X155416619Y-73809505D02*
X155369000Y-73761886D01*
X155321381Y-73666648D01*
X155321381Y-73428552D01*
X155369000Y-73333314D01*
X155416619Y-73285695D01*
X155511857Y-73238076D01*
X155607095Y-73238076D01*
X155749952Y-73285695D01*
X156321381Y-73857124D01*
X156321381Y-73238076D01*
X155321381Y-72619029D02*
X155321381Y-72523790D01*
X155369000Y-72428552D01*
X155416619Y-72380933D01*
X155511857Y-72333314D01*
X155702333Y-72285695D01*
X155940429Y-72285695D01*
X156130905Y-72333314D01*
X156226143Y-72380933D01*
X156273762Y-72428552D01*
X156321381Y-72523790D01*
X156321381Y-72619029D01*
X156273762Y-72714267D01*
X156226143Y-72761886D01*
X156130905Y-72809505D01*
X155940429Y-72857124D01*
X155702333Y-72857124D01*
X155511857Y-72809505D01*
X155416619Y-72761886D01*
X155369000Y-72714267D01*
X155321381Y-72619029D01*
X161321381Y-74666647D02*
X161321381Y-75238076D01*
X161321381Y-74952362D02*
X160321381Y-74952362D01*
X160464238Y-75047600D01*
X160559476Y-75142838D01*
X160607095Y-75238076D01*
X160321381Y-74047600D02*
X160321381Y-73952361D01*
X160369000Y-73857123D01*
X160416619Y-73809504D01*
X160511857Y-73761885D01*
X160702333Y-73714266D01*
X160940429Y-73714266D01*
X161130905Y-73761885D01*
X161226143Y-73809504D01*
X161273762Y-73857123D01*
X161321381Y-73952361D01*
X161321381Y-74047600D01*
X161273762Y-74142838D01*
X161226143Y-74190457D01*
X161130905Y-74238076D01*
X160940429Y-74285695D01*
X160702333Y-74285695D01*
X160511857Y-74238076D01*
X160416619Y-74190457D01*
X160369000Y-74142838D01*
X160321381Y-74047600D01*
X160321381Y-73095219D02*
X160321381Y-72999980D01*
X160369000Y-72904742D01*
X160416619Y-72857123D01*
X160511857Y-72809504D01*
X160702333Y-72761885D01*
X160940429Y-72761885D01*
X161130905Y-72809504D01*
X161226143Y-72857123D01*
X161273762Y-72904742D01*
X161321381Y-72999980D01*
X161321381Y-73095219D01*
X161273762Y-73190457D01*
X161226143Y-73238076D01*
X161130905Y-73285695D01*
X160940429Y-73333314D01*
X160702333Y-73333314D01*
X160511857Y-73285695D01*
X160416619Y-73238076D01*
X160369000Y-73190457D01*
X160321381Y-73095219D01*
X160654714Y-72333314D02*
X161321381Y-72333314D01*
X160749952Y-72333314D02*
X160702333Y-72285695D01*
X160654714Y-72190457D01*
X160654714Y-72047599D01*
X160702333Y-71952361D01*
X160797571Y-71904742D01*
X161321381Y-71904742D01*
X155842943Y-128125157D02*
X155890562Y-128172776D01*
X155938181Y-128315633D01*
X155938181Y-128410871D01*
X155890562Y-128553729D01*
X155795324Y-128648967D01*
X155700086Y-128696586D01*
X155509610Y-128744205D01*
X155366752Y-128744205D01*
X155176276Y-128696586D01*
X155081038Y-128648967D01*
X154985800Y-128553729D01*
X154938181Y-128410871D01*
X154938181Y-128315633D01*
X154985800Y-128172776D01*
X155033419Y-128125157D01*
X155033419Y-127744205D02*
X154985800Y-127696586D01*
X154938181Y-127601348D01*
X154938181Y-127363252D01*
X154985800Y-127268014D01*
X155033419Y-127220395D01*
X155128657Y-127172776D01*
X155223895Y-127172776D01*
X155366752Y-127220395D01*
X155938181Y-127791824D01*
X155938181Y-127172776D01*
X155938181Y-126220395D02*
X155938181Y-126791824D01*
X155938181Y-126506110D02*
X154938181Y-126506110D01*
X155081038Y-126601348D01*
X155176276Y-126696586D01*
X155223895Y-126791824D01*
X152985514Y-135198961D02*
X153652181Y-135198961D01*
X152604562Y-135437057D02*
X153318848Y-135675152D01*
X153318848Y-135056104D01*
X153556943Y-134675152D02*
X153604562Y-134627533D01*
X153652181Y-134675152D01*
X153604562Y-134722771D01*
X153556943Y-134675152D01*
X153652181Y-134675152D01*
X152652181Y-134294200D02*
X152652181Y-133627533D01*
X153652181Y-134056105D01*
X152985514Y-132818009D02*
X153652181Y-132818009D01*
X152985514Y-133246581D02*
X153509324Y-133246581D01*
X153604562Y-133198962D01*
X153652181Y-133103724D01*
X153652181Y-132960866D01*
X153604562Y-132865628D01*
X153556943Y-132818009D01*
X153128371Y-132008485D02*
X153128371Y-132341819D01*
X153652181Y-132341819D02*
X152652181Y-132341819D01*
X152652181Y-131865628D01*
X123963143Y-61165657D02*
X124010762Y-61213276D01*
X124058381Y-61356133D01*
X124058381Y-61451371D01*
X124010762Y-61594229D01*
X123915524Y-61689467D01*
X123820286Y-61737086D01*
X123629810Y-61784705D01*
X123486952Y-61784705D01*
X123296476Y-61737086D01*
X123201238Y-61689467D01*
X123106000Y-61594229D01*
X123058381Y-61451371D01*
X123058381Y-61356133D01*
X123106000Y-61213276D01*
X123153619Y-61165657D01*
X123153619Y-60784705D02*
X123106000Y-60737086D01*
X123058381Y-60641848D01*
X123058381Y-60403752D01*
X123106000Y-60308514D01*
X123153619Y-60260895D01*
X123248857Y-60213276D01*
X123344095Y-60213276D01*
X123486952Y-60260895D01*
X124058381Y-60832324D01*
X124058381Y-60213276D01*
X123153619Y-59832324D02*
X123106000Y-59784705D01*
X123058381Y-59689467D01*
X123058381Y-59451371D01*
X123106000Y-59356133D01*
X123153619Y-59308514D01*
X123248857Y-59260895D01*
X123344095Y-59260895D01*
X123486952Y-59308514D01*
X124058381Y-59879943D01*
X124058381Y-59260895D01*
X130991714Y-61927561D02*
X131658381Y-61927561D01*
X130610762Y-62165657D02*
X131325048Y-62403752D01*
X131325048Y-61784704D01*
X131563143Y-61403752D02*
X131610762Y-61356133D01*
X131658381Y-61403752D01*
X131610762Y-61451371D01*
X131563143Y-61403752D01*
X131658381Y-61403752D01*
X130658381Y-61022800D02*
X130658381Y-60356133D01*
X131658381Y-60784705D01*
X130991714Y-59546609D02*
X131658381Y-59546609D01*
X130991714Y-59975181D02*
X131515524Y-59975181D01*
X131610762Y-59927562D01*
X131658381Y-59832324D01*
X131658381Y-59689466D01*
X131610762Y-59594228D01*
X131563143Y-59546609D01*
X131134571Y-58737085D02*
X131134571Y-59070419D01*
X131658381Y-59070419D02*
X130658381Y-59070419D01*
X130658381Y-58594228D01*
X103020905Y-122499381D02*
X103020905Y-121499381D01*
X103259000Y-121499381D01*
X103401858Y-121547000D01*
X103497096Y-121642238D01*
X103544715Y-121737476D01*
X103592334Y-121927952D01*
X103592334Y-122070810D01*
X103544715Y-122261286D01*
X103497096Y-122356524D01*
X103401858Y-122451762D01*
X103259000Y-122499381D01*
X103020905Y-122499381D01*
X103973286Y-121594619D02*
X104020905Y-121547000D01*
X104116143Y-121499381D01*
X104354239Y-121499381D01*
X104449477Y-121547000D01*
X104497096Y-121594619D01*
X104544715Y-121689857D01*
X104544715Y-121785095D01*
X104497096Y-121927952D01*
X103925667Y-122499381D01*
X104544715Y-122499381D01*
X95394686Y-126903171D02*
X95061352Y-126903171D01*
X95061352Y-127426981D02*
X95061352Y-126426981D01*
X95537543Y-126426981D01*
X96489924Y-127426981D02*
X96156590Y-126950790D01*
X95918495Y-127426981D02*
X95918495Y-126426981D01*
X96299448Y-126426981D01*
X96394686Y-126474600D01*
X96442305Y-126522219D01*
X96489924Y-126617457D01*
X96489924Y-126760314D01*
X96442305Y-126855552D01*
X96394686Y-126903171D01*
X96299448Y-126950790D01*
X95918495Y-126950790D01*
X97442305Y-127426981D02*
X96870876Y-127426981D01*
X97156590Y-127426981D02*
X97156590Y-126426981D01*
X97061352Y-126569838D01*
X96966114Y-126665076D01*
X96870876Y-126712695D01*
X98061352Y-126426981D02*
X98156591Y-126426981D01*
X98251829Y-126474600D01*
X98299448Y-126522219D01*
X98347067Y-126617457D01*
X98394686Y-126807933D01*
X98394686Y-127046029D01*
X98347067Y-127236505D01*
X98299448Y-127331743D01*
X98251829Y-127379362D01*
X98156591Y-127426981D01*
X98061352Y-127426981D01*
X97966114Y-127379362D01*
X97918495Y-127331743D01*
X97870876Y-127236505D01*
X97823257Y-127046029D01*
X97823257Y-126807933D01*
X97870876Y-126617457D01*
X97918495Y-126522219D01*
X97966114Y-126474600D01*
X98061352Y-126426981D01*
X98728019Y-126426981D02*
X99394686Y-126426981D01*
X98966114Y-127426981D01*
X100726905Y-123737667D02*
X101203096Y-123737667D01*
X100631667Y-124023381D02*
X100965000Y-123023381D01*
X101298334Y-124023381D01*
X102690905Y-100820381D02*
X102690905Y-99820381D01*
X102929000Y-99820381D01*
X103071858Y-99868000D01*
X103167096Y-99963238D01*
X103214715Y-100058476D01*
X103262334Y-100248952D01*
X103262334Y-100391810D01*
X103214715Y-100582286D01*
X103167096Y-100677524D01*
X103071858Y-100772762D01*
X102929000Y-100820381D01*
X102690905Y-100820381D01*
X103595667Y-99820381D02*
X104214715Y-99820381D01*
X103881381Y-100201333D01*
X104024239Y-100201333D01*
X104119477Y-100248952D01*
X104167096Y-100296571D01*
X104214715Y-100391810D01*
X104214715Y-100629905D01*
X104167096Y-100725143D01*
X104119477Y-100772762D01*
X104024239Y-100820381D01*
X103738524Y-100820381D01*
X103643286Y-100772762D01*
X103595667Y-100725143D01*
X99636686Y-105653431D02*
X99303352Y-105653431D01*
X99303352Y-106177241D02*
X99303352Y-105177241D01*
X99779543Y-105177241D01*
X100731924Y-106177241D02*
X100398590Y-105701050D01*
X100160495Y-106177241D02*
X100160495Y-105177241D01*
X100541448Y-105177241D01*
X100636686Y-105224860D01*
X100684305Y-105272479D01*
X100731924Y-105367717D01*
X100731924Y-105510574D01*
X100684305Y-105605812D01*
X100636686Y-105653431D01*
X100541448Y-105701050D01*
X100160495Y-105701050D01*
X101684305Y-106177241D02*
X101112876Y-106177241D01*
X101398590Y-106177241D02*
X101398590Y-105177241D01*
X101303352Y-105320098D01*
X101208114Y-105415336D01*
X101112876Y-105462955D01*
X102303352Y-105177241D02*
X102398591Y-105177241D01*
X102493829Y-105224860D01*
X102541448Y-105272479D01*
X102589067Y-105367717D01*
X102636686Y-105558193D01*
X102636686Y-105796289D01*
X102589067Y-105986765D01*
X102541448Y-106082003D01*
X102493829Y-106129622D01*
X102398591Y-106177241D01*
X102303352Y-106177241D01*
X102208114Y-106129622D01*
X102160495Y-106082003D01*
X102112876Y-105986765D01*
X102065257Y-105796289D01*
X102065257Y-105558193D01*
X102112876Y-105367717D01*
X102160495Y-105272479D01*
X102208114Y-105224860D01*
X102303352Y-105177241D01*
X102970019Y-105177241D02*
X103636686Y-105177241D01*
X103208114Y-106177241D01*
X100396905Y-102058667D02*
X100873096Y-102058667D01*
X100301667Y-102344381D02*
X100635000Y-101344381D01*
X100968334Y-102344381D01*
X156611981Y-149683495D02*
X155611981Y-149683495D01*
X155611981Y-149445400D01*
X155659600Y-149302542D01*
X155754838Y-149207304D01*
X155850076Y-149159685D01*
X156040552Y-149112066D01*
X156183410Y-149112066D01*
X156373886Y-149159685D01*
X156469124Y-149207304D01*
X156564362Y-149302542D01*
X156611981Y-149445400D01*
X156611981Y-149683495D01*
X155945314Y-148254923D02*
X156611981Y-148254923D01*
X155564362Y-148493019D02*
X156278648Y-148731114D01*
X156278648Y-148112066D01*
X155446881Y-145078142D02*
X155446881Y-145554333D01*
X155923071Y-145601952D01*
X155875452Y-145554333D01*
X155827833Y-145459095D01*
X155827833Y-145220999D01*
X155875452Y-145125761D01*
X155923071Y-145078142D01*
X156018310Y-145030523D01*
X156256405Y-145030523D01*
X156351643Y-145078142D01*
X156399262Y-145125761D01*
X156446881Y-145220999D01*
X156446881Y-145459095D01*
X156399262Y-145554333D01*
X156351643Y-145601952D01*
X156351643Y-144601952D02*
X156399262Y-144554333D01*
X156446881Y-144601952D01*
X156399262Y-144649571D01*
X156351643Y-144601952D01*
X156446881Y-144601952D01*
X155446881Y-143697190D02*
X155446881Y-143887667D01*
X155494500Y-143982905D01*
X155542119Y-144030524D01*
X155684976Y-144125762D01*
X155875452Y-144173381D01*
X156256405Y-144173381D01*
X156351643Y-144125762D01*
X156399262Y-144078143D01*
X156446881Y-143982905D01*
X156446881Y-143792428D01*
X156399262Y-143697190D01*
X156351643Y-143649571D01*
X156256405Y-143601952D01*
X156018310Y-143601952D01*
X155923071Y-143649571D01*
X155875452Y-143697190D01*
X155827833Y-143792428D01*
X155827833Y-143982905D01*
X155875452Y-144078143D01*
X155923071Y-144125762D01*
X156018310Y-144173381D01*
X155780214Y-143268619D02*
X156446881Y-143030524D01*
X155780214Y-142792428D01*
X156326267Y-147926195D02*
X156326267Y-147450004D01*
X156611981Y-148021433D02*
X155611981Y-147688100D01*
X156611981Y-147354766D01*
X166597105Y-92692481D02*
X166597105Y-91692481D01*
X166835200Y-91692481D01*
X166978058Y-91740100D01*
X167073296Y-91835338D01*
X167120915Y-91930576D01*
X167168534Y-92121052D01*
X167168534Y-92263910D01*
X167120915Y-92454386D01*
X167073296Y-92549624D01*
X166978058Y-92644862D01*
X166835200Y-92692481D01*
X166597105Y-92692481D01*
X168073296Y-91692481D02*
X167597105Y-91692481D01*
X167549486Y-92168671D01*
X167597105Y-92121052D01*
X167692343Y-92073433D01*
X167930439Y-92073433D01*
X168025677Y-92121052D01*
X168073296Y-92168671D01*
X168120915Y-92263910D01*
X168120915Y-92502005D01*
X168073296Y-92597243D01*
X168025677Y-92644862D01*
X167930439Y-92692481D01*
X167692343Y-92692481D01*
X167597105Y-92644862D01*
X167549486Y-92597243D01*
X171531043Y-99359981D02*
X171054852Y-99359981D01*
X171054852Y-98359981D01*
X171864376Y-98836171D02*
X172197710Y-98836171D01*
X172340567Y-99359981D02*
X171864376Y-99359981D01*
X171864376Y-98359981D01*
X172340567Y-98359981D01*
X172769138Y-99359981D02*
X172769138Y-98359981D01*
X173007233Y-98359981D01*
X173150091Y-98407600D01*
X173245329Y-98502838D01*
X173292948Y-98598076D01*
X173340567Y-98788552D01*
X173340567Y-98931410D01*
X173292948Y-99121886D01*
X173245329Y-99217124D01*
X173150091Y-99312362D01*
X173007233Y-99359981D01*
X172769138Y-99359981D01*
X172077095Y-94305381D02*
X172077095Y-93305381D01*
X172648524Y-94305381D02*
X172219952Y-93733952D01*
X172648524Y-93305381D02*
X172077095Y-93876810D01*
X159053105Y-148114881D02*
X159053105Y-147114881D01*
X159291200Y-147114881D01*
X159434058Y-147162500D01*
X159529296Y-147257738D01*
X159576915Y-147352976D01*
X159624534Y-147543452D01*
X159624534Y-147686310D01*
X159576915Y-147876786D01*
X159529296Y-147972024D01*
X159434058Y-148067262D01*
X159291200Y-148114881D01*
X159053105Y-148114881D01*
X160481677Y-147114881D02*
X160291200Y-147114881D01*
X160195962Y-147162500D01*
X160148343Y-147210119D01*
X160053105Y-147352976D01*
X160005486Y-147543452D01*
X160005486Y-147924405D01*
X160053105Y-148019643D01*
X160100724Y-148067262D01*
X160195962Y-148114881D01*
X160386439Y-148114881D01*
X160481677Y-148067262D01*
X160529296Y-148019643D01*
X160576915Y-147924405D01*
X160576915Y-147686310D01*
X160529296Y-147591071D01*
X160481677Y-147543452D01*
X160386439Y-147495833D01*
X160195962Y-147495833D01*
X160100724Y-147543452D01*
X160053105Y-147591071D01*
X160005486Y-147686310D01*
X162397905Y-147257667D02*
X162874096Y-147257667D01*
X162302667Y-147543381D02*
X162636000Y-146543381D01*
X162969334Y-147543381D01*
X159992905Y-138895381D02*
X159992905Y-137895381D01*
X160231000Y-137895381D01*
X160373858Y-137943000D01*
X160469096Y-138038238D01*
X160516715Y-138133476D01*
X160564334Y-138323952D01*
X160564334Y-138466810D01*
X160516715Y-138657286D01*
X160469096Y-138752524D01*
X160373858Y-138847762D01*
X160231000Y-138895381D01*
X159992905Y-138895381D01*
X160897667Y-137895381D02*
X161564334Y-137895381D01*
X161135762Y-138895381D01*
X157698905Y-140133667D02*
X158175096Y-140133667D01*
X157603667Y-140419381D02*
X157937000Y-139419381D01*
X158270334Y-140419381D01*
X160170905Y-135428381D02*
X160170905Y-134428381D01*
X160409000Y-134428381D01*
X160551858Y-134476000D01*
X160647096Y-134571238D01*
X160694715Y-134666476D01*
X160742334Y-134856952D01*
X160742334Y-134999810D01*
X160694715Y-135190286D01*
X160647096Y-135285524D01*
X160551858Y-135380762D01*
X160409000Y-135428381D01*
X160170905Y-135428381D01*
X161313762Y-134856952D02*
X161218524Y-134809333D01*
X161170905Y-134761714D01*
X161123286Y-134666476D01*
X161123286Y-134618857D01*
X161170905Y-134523619D01*
X161218524Y-134476000D01*
X161313762Y-134428381D01*
X161504239Y-134428381D01*
X161599477Y-134476000D01*
X161647096Y-134523619D01*
X161694715Y-134618857D01*
X161694715Y-134666476D01*
X161647096Y-134761714D01*
X161599477Y-134809333D01*
X161504239Y-134856952D01*
X161313762Y-134856952D01*
X161218524Y-134904571D01*
X161170905Y-134952190D01*
X161123286Y-135047429D01*
X161123286Y-135237905D01*
X161170905Y-135333143D01*
X161218524Y-135380762D01*
X161313762Y-135428381D01*
X161504239Y-135428381D01*
X161599477Y-135380762D01*
X161647096Y-135333143D01*
X161694715Y-135237905D01*
X161694715Y-135047429D01*
X161647096Y-134952190D01*
X161599477Y-134904571D01*
X161504239Y-134856952D01*
X157876905Y-136666667D02*
X158353096Y-136666667D01*
X157781667Y-136952381D02*
X158115000Y-135952381D01*
X158448334Y-136952381D01*
X156703905Y-136177381D02*
X156703905Y-135177381D01*
X156942000Y-135177381D01*
X157084858Y-135225000D01*
X157180096Y-135320238D01*
X157227715Y-135415476D01*
X157275334Y-135605952D01*
X157275334Y-135748810D01*
X157227715Y-135939286D01*
X157180096Y-136034524D01*
X157084858Y-136129762D01*
X156942000Y-136177381D01*
X156703905Y-136177381D01*
X157751524Y-136177381D02*
X157942000Y-136177381D01*
X158037239Y-136129762D01*
X158084858Y-136082143D01*
X158180096Y-135939286D01*
X158227715Y-135748810D01*
X158227715Y-135367857D01*
X158180096Y-135272619D01*
X158132477Y-135225000D01*
X158037239Y-135177381D01*
X157846762Y-135177381D01*
X157751524Y-135225000D01*
X157703905Y-135272619D01*
X157656286Y-135367857D01*
X157656286Y-135605952D01*
X157703905Y-135701190D01*
X157751524Y-135748810D01*
X157846762Y-135796429D01*
X158037239Y-135796429D01*
X158132477Y-135748810D01*
X158180096Y-135701190D01*
X158227715Y-135605952D01*
X159997905Y-134367667D02*
X160474096Y-134367667D01*
X159902667Y-134653381D02*
X160236000Y-133653381D01*
X160569334Y-134653381D01*
X111409314Y-69184781D02*
X111409314Y-68184781D01*
X111647409Y-68184781D01*
X111790267Y-68232400D01*
X111885505Y-68327638D01*
X111933124Y-68422876D01*
X111980743Y-68613352D01*
X111980743Y-68756210D01*
X111933124Y-68946686D01*
X111885505Y-69041924D01*
X111790267Y-69137162D01*
X111647409Y-69184781D01*
X111409314Y-69184781D01*
X112933124Y-69184781D02*
X112361695Y-69184781D01*
X112647409Y-69184781D02*
X112647409Y-68184781D01*
X112552171Y-68327638D01*
X112456933Y-68422876D01*
X112361695Y-68470495D01*
X113552171Y-68184781D02*
X113647410Y-68184781D01*
X113742648Y-68232400D01*
X113790267Y-68280019D01*
X113837886Y-68375257D01*
X113885505Y-68565733D01*
X113885505Y-68803829D01*
X113837886Y-68994305D01*
X113790267Y-69089543D01*
X113742648Y-69137162D01*
X113647410Y-69184781D01*
X113552171Y-69184781D01*
X113456933Y-69137162D01*
X113409314Y-69089543D01*
X113361695Y-68994305D01*
X113314076Y-68803829D01*
X113314076Y-68565733D01*
X113361695Y-68375257D01*
X113409314Y-68280019D01*
X113456933Y-68232400D01*
X113552171Y-68184781D01*
X111923372Y-71978781D02*
X111351943Y-71978781D01*
X111637657Y-71978781D02*
X111637657Y-70978781D01*
X111542419Y-71121638D01*
X111447181Y-71216876D01*
X111351943Y-71264495D01*
X112351943Y-71312114D02*
X112351943Y-71978781D01*
X112351943Y-71407352D02*
X112399562Y-71359733D01*
X112494800Y-71312114D01*
X112637658Y-71312114D01*
X112732896Y-71359733D01*
X112780515Y-71454971D01*
X112780515Y-71978781D01*
X113685277Y-71312114D02*
X113685277Y-71978781D01*
X113447181Y-70931162D02*
X113209086Y-71645448D01*
X113828134Y-71645448D01*
X114399562Y-70978781D02*
X114494801Y-70978781D01*
X114590039Y-71026400D01*
X114637658Y-71074019D01*
X114685277Y-71169257D01*
X114732896Y-71359733D01*
X114732896Y-71597829D01*
X114685277Y-71788305D01*
X114637658Y-71883543D01*
X114590039Y-71931162D01*
X114494801Y-71978781D01*
X114399562Y-71978781D01*
X114304324Y-71931162D01*
X114256705Y-71883543D01*
X114209086Y-71788305D01*
X114161467Y-71597829D01*
X114161467Y-71359733D01*
X114209086Y-71169257D01*
X114256705Y-71074019D01*
X114304324Y-71026400D01*
X114399562Y-70978781D01*
X115351943Y-70978781D02*
X115447182Y-70978781D01*
X115542420Y-71026400D01*
X115590039Y-71074019D01*
X115637658Y-71169257D01*
X115685277Y-71359733D01*
X115685277Y-71597829D01*
X115637658Y-71788305D01*
X115590039Y-71883543D01*
X115542420Y-71931162D01*
X115447182Y-71978781D01*
X115351943Y-71978781D01*
X115256705Y-71931162D01*
X115209086Y-71883543D01*
X115161467Y-71788305D01*
X115113848Y-71597829D01*
X115113848Y-71359733D01*
X115161467Y-71169257D01*
X115209086Y-71074019D01*
X115256705Y-71026400D01*
X115351943Y-70978781D01*
X116018610Y-70978781D02*
X116685277Y-70978781D01*
X116256705Y-71978781D01*
X119599105Y-71185067D02*
X120075296Y-71185067D01*
X119503867Y-71470781D02*
X119837200Y-70470781D01*
X120170534Y-71470781D01*
X116705114Y-52306481D02*
X116705114Y-51306481D01*
X116943209Y-51306481D01*
X117086067Y-51354100D01*
X117181305Y-51449338D01*
X117228924Y-51544576D01*
X117276543Y-51735052D01*
X117276543Y-51877910D01*
X117228924Y-52068386D01*
X117181305Y-52163624D01*
X117086067Y-52258862D01*
X116943209Y-52306481D01*
X116705114Y-52306481D01*
X118228924Y-52306481D02*
X117657495Y-52306481D01*
X117943209Y-52306481D02*
X117943209Y-51306481D01*
X117847971Y-51449338D01*
X117752733Y-51544576D01*
X117657495Y-51592195D01*
X119181305Y-52306481D02*
X118609876Y-52306481D01*
X118895590Y-52306481D02*
X118895590Y-51306481D01*
X118800352Y-51449338D01*
X118705114Y-51544576D01*
X118609876Y-51592195D01*
X115550381Y-56770281D02*
X114978952Y-56770281D01*
X115264666Y-56770281D02*
X115264666Y-55770281D01*
X115169428Y-55913138D01*
X115074190Y-56008376D01*
X114978952Y-56055995D01*
X115978952Y-56103614D02*
X115978952Y-56770281D01*
X115978952Y-56198852D02*
X116026571Y-56151233D01*
X116121809Y-56103614D01*
X116264667Y-56103614D01*
X116359905Y-56151233D01*
X116407524Y-56246471D01*
X116407524Y-56770281D01*
X117312286Y-56103614D02*
X117312286Y-56770281D01*
X117074190Y-55722662D02*
X116836095Y-56436948D01*
X117455143Y-56436948D01*
X118312286Y-55770281D02*
X117836095Y-55770281D01*
X117788476Y-56246471D01*
X117836095Y-56198852D01*
X117931333Y-56151233D01*
X118169429Y-56151233D01*
X118264667Y-56198852D01*
X118312286Y-56246471D01*
X118359905Y-56341710D01*
X118359905Y-56579805D01*
X118312286Y-56675043D01*
X118264667Y-56722662D01*
X118169429Y-56770281D01*
X117931333Y-56770281D01*
X117836095Y-56722662D01*
X117788476Y-56675043D01*
X118978952Y-55770281D02*
X119074191Y-55770281D01*
X119169429Y-55817900D01*
X119217048Y-55865519D01*
X119264667Y-55960757D01*
X119312286Y-56151233D01*
X119312286Y-56389329D01*
X119264667Y-56579805D01*
X119217048Y-56675043D01*
X119169429Y-56722662D01*
X119074191Y-56770281D01*
X118978952Y-56770281D01*
X118883714Y-56722662D01*
X118836095Y-56675043D01*
X118788476Y-56579805D01*
X118740857Y-56389329D01*
X118740857Y-56151233D01*
X118788476Y-55960757D01*
X118836095Y-55865519D01*
X118883714Y-55817900D01*
X118978952Y-55770281D01*
X119931333Y-55770281D02*
X120026572Y-55770281D01*
X120121810Y-55817900D01*
X120169429Y-55865519D01*
X120217048Y-55960757D01*
X120264667Y-56151233D01*
X120264667Y-56389329D01*
X120217048Y-56579805D01*
X120169429Y-56675043D01*
X120121810Y-56722662D01*
X120026572Y-56770281D01*
X119931333Y-56770281D01*
X119836095Y-56722662D01*
X119788476Y-56675043D01*
X119740857Y-56579805D01*
X119693238Y-56389329D01*
X119693238Y-56151233D01*
X119740857Y-55960757D01*
X119788476Y-55865519D01*
X119836095Y-55817900D01*
X119931333Y-55770281D01*
X120598000Y-55770281D02*
X121264667Y-55770281D01*
X120836095Y-56770281D01*
X115115905Y-52833567D02*
X115592096Y-52833567D01*
X115020667Y-53119281D02*
X115354000Y-52119281D01*
X115687334Y-53119281D01*
X120247914Y-64599881D02*
X120247914Y-63599881D01*
X120486009Y-63599881D01*
X120628867Y-63647500D01*
X120724105Y-63742738D01*
X120771724Y-63837976D01*
X120819343Y-64028452D01*
X120819343Y-64171310D01*
X120771724Y-64361786D01*
X120724105Y-64457024D01*
X120628867Y-64552262D01*
X120486009Y-64599881D01*
X120247914Y-64599881D01*
X121771724Y-64599881D02*
X121200295Y-64599881D01*
X121486009Y-64599881D02*
X121486009Y-63599881D01*
X121390771Y-63742738D01*
X121295533Y-63837976D01*
X121200295Y-63885595D01*
X122152676Y-63695119D02*
X122200295Y-63647500D01*
X122295533Y-63599881D01*
X122533629Y-63599881D01*
X122628867Y-63647500D01*
X122676486Y-63695119D01*
X122724105Y-63790357D01*
X122724105Y-63885595D01*
X122676486Y-64028452D01*
X122105057Y-64599881D01*
X122724105Y-64599881D01*
X116064572Y-66600081D02*
X115493143Y-66600081D01*
X115778857Y-66600081D02*
X115778857Y-65600081D01*
X115683619Y-65742938D01*
X115588381Y-65838176D01*
X115493143Y-65885795D01*
X116493143Y-65933414D02*
X116493143Y-66600081D01*
X116493143Y-66028652D02*
X116540762Y-65981033D01*
X116636000Y-65933414D01*
X116778858Y-65933414D01*
X116874096Y-65981033D01*
X116921715Y-66076271D01*
X116921715Y-66600081D01*
X117826477Y-65933414D02*
X117826477Y-66600081D01*
X117588381Y-65552462D02*
X117350286Y-66266748D01*
X117969334Y-66266748D01*
X118540762Y-65600081D02*
X118636001Y-65600081D01*
X118731239Y-65647700D01*
X118778858Y-65695319D01*
X118826477Y-65790557D01*
X118874096Y-65981033D01*
X118874096Y-66219129D01*
X118826477Y-66409605D01*
X118778858Y-66504843D01*
X118731239Y-66552462D01*
X118636001Y-66600081D01*
X118540762Y-66600081D01*
X118445524Y-66552462D01*
X118397905Y-66504843D01*
X118350286Y-66409605D01*
X118302667Y-66219129D01*
X118302667Y-65981033D01*
X118350286Y-65790557D01*
X118397905Y-65695319D01*
X118445524Y-65647700D01*
X118540762Y-65600081D01*
X119493143Y-65600081D02*
X119588382Y-65600081D01*
X119683620Y-65647700D01*
X119731239Y-65695319D01*
X119778858Y-65790557D01*
X119826477Y-65981033D01*
X119826477Y-66219129D01*
X119778858Y-66409605D01*
X119731239Y-66504843D01*
X119683620Y-66552462D01*
X119588382Y-66600081D01*
X119493143Y-66600081D01*
X119397905Y-66552462D01*
X119350286Y-66504843D01*
X119302667Y-66409605D01*
X119255048Y-66219129D01*
X119255048Y-65981033D01*
X119302667Y-65790557D01*
X119350286Y-65695319D01*
X119397905Y-65647700D01*
X119493143Y-65600081D01*
X120159810Y-65600081D02*
X120826477Y-65600081D01*
X120397905Y-66600081D01*
X115153905Y-62663367D02*
X115630096Y-62663367D01*
X115058667Y-62949081D02*
X115392000Y-61949081D01*
X115725334Y-62949081D01*
X113377714Y-62123581D02*
X113377714Y-61123581D01*
X113615809Y-61123581D01*
X113758667Y-61171200D01*
X113853905Y-61266438D01*
X113901524Y-61361676D01*
X113949143Y-61552152D01*
X113949143Y-61695010D01*
X113901524Y-61885486D01*
X113853905Y-61980724D01*
X113758667Y-62075962D01*
X113615809Y-62123581D01*
X113377714Y-62123581D01*
X114901524Y-62123581D02*
X114330095Y-62123581D01*
X114615809Y-62123581D02*
X114615809Y-61123581D01*
X114520571Y-61266438D01*
X114425333Y-61361676D01*
X114330095Y-61409295D01*
X115234857Y-61123581D02*
X115853905Y-61123581D01*
X115520571Y-61504533D01*
X115663429Y-61504533D01*
X115758667Y-61552152D01*
X115806286Y-61599771D01*
X115853905Y-61695010D01*
X115853905Y-61933105D01*
X115806286Y-62028343D01*
X115758667Y-62075962D01*
X115663429Y-62123581D01*
X115377714Y-62123581D01*
X115282476Y-62075962D01*
X115234857Y-62028343D01*
X117447772Y-62098181D02*
X116876343Y-62098181D01*
X117162057Y-62098181D02*
X117162057Y-61098181D01*
X117066819Y-61241038D01*
X116971581Y-61336276D01*
X116876343Y-61383895D01*
X117876343Y-61431514D02*
X117876343Y-62098181D01*
X117876343Y-61526752D02*
X117923962Y-61479133D01*
X118019200Y-61431514D01*
X118162058Y-61431514D01*
X118257296Y-61479133D01*
X118304915Y-61574371D01*
X118304915Y-62098181D01*
X119209677Y-61431514D02*
X119209677Y-62098181D01*
X118971581Y-61050562D02*
X118733486Y-61764848D01*
X119352534Y-61764848D01*
X119923962Y-61098181D02*
X120019201Y-61098181D01*
X120114439Y-61145800D01*
X120162058Y-61193419D01*
X120209677Y-61288657D01*
X120257296Y-61479133D01*
X120257296Y-61717229D01*
X120209677Y-61907705D01*
X120162058Y-62002943D01*
X120114439Y-62050562D01*
X120019201Y-62098181D01*
X119923962Y-62098181D01*
X119828724Y-62050562D01*
X119781105Y-62002943D01*
X119733486Y-61907705D01*
X119685867Y-61717229D01*
X119685867Y-61479133D01*
X119733486Y-61288657D01*
X119781105Y-61193419D01*
X119828724Y-61145800D01*
X119923962Y-61098181D01*
X120876343Y-61098181D02*
X120971582Y-61098181D01*
X121066820Y-61145800D01*
X121114439Y-61193419D01*
X121162058Y-61288657D01*
X121209677Y-61479133D01*
X121209677Y-61717229D01*
X121162058Y-61907705D01*
X121114439Y-62002943D01*
X121066820Y-62050562D01*
X120971582Y-62098181D01*
X120876343Y-62098181D01*
X120781105Y-62050562D01*
X120733486Y-62002943D01*
X120685867Y-61907705D01*
X120638248Y-61717229D01*
X120638248Y-61479133D01*
X120685867Y-61288657D01*
X120733486Y-61193419D01*
X120781105Y-61145800D01*
X120876343Y-61098181D01*
X121543010Y-61098181D02*
X122209677Y-61098181D01*
X121781105Y-62098181D01*
X117147905Y-60313867D02*
X117624096Y-60313867D01*
X117052667Y-60599581D02*
X117386000Y-59599581D01*
X117719334Y-60599581D01*
X167695714Y-100401381D02*
X167695714Y-99401381D01*
X167933809Y-99401381D01*
X168076667Y-99449000D01*
X168171905Y-99544238D01*
X168219524Y-99639476D01*
X168267143Y-99829952D01*
X168267143Y-99972810D01*
X168219524Y-100163286D01*
X168171905Y-100258524D01*
X168076667Y-100353762D01*
X167933809Y-100401381D01*
X167695714Y-100401381D01*
X169219524Y-100401381D02*
X168648095Y-100401381D01*
X168933809Y-100401381D02*
X168933809Y-99401381D01*
X168838571Y-99544238D01*
X168743333Y-99639476D01*
X168648095Y-99687095D01*
X170076667Y-99734714D02*
X170076667Y-100401381D01*
X169838571Y-99353762D02*
X169600476Y-100068048D01*
X170219524Y-100068048D01*
X168267143Y-108402381D02*
X167790952Y-108402381D01*
X167790952Y-107402381D01*
X168600476Y-107878571D02*
X168933810Y-107878571D01*
X169076667Y-108402381D02*
X168600476Y-108402381D01*
X168600476Y-107402381D01*
X169076667Y-107402381D01*
X169505238Y-108402381D02*
X169505238Y-107402381D01*
X169743333Y-107402381D01*
X169886191Y-107450000D01*
X169981429Y-107545238D01*
X170029048Y-107640476D01*
X170076667Y-107830952D01*
X170076667Y-107973810D01*
X170029048Y-108164286D01*
X169981429Y-108259524D01*
X169886191Y-108354762D01*
X169743333Y-108402381D01*
X169505238Y-108402381D01*
X172077095Y-102560381D02*
X172077095Y-101560381D01*
X172648524Y-102560381D02*
X172219952Y-101988952D01*
X172648524Y-101560381D02*
X172077095Y-102131810D01*
X86705701Y-132142455D02*
X85705701Y-132142455D01*
X85705701Y-131761502D01*
X85753320Y-131666264D01*
X85800939Y-131618645D01*
X85896177Y-131571026D01*
X86039034Y-131571026D01*
X86134272Y-131618645D01*
X86181891Y-131666264D01*
X86229510Y-131761502D01*
X86229510Y-132142455D01*
X86705701Y-130618645D02*
X86705701Y-131190074D01*
X86705701Y-130904360D02*
X85705701Y-130904360D01*
X85848558Y-130999598D01*
X85943796Y-131094836D01*
X85991415Y-131190074D01*
X74995114Y-130188905D02*
X75995114Y-130188905D01*
X75042733Y-130188905D02*
X74995114Y-130093667D01*
X74995114Y-129903190D01*
X75042733Y-129807952D01*
X75090352Y-129760333D01*
X75185590Y-129712714D01*
X75471305Y-129712714D01*
X75566543Y-129760333D01*
X75614162Y-129807952D01*
X75661781Y-129903190D01*
X75661781Y-130093667D01*
X75614162Y-130188905D01*
X74995114Y-129379381D02*
X75661781Y-129188905D01*
X75185590Y-128998428D01*
X75661781Y-128807952D01*
X74995114Y-128617476D01*
X75661781Y-128236524D02*
X74995114Y-128236524D01*
X75185590Y-128236524D02*
X75090352Y-128188905D01*
X75042733Y-128141286D01*
X74995114Y-128046048D01*
X74995114Y-127950809D01*
X75661781Y-127617476D02*
X74661781Y-127617476D01*
X75042733Y-127617476D02*
X74995114Y-127522238D01*
X74995114Y-127331761D01*
X75042733Y-127236523D01*
X75090352Y-127188904D01*
X75185590Y-127141285D01*
X75471305Y-127141285D01*
X75566543Y-127188904D01*
X75614162Y-127236523D01*
X75661781Y-127331761D01*
X75661781Y-127522238D01*
X75614162Y-127617476D01*
X75661781Y-126712714D02*
X74995114Y-126712714D01*
X75185590Y-126712714D02*
X75090352Y-126665095D01*
X75042733Y-126617476D01*
X74995114Y-126522238D01*
X74995114Y-126426999D01*
X75661781Y-125665094D02*
X74661781Y-125665094D01*
X75614162Y-125665094D02*
X75661781Y-125760332D01*
X75661781Y-125950809D01*
X75614162Y-126046047D01*
X75566543Y-126093666D01*
X75471305Y-126141285D01*
X75185590Y-126141285D01*
X75090352Y-126093666D01*
X75042733Y-126046047D01*
X74995114Y-125950809D01*
X74995114Y-125760332D01*
X75042733Y-125665094D01*
X165167381Y-112946095D02*
X164167381Y-112946095D01*
X164167381Y-112565142D01*
X164215000Y-112469904D01*
X164262619Y-112422285D01*
X164357857Y-112374666D01*
X164500714Y-112374666D01*
X164595952Y-112422285D01*
X164643571Y-112469904D01*
X164691190Y-112565142D01*
X164691190Y-112946095D01*
X164262619Y-111993714D02*
X164215000Y-111946095D01*
X164167381Y-111850857D01*
X164167381Y-111612761D01*
X164215000Y-111517523D01*
X164262619Y-111469904D01*
X164357857Y-111422285D01*
X164453095Y-111422285D01*
X164595952Y-111469904D01*
X165167381Y-112041333D01*
X165167381Y-111422285D01*
X173324981Y-112842867D02*
X173277362Y-112938105D01*
X173229743Y-112985724D01*
X173134505Y-113033343D01*
X172848790Y-113033343D01*
X172753552Y-112985724D01*
X172705933Y-112938105D01*
X172658314Y-112842867D01*
X172658314Y-112700009D01*
X172705933Y-112604771D01*
X172753552Y-112557152D01*
X172848790Y-112509533D01*
X173134505Y-112509533D01*
X173229743Y-112557152D01*
X173277362Y-112604771D01*
X173324981Y-112700009D01*
X173324981Y-112842867D01*
X172658314Y-112080962D02*
X173324981Y-112080962D01*
X172753552Y-112080962D02*
X172705933Y-112033343D01*
X172658314Y-111938105D01*
X172658314Y-111795247D01*
X172705933Y-111700009D01*
X172801171Y-111652390D01*
X173324981Y-111652390D01*
X173324981Y-111033343D02*
X173277362Y-111128581D01*
X173182124Y-111176200D01*
X172324981Y-111176200D01*
X173277362Y-110271437D02*
X173324981Y-110366675D01*
X173324981Y-110557152D01*
X173277362Y-110652390D01*
X173182124Y-110700009D01*
X172801171Y-110700009D01*
X172705933Y-110652390D01*
X172658314Y-110557152D01*
X172658314Y-110366675D01*
X172705933Y-110271437D01*
X172801171Y-110223818D01*
X172896410Y-110223818D01*
X172991648Y-110700009D01*
X173324981Y-109366675D02*
X172324981Y-109366675D01*
X173277362Y-109366675D02*
X173324981Y-109461913D01*
X173324981Y-109652390D01*
X173277362Y-109747628D01*
X173229743Y-109795247D01*
X173134505Y-109842866D01*
X172848790Y-109842866D01*
X172753552Y-109795247D01*
X172705933Y-109747628D01*
X172658314Y-109652390D01*
X172658314Y-109461913D01*
X172705933Y-109366675D01*
X165218381Y-126154095D02*
X164218381Y-126154095D01*
X164218381Y-125773142D01*
X164266000Y-125677904D01*
X164313619Y-125630285D01*
X164408857Y-125582666D01*
X164551714Y-125582666D01*
X164646952Y-125630285D01*
X164694571Y-125677904D01*
X164742190Y-125773142D01*
X164742190Y-126154095D01*
X164218381Y-125249333D02*
X164218381Y-124630285D01*
X164599333Y-124963619D01*
X164599333Y-124820761D01*
X164646952Y-124725523D01*
X164694571Y-124677904D01*
X164789810Y-124630285D01*
X165027905Y-124630285D01*
X165123143Y-124677904D01*
X165170762Y-124725523D01*
X165218381Y-124820761D01*
X165218381Y-125106476D01*
X165170762Y-125201714D01*
X165123143Y-125249333D01*
X173325181Y-127394829D02*
X173277562Y-127490067D01*
X173229943Y-127537686D01*
X173134705Y-127585305D01*
X172848990Y-127585305D01*
X172753752Y-127537686D01*
X172706133Y-127490067D01*
X172658514Y-127394829D01*
X172658514Y-127251971D01*
X172706133Y-127156733D01*
X172753752Y-127109114D01*
X172848990Y-127061495D01*
X173134705Y-127061495D01*
X173229943Y-127109114D01*
X173277562Y-127156733D01*
X173325181Y-127251971D01*
X173325181Y-127394829D01*
X172658514Y-126632924D02*
X173325181Y-126632924D01*
X172753752Y-126632924D02*
X172706133Y-126585305D01*
X172658514Y-126490067D01*
X172658514Y-126347209D01*
X172706133Y-126251971D01*
X172801371Y-126204352D01*
X173325181Y-126204352D01*
X172277562Y-125013876D02*
X173563276Y-125871019D01*
X173325181Y-124537686D02*
X173277562Y-124632924D01*
X173229943Y-124680543D01*
X173134705Y-124728162D01*
X172848990Y-124728162D01*
X172753752Y-124680543D01*
X172706133Y-124632924D01*
X172658514Y-124537686D01*
X172658514Y-124394828D01*
X172706133Y-124299590D01*
X172753752Y-124251971D01*
X172848990Y-124204352D01*
X173134705Y-124204352D01*
X173229943Y-124251971D01*
X173277562Y-124299590D01*
X173325181Y-124394828D01*
X173325181Y-124537686D01*
X172658514Y-123918638D02*
X172658514Y-123537686D01*
X173325181Y-123775781D02*
X172468038Y-123775781D01*
X172372800Y-123728162D01*
X172325181Y-123632924D01*
X172325181Y-123537686D01*
X172658514Y-123347209D02*
X172658514Y-122966257D01*
X173325181Y-123204352D02*
X172468038Y-123204352D01*
X172372800Y-123156733D01*
X172325181Y-123061495D01*
X172325181Y-122966257D01*
X165218381Y-119220095D02*
X164218381Y-119220095D01*
X164218381Y-118839142D01*
X164266000Y-118743904D01*
X164313619Y-118696285D01*
X164408857Y-118648666D01*
X164551714Y-118648666D01*
X164646952Y-118696285D01*
X164694571Y-118743904D01*
X164742190Y-118839142D01*
X164742190Y-119220095D01*
X164551714Y-117791523D02*
X165218381Y-117791523D01*
X164170762Y-118029619D02*
X164885048Y-118267714D01*
X164885048Y-117648666D01*
X172963114Y-119670695D02*
X172963114Y-119289743D01*
X172629781Y-119527838D02*
X173486924Y-119527838D01*
X173582162Y-119480219D01*
X173629781Y-119384981D01*
X173629781Y-119289743D01*
X173582162Y-118575456D02*
X173629781Y-118670694D01*
X173629781Y-118861171D01*
X173582162Y-118956409D01*
X173486924Y-119004028D01*
X173105971Y-119004028D01*
X173010733Y-118956409D01*
X172963114Y-118861171D01*
X172963114Y-118670694D01*
X173010733Y-118575456D01*
X173105971Y-118527837D01*
X173201210Y-118527837D01*
X173296448Y-119004028D01*
X173629781Y-118099266D02*
X172963114Y-118099266D01*
X173058352Y-118099266D02*
X173010733Y-118051647D01*
X172963114Y-117956409D01*
X172963114Y-117813551D01*
X173010733Y-117718313D01*
X173105971Y-117670694D01*
X173629781Y-117670694D01*
X173105971Y-117670694D02*
X173010733Y-117623075D01*
X172963114Y-117527837D01*
X172963114Y-117384980D01*
X173010733Y-117289742D01*
X173105971Y-117242123D01*
X173629781Y-117242123D01*
X172963114Y-116765933D02*
X173963114Y-116765933D01*
X173010733Y-116765933D02*
X172963114Y-116670695D01*
X172963114Y-116480218D01*
X173010733Y-116384980D01*
X173058352Y-116337361D01*
X173153590Y-116289742D01*
X173439305Y-116289742D01*
X173534543Y-116337361D01*
X173582162Y-116384980D01*
X173629781Y-116480218D01*
X173629781Y-116670695D01*
X173582162Y-116765933D01*
X165370381Y-140606095D02*
X164370381Y-140606095D01*
X164370381Y-140225142D01*
X164418000Y-140129904D01*
X164465619Y-140082285D01*
X164560857Y-140034666D01*
X164703714Y-140034666D01*
X164798952Y-140082285D01*
X164846571Y-140129904D01*
X164894190Y-140225142D01*
X164894190Y-140606095D01*
X164370381Y-139129904D02*
X164370381Y-139606095D01*
X164846571Y-139653714D01*
X164798952Y-139606095D01*
X164751333Y-139510857D01*
X164751333Y-139272761D01*
X164798952Y-139177523D01*
X164846571Y-139129904D01*
X164941810Y-139082285D01*
X165179905Y-139082285D01*
X165275143Y-139129904D01*
X165322762Y-139177523D01*
X165370381Y-139272761D01*
X165370381Y-139510857D01*
X165322762Y-139606095D01*
X165275143Y-139653714D01*
X173556762Y-142044219D02*
X173604381Y-142139457D01*
X173604381Y-142329934D01*
X173556762Y-142425172D01*
X173509143Y-142472791D01*
X173413905Y-142520410D01*
X173128190Y-142520410D01*
X173032952Y-142472791D01*
X172985333Y-142425172D01*
X172937714Y-142329934D01*
X172937714Y-142139457D01*
X172985333Y-142044219D01*
X172937714Y-141758505D02*
X172937714Y-141377553D01*
X172604381Y-141615648D02*
X173461524Y-141615648D01*
X173556762Y-141568029D01*
X173604381Y-141472791D01*
X173604381Y-141377553D01*
X173556762Y-140329933D02*
X173604381Y-140234695D01*
X173604381Y-140044219D01*
X173556762Y-139948980D01*
X173461524Y-139901361D01*
X173413905Y-139901361D01*
X173318667Y-139948980D01*
X173271048Y-140044219D01*
X173271048Y-140187076D01*
X173223429Y-140282314D01*
X173128190Y-140329933D01*
X173080571Y-140329933D01*
X172985333Y-140282314D01*
X172937714Y-140187076D01*
X172937714Y-140044219D01*
X172985333Y-139948980D01*
X173556762Y-139091837D02*
X173604381Y-139187075D01*
X173604381Y-139377552D01*
X173556762Y-139472790D01*
X173461524Y-139520409D01*
X173080571Y-139520409D01*
X172985333Y-139472790D01*
X172937714Y-139377552D01*
X172937714Y-139187075D01*
X172985333Y-139091837D01*
X173080571Y-139044218D01*
X173175810Y-139044218D01*
X173271048Y-139520409D01*
X172937714Y-138615647D02*
X173604381Y-138615647D01*
X173032952Y-138615647D02*
X172985333Y-138568028D01*
X172937714Y-138472790D01*
X172937714Y-138329932D01*
X172985333Y-138234694D01*
X173080571Y-138187075D01*
X173604381Y-138187075D01*
X173556762Y-137758504D02*
X173604381Y-137663266D01*
X173604381Y-137472790D01*
X173556762Y-137377551D01*
X173461524Y-137329932D01*
X173413905Y-137329932D01*
X173318667Y-137377551D01*
X173271048Y-137472790D01*
X173271048Y-137615647D01*
X173223429Y-137710885D01*
X173128190Y-137758504D01*
X173080571Y-137758504D01*
X172985333Y-137710885D01*
X172937714Y-137615647D01*
X172937714Y-137472790D01*
X172985333Y-137377551D01*
X173556762Y-136520408D02*
X173604381Y-136615646D01*
X173604381Y-136806123D01*
X173556762Y-136901361D01*
X173461524Y-136948980D01*
X173080571Y-136948980D01*
X172985333Y-136901361D01*
X172937714Y-136806123D01*
X172937714Y-136615646D01*
X172985333Y-136520408D01*
X173080571Y-136472789D01*
X173175810Y-136472789D01*
X173271048Y-136948980D01*
X77366905Y-88209381D02*
X77366905Y-87209381D01*
X77747858Y-87209381D01*
X77843096Y-87257000D01*
X77890715Y-87304619D01*
X77938334Y-87399857D01*
X77938334Y-87542714D01*
X77890715Y-87637952D01*
X77843096Y-87685571D01*
X77747858Y-87733190D01*
X77366905Y-87733190D01*
X78795477Y-87209381D02*
X78605000Y-87209381D01*
X78509762Y-87257000D01*
X78462143Y-87304619D01*
X78366905Y-87447476D01*
X78319286Y-87637952D01*
X78319286Y-88018905D01*
X78366905Y-88114143D01*
X78414524Y-88161762D01*
X78509762Y-88209381D01*
X78700239Y-88209381D01*
X78795477Y-88161762D01*
X78843096Y-88114143D01*
X78890715Y-88018905D01*
X78890715Y-87780810D01*
X78843096Y-87685571D01*
X78795477Y-87637952D01*
X78700239Y-87590333D01*
X78509762Y-87590333D01*
X78414524Y-87637952D01*
X78366905Y-87685571D01*
X78319286Y-87780810D01*
X81700667Y-97940238D02*
X81700667Y-97464047D01*
X81986381Y-98035476D02*
X80986381Y-97702143D01*
X81986381Y-97368809D01*
X81938762Y-96606904D02*
X81986381Y-96702142D01*
X81986381Y-96892619D01*
X81938762Y-96987857D01*
X81891143Y-97035476D01*
X81795905Y-97083095D01*
X81510190Y-97083095D01*
X81414952Y-97035476D01*
X81367333Y-96987857D01*
X81319714Y-96892619D01*
X81319714Y-96702142D01*
X81367333Y-96606904D01*
X81319714Y-96321190D02*
X81319714Y-95940238D01*
X80986381Y-96178333D02*
X81843524Y-96178333D01*
X81938762Y-96130714D01*
X81986381Y-96035476D01*
X81986381Y-95940238D01*
X81986381Y-95606904D02*
X81319714Y-95606904D01*
X80986381Y-95606904D02*
X81034000Y-95654523D01*
X81081619Y-95606904D01*
X81034000Y-95559285D01*
X80986381Y-95606904D01*
X81081619Y-95606904D01*
X81319714Y-95225952D02*
X81986381Y-94987857D01*
X81319714Y-94749761D01*
X81938762Y-93987856D02*
X81986381Y-94083094D01*
X81986381Y-94273571D01*
X81938762Y-94368809D01*
X81843524Y-94416428D01*
X81462571Y-94416428D01*
X81367333Y-94368809D01*
X81319714Y-94273571D01*
X81319714Y-94083094D01*
X81367333Y-93987856D01*
X81462571Y-93940237D01*
X81557810Y-93940237D01*
X81653048Y-94416428D01*
X81986381Y-92749761D02*
X81319714Y-92749761D01*
X81414952Y-92749761D02*
X81367333Y-92702142D01*
X81319714Y-92606904D01*
X81319714Y-92464046D01*
X81367333Y-92368808D01*
X81462571Y-92321189D01*
X81986381Y-92321189D01*
X81462571Y-92321189D02*
X81367333Y-92273570D01*
X81319714Y-92178332D01*
X81319714Y-92035475D01*
X81367333Y-91940237D01*
X81462571Y-91892618D01*
X81986381Y-91892618D01*
X81986381Y-90987856D02*
X81462571Y-90987856D01*
X81367333Y-91035475D01*
X81319714Y-91130713D01*
X81319714Y-91321190D01*
X81367333Y-91416428D01*
X81938762Y-90987856D02*
X81986381Y-91083094D01*
X81986381Y-91321190D01*
X81938762Y-91416428D01*
X81843524Y-91464047D01*
X81748286Y-91464047D01*
X81653048Y-91416428D01*
X81605429Y-91321190D01*
X81605429Y-91083094D01*
X81557810Y-90987856D01*
X81986381Y-90511666D02*
X81319714Y-90511666D01*
X80986381Y-90511666D02*
X81034000Y-90559285D01*
X81081619Y-90511666D01*
X81034000Y-90464047D01*
X80986381Y-90511666D01*
X81081619Y-90511666D01*
X81319714Y-90035476D02*
X81986381Y-90035476D01*
X81414952Y-90035476D02*
X81367333Y-89987857D01*
X81319714Y-89892619D01*
X81319714Y-89749761D01*
X81367333Y-89654523D01*
X81462571Y-89606904D01*
X81986381Y-89606904D01*
X81938762Y-89178333D02*
X81986381Y-89083095D01*
X81986381Y-88892619D01*
X81938762Y-88797380D01*
X81843524Y-88749761D01*
X81795905Y-88749761D01*
X81700667Y-88797380D01*
X81653048Y-88892619D01*
X81653048Y-89035476D01*
X81605429Y-89130714D01*
X81510190Y-89178333D01*
X81462571Y-89178333D01*
X81367333Y-89130714D01*
X81319714Y-89035476D01*
X81319714Y-88892619D01*
X81367333Y-88797380D01*
X86549005Y-53411381D02*
X86549005Y-52411381D01*
X86929958Y-52411381D01*
X87025196Y-52459000D01*
X87072815Y-52506619D01*
X87120434Y-52601857D01*
X87120434Y-52744714D01*
X87072815Y-52839952D01*
X87025196Y-52887571D01*
X86929958Y-52935190D01*
X86549005Y-52935190D01*
X87453767Y-52411381D02*
X88120434Y-52411381D01*
X87691862Y-53411381D01*
X79353399Y-58993114D02*
X79353399Y-59659781D01*
X79353399Y-59088352D02*
X79401018Y-59040733D01*
X79496256Y-58993114D01*
X79639114Y-58993114D01*
X79734352Y-59040733D01*
X79781971Y-59135971D01*
X79781971Y-59659781D01*
X80639114Y-59612162D02*
X80543876Y-59659781D01*
X80353399Y-59659781D01*
X80258161Y-59612162D01*
X80210542Y-59516924D01*
X80210542Y-59135971D01*
X80258161Y-59040733D01*
X80353399Y-58993114D01*
X80543876Y-58993114D01*
X80639114Y-59040733D01*
X80686733Y-59135971D01*
X80686733Y-59231210D01*
X80210542Y-59326448D01*
X81543876Y-58993114D02*
X81543876Y-59659781D01*
X81115304Y-58993114D02*
X81115304Y-59516924D01*
X81162923Y-59612162D01*
X81258161Y-59659781D01*
X81401019Y-59659781D01*
X81496257Y-59612162D01*
X81543876Y-59564543D01*
X81877209Y-58993114D02*
X82258161Y-58993114D01*
X82020066Y-58659781D02*
X82020066Y-59516924D01*
X82067685Y-59612162D01*
X82162923Y-59659781D01*
X82258161Y-59659781D01*
X82591495Y-59659781D02*
X82591495Y-58993114D01*
X82591495Y-59183590D02*
X82639114Y-59088352D01*
X82686733Y-59040733D01*
X82781971Y-58993114D01*
X82877210Y-58993114D01*
X83639115Y-59659781D02*
X83639115Y-59135971D01*
X83591496Y-59040733D01*
X83496258Y-58993114D01*
X83305781Y-58993114D01*
X83210543Y-59040733D01*
X83639115Y-59612162D02*
X83543877Y-59659781D01*
X83305781Y-59659781D01*
X83210543Y-59612162D01*
X83162924Y-59516924D01*
X83162924Y-59421686D01*
X83210543Y-59326448D01*
X83305781Y-59278829D01*
X83543877Y-59278829D01*
X83639115Y-59231210D01*
X84258162Y-59659781D02*
X84162924Y-59612162D01*
X84115305Y-59516924D01*
X84115305Y-58659781D01*
X85401020Y-59659781D02*
X85401020Y-58993114D01*
X85401020Y-59088352D02*
X85448639Y-59040733D01*
X85543877Y-58993114D01*
X85686735Y-58993114D01*
X85781973Y-59040733D01*
X85829592Y-59135971D01*
X85829592Y-59659781D01*
X85829592Y-59135971D02*
X85877211Y-59040733D01*
X85972449Y-58993114D01*
X86115306Y-58993114D01*
X86210544Y-59040733D01*
X86258163Y-59135971D01*
X86258163Y-59659781D01*
X87162925Y-59659781D02*
X87162925Y-59135971D01*
X87115306Y-59040733D01*
X87020068Y-58993114D01*
X86829591Y-58993114D01*
X86734353Y-59040733D01*
X87162925Y-59612162D02*
X87067687Y-59659781D01*
X86829591Y-59659781D01*
X86734353Y-59612162D01*
X86686734Y-59516924D01*
X86686734Y-59421686D01*
X86734353Y-59326448D01*
X86829591Y-59278829D01*
X87067687Y-59278829D01*
X87162925Y-59231210D01*
X87639115Y-59659781D02*
X87639115Y-58993114D01*
X87639115Y-58659781D02*
X87591496Y-58707400D01*
X87639115Y-58755019D01*
X87686734Y-58707400D01*
X87639115Y-58659781D01*
X87639115Y-58755019D01*
X88115305Y-58993114D02*
X88115305Y-59659781D01*
X88115305Y-59088352D02*
X88162924Y-59040733D01*
X88258162Y-58993114D01*
X88401020Y-58993114D01*
X88496258Y-59040733D01*
X88543877Y-59135971D01*
X88543877Y-59659781D01*
X88972448Y-59612162D02*
X89067686Y-59659781D01*
X89258162Y-59659781D01*
X89353401Y-59612162D01*
X89401020Y-59516924D01*
X89401020Y-59469305D01*
X89353401Y-59374067D01*
X89258162Y-59326448D01*
X89115305Y-59326448D01*
X89020067Y-59278829D01*
X88972448Y-59183590D01*
X88972448Y-59135971D01*
X89020067Y-59040733D01*
X89115305Y-58993114D01*
X89258162Y-58993114D01*
X89353401Y-59040733D01*
X165218381Y-133469095D02*
X164218381Y-133469095D01*
X164218381Y-133088142D01*
X164266000Y-132992904D01*
X164313619Y-132945285D01*
X164408857Y-132897666D01*
X164551714Y-132897666D01*
X164646952Y-132945285D01*
X164694571Y-132992904D01*
X164742190Y-133088142D01*
X164742190Y-133469095D01*
X164646952Y-132326238D02*
X164599333Y-132421476D01*
X164551714Y-132469095D01*
X164456476Y-132516714D01*
X164408857Y-132516714D01*
X164313619Y-132469095D01*
X164266000Y-132421476D01*
X164218381Y-132326238D01*
X164218381Y-132135761D01*
X164266000Y-132040523D01*
X164313619Y-131992904D01*
X164408857Y-131945285D01*
X164456476Y-131945285D01*
X164551714Y-131992904D01*
X164599333Y-132040523D01*
X164646952Y-132135761D01*
X164646952Y-132326238D01*
X164694571Y-132421476D01*
X164742190Y-132469095D01*
X164837429Y-132516714D01*
X165027905Y-132516714D01*
X165123143Y-132469095D01*
X165170762Y-132421476D01*
X165218381Y-132326238D01*
X165218381Y-132135761D01*
X165170762Y-132040523D01*
X165123143Y-131992904D01*
X165027905Y-131945285D01*
X164837429Y-131945285D01*
X164742190Y-131992904D01*
X164694571Y-132040523D01*
X164646952Y-132135761D01*
X173175962Y-135578210D02*
X173223581Y-135482972D01*
X173223581Y-135292496D01*
X173175962Y-135197257D01*
X173080724Y-135149638D01*
X173033105Y-135149638D01*
X172937867Y-135197257D01*
X172890248Y-135292496D01*
X172890248Y-135435353D01*
X172842629Y-135530591D01*
X172747390Y-135578210D01*
X172699771Y-135578210D01*
X172604533Y-135530591D01*
X172556914Y-135435353D01*
X172556914Y-135292496D01*
X172604533Y-135197257D01*
X172556914Y-134816305D02*
X173223581Y-134578210D01*
X172556914Y-134340114D02*
X173223581Y-134578210D01*
X173461676Y-134673448D01*
X173509295Y-134721067D01*
X173556914Y-134816305D01*
X173175962Y-134006781D02*
X173223581Y-133911543D01*
X173223581Y-133721067D01*
X173175962Y-133625828D01*
X173080724Y-133578209D01*
X173033105Y-133578209D01*
X172937867Y-133625828D01*
X172890248Y-133721067D01*
X172890248Y-133863924D01*
X172842629Y-133959162D01*
X172747390Y-134006781D01*
X172699771Y-134006781D01*
X172604533Y-133959162D01*
X172556914Y-133863924D01*
X172556914Y-133721067D01*
X172604533Y-133625828D01*
X172556914Y-133292495D02*
X172556914Y-132911543D01*
X172223581Y-133149638D02*
X173080724Y-133149638D01*
X173175962Y-133102019D01*
X173223581Y-133006781D01*
X173223581Y-132911543D01*
X173175962Y-132197256D02*
X173223581Y-132292494D01*
X173223581Y-132482971D01*
X173175962Y-132578209D01*
X173080724Y-132625828D01*
X172699771Y-132625828D01*
X172604533Y-132578209D01*
X172556914Y-132482971D01*
X172556914Y-132292494D01*
X172604533Y-132197256D01*
X172699771Y-132149637D01*
X172795010Y-132149637D01*
X172890248Y-132625828D01*
X173223581Y-131721066D02*
X172556914Y-131721066D01*
X172652152Y-131721066D02*
X172604533Y-131673447D01*
X172556914Y-131578209D01*
X172556914Y-131435351D01*
X172604533Y-131340113D01*
X172699771Y-131292494D01*
X173223581Y-131292494D01*
X172699771Y-131292494D02*
X172604533Y-131244875D01*
X172556914Y-131149637D01*
X172556914Y-131006780D01*
X172604533Y-130911542D01*
X172699771Y-130863923D01*
X173223581Y-130863923D01*
X173223581Y-130244876D02*
X173175962Y-130340114D01*
X173080724Y-130387733D01*
X172223581Y-130387733D01*
X173175962Y-129482970D02*
X173223581Y-129578208D01*
X173223581Y-129768685D01*
X173175962Y-129863923D01*
X173080724Y-129911542D01*
X172699771Y-129911542D01*
X172604533Y-129863923D01*
X172556914Y-129768685D01*
X172556914Y-129578208D01*
X172604533Y-129482970D01*
X172699771Y-129435351D01*
X172795010Y-129435351D01*
X172890248Y-129911542D01*
X173223581Y-128578208D02*
X172223581Y-128578208D01*
X173175962Y-128578208D02*
X173223581Y-128673446D01*
X173223581Y-128863923D01*
X173175962Y-128959161D01*
X173128343Y-129006780D01*
X173033105Y-129054399D01*
X172747390Y-129054399D01*
X172652152Y-129006780D01*
X172604533Y-128959161D01*
X172556914Y-128863923D01*
X172556914Y-128673446D01*
X172604533Y-128578208D01*
X140493762Y-143295419D02*
X140398524Y-143247800D01*
X140303286Y-143152562D01*
X140160429Y-143009705D01*
X140065190Y-142962086D01*
X139969952Y-142962086D01*
X140017571Y-143200181D02*
X139922333Y-143152562D01*
X139827095Y-143057324D01*
X139779476Y-142866848D01*
X139779476Y-142533514D01*
X139827095Y-142343038D01*
X139922333Y-142247800D01*
X140017571Y-142200181D01*
X140208048Y-142200181D01*
X140303286Y-142247800D01*
X140398524Y-142343038D01*
X140446143Y-142533514D01*
X140446143Y-142866848D01*
X140398524Y-143057324D01*
X140303286Y-143152562D01*
X140208048Y-143200181D01*
X140017571Y-143200181D01*
X140827095Y-142295419D02*
X140874714Y-142247800D01*
X140969952Y-142200181D01*
X141208048Y-142200181D01*
X141303286Y-142247800D01*
X141350905Y-142295419D01*
X141398524Y-142390657D01*
X141398524Y-142485895D01*
X141350905Y-142628752D01*
X140779476Y-143200181D01*
X141398524Y-143200181D01*
X134478995Y-143346314D02*
X134859947Y-143346314D01*
X134621852Y-143012981D02*
X134621852Y-143870124D01*
X134669471Y-143965362D01*
X134764709Y-144012981D01*
X134859947Y-144012981D01*
X135193281Y-144012981D02*
X135193281Y-143346314D01*
X135193281Y-143012981D02*
X135145662Y-143060600D01*
X135193281Y-143108219D01*
X135240900Y-143060600D01*
X135193281Y-143012981D01*
X135193281Y-143108219D01*
X135669471Y-143346314D02*
X135669471Y-144346314D01*
X135669471Y-143393933D02*
X135764709Y-143346314D01*
X135955186Y-143346314D01*
X136050424Y-143393933D01*
X136098043Y-143441552D01*
X136145662Y-143536790D01*
X136145662Y-143822505D01*
X136098043Y-143917743D01*
X136050424Y-143965362D01*
X135955186Y-144012981D01*
X135764709Y-144012981D01*
X135669471Y-143965362D01*
X136478995Y-143012981D02*
X137098043Y-143012981D01*
X136764709Y-143393933D01*
X136907567Y-143393933D01*
X137002805Y-143441552D01*
X137050424Y-143489171D01*
X137098043Y-143584410D01*
X137098043Y-143822505D01*
X137050424Y-143917743D01*
X137002805Y-143965362D01*
X136907567Y-144012981D01*
X136621852Y-144012981D01*
X136526614Y-143965362D01*
X136478995Y-143917743D01*
X138002805Y-143012981D02*
X137526614Y-143012981D01*
X137478995Y-143489171D01*
X137526614Y-143441552D01*
X137621852Y-143393933D01*
X137859948Y-143393933D01*
X137955186Y-143441552D01*
X138002805Y-143489171D01*
X138050424Y-143584410D01*
X138050424Y-143822505D01*
X138002805Y-143917743D01*
X137955186Y-143965362D01*
X137859948Y-144012981D01*
X137621852Y-144012981D01*
X137526614Y-143965362D01*
X137478995Y-143917743D01*
X138907567Y-143965362D02*
X138812329Y-144012981D01*
X138621852Y-144012981D01*
X138526614Y-143965362D01*
X138478995Y-143917743D01*
X138431376Y-143822505D01*
X138431376Y-143536790D01*
X138478995Y-143441552D01*
X138526614Y-143393933D01*
X138621852Y-143346314D01*
X138812329Y-143346314D01*
X138907567Y-143393933D01*
X153728681Y-142241566D02*
X153252490Y-142574900D01*
X153728681Y-142812995D02*
X152728681Y-142812995D01*
X152728681Y-142432042D01*
X152776300Y-142336804D01*
X152823919Y-142289185D01*
X152919157Y-142241566D01*
X153062014Y-142241566D01*
X153157252Y-142289185D01*
X153204871Y-142336804D01*
X153252490Y-142432042D01*
X153252490Y-142812995D01*
X152728681Y-141908233D02*
X152728681Y-141289185D01*
X153109633Y-141622519D01*
X153109633Y-141479661D01*
X153157252Y-141384423D01*
X153204871Y-141336804D01*
X153300110Y-141289185D01*
X153538205Y-141289185D01*
X153633443Y-141336804D01*
X153681062Y-141384423D01*
X153728681Y-141479661D01*
X153728681Y-141765376D01*
X153681062Y-141860614D01*
X153633443Y-141908233D01*
X151607781Y-145718138D02*
X151607781Y-146289567D01*
X151607781Y-146003853D02*
X150607781Y-146003853D01*
X150750638Y-146099091D01*
X150845876Y-146194329D01*
X150893495Y-146289567D01*
X150607781Y-145099091D02*
X150607781Y-145003852D01*
X150655400Y-144908614D01*
X150703019Y-144860995D01*
X150798257Y-144813376D01*
X150988733Y-144765757D01*
X151226829Y-144765757D01*
X151417305Y-144813376D01*
X151512543Y-144860995D01*
X151560162Y-144908614D01*
X151607781Y-145003852D01*
X151607781Y-145099091D01*
X151560162Y-145194329D01*
X151512543Y-145241948D01*
X151417305Y-145289567D01*
X151226829Y-145337186D01*
X150988733Y-145337186D01*
X150798257Y-145289567D01*
X150703019Y-145241948D01*
X150655400Y-145194329D01*
X150607781Y-145099091D01*
X151607781Y-144337186D02*
X150607781Y-144337186D01*
X151226829Y-144241948D02*
X151607781Y-143956233D01*
X150941114Y-143956233D02*
X151322067Y-144337186D01*
X170923981Y-81205766D02*
X170447790Y-81539100D01*
X170923981Y-81777195D02*
X169923981Y-81777195D01*
X169923981Y-81396242D01*
X169971600Y-81301004D01*
X170019219Y-81253385D01*
X170114457Y-81205766D01*
X170257314Y-81205766D01*
X170352552Y-81253385D01*
X170400171Y-81301004D01*
X170447790Y-81396242D01*
X170447790Y-81777195D01*
X170257314Y-80348623D02*
X170923981Y-80348623D01*
X169876362Y-80586719D02*
X170590648Y-80824814D01*
X170590648Y-80205766D01*
X171025581Y-87476385D02*
X171025581Y-88047814D01*
X171025581Y-87762100D02*
X170025581Y-87762100D01*
X170168438Y-87857338D01*
X170263676Y-87952576D01*
X170311295Y-88047814D01*
X171025581Y-87047814D02*
X170025581Y-87047814D01*
X171025581Y-86476385D02*
X170454152Y-86904957D01*
X170025581Y-86476385D02*
X170597010Y-87047814D01*
X143279134Y-91308581D02*
X142945800Y-90832390D01*
X142707705Y-91308581D02*
X142707705Y-90308581D01*
X143088658Y-90308581D01*
X143183896Y-90356200D01*
X143231515Y-90403819D01*
X143279134Y-90499057D01*
X143279134Y-90641914D01*
X143231515Y-90737152D01*
X143183896Y-90784771D01*
X143088658Y-90832390D01*
X142707705Y-90832390D01*
X144183896Y-90308581D02*
X143707705Y-90308581D01*
X143660086Y-90784771D01*
X143707705Y-90737152D01*
X143802943Y-90689533D01*
X144041039Y-90689533D01*
X144136277Y-90737152D01*
X144183896Y-90784771D01*
X144231515Y-90880010D01*
X144231515Y-91118105D01*
X144183896Y-91213343D01*
X144136277Y-91260962D01*
X144041039Y-91308581D01*
X143802943Y-91308581D01*
X143707705Y-91260962D01*
X143660086Y-91213343D01*
X149378315Y-91206981D02*
X148806886Y-91206981D01*
X149092600Y-91206981D02*
X149092600Y-90206981D01*
X148997362Y-90349838D01*
X148902124Y-90445076D01*
X148806886Y-90492695D01*
X149806886Y-91206981D02*
X149806886Y-90206981D01*
X150378315Y-91206981D02*
X149949743Y-90635552D01*
X150378315Y-90206981D02*
X149806886Y-90778410D01*
X165289534Y-67254381D02*
X164956200Y-66778190D01*
X164718105Y-67254381D02*
X164718105Y-66254381D01*
X165099058Y-66254381D01*
X165194296Y-66302000D01*
X165241915Y-66349619D01*
X165289534Y-66444857D01*
X165289534Y-66587714D01*
X165241915Y-66682952D01*
X165194296Y-66730571D01*
X165099058Y-66778190D01*
X164718105Y-66778190D01*
X166146677Y-66254381D02*
X165956200Y-66254381D01*
X165860962Y-66302000D01*
X165813343Y-66349619D01*
X165718105Y-66492476D01*
X165670486Y-66682952D01*
X165670486Y-67063905D01*
X165718105Y-67159143D01*
X165765724Y-67206762D01*
X165860962Y-67254381D01*
X166051439Y-67254381D01*
X166146677Y-67206762D01*
X166194296Y-67159143D01*
X166241915Y-67063905D01*
X166241915Y-66825810D01*
X166194296Y-66730571D01*
X166146677Y-66682952D01*
X166051439Y-66635333D01*
X165860962Y-66635333D01*
X165765724Y-66682952D01*
X165718105Y-66730571D01*
X165670486Y-66825810D01*
X158053762Y-67127381D02*
X157482333Y-67127381D01*
X157768047Y-67127381D02*
X157768047Y-66127381D01*
X157672809Y-66270238D01*
X157577571Y-66365476D01*
X157482333Y-66413095D01*
X158672809Y-66127381D02*
X158768048Y-66127381D01*
X158863286Y-66175000D01*
X158910905Y-66222619D01*
X158958524Y-66317857D01*
X159006143Y-66508333D01*
X159006143Y-66746429D01*
X158958524Y-66936905D01*
X158910905Y-67032143D01*
X158863286Y-67079762D01*
X158768048Y-67127381D01*
X158672809Y-67127381D01*
X158577571Y-67079762D01*
X158529952Y-67032143D01*
X158482333Y-66936905D01*
X158434714Y-66746429D01*
X158434714Y-66508333D01*
X158482333Y-66317857D01*
X158529952Y-66222619D01*
X158577571Y-66175000D01*
X158672809Y-66127381D01*
X159434714Y-67127381D02*
X159434714Y-66127381D01*
X159529952Y-66746429D02*
X159815667Y-67127381D01*
X159815667Y-66460714D02*
X159434714Y-66841667D01*
X156957334Y-110104381D02*
X156624000Y-109628190D01*
X156385905Y-110104381D02*
X156385905Y-109104381D01*
X156766858Y-109104381D01*
X156862096Y-109152000D01*
X156909715Y-109199619D01*
X156957334Y-109294857D01*
X156957334Y-109437714D01*
X156909715Y-109532952D01*
X156862096Y-109580571D01*
X156766858Y-109628190D01*
X156385905Y-109628190D01*
X157290667Y-109104381D02*
X157957334Y-109104381D01*
X157528762Y-110104381D01*
X154763134Y-112136381D02*
X154191705Y-112136381D01*
X154477419Y-112136381D02*
X154477419Y-111136381D01*
X154382181Y-111279238D01*
X154286943Y-111374476D01*
X154191705Y-111422095D01*
X155382181Y-111136381D02*
X155477420Y-111136381D01*
X155572658Y-111184000D01*
X155620277Y-111231619D01*
X155667896Y-111326857D01*
X155715515Y-111517333D01*
X155715515Y-111755429D01*
X155667896Y-111945905D01*
X155620277Y-112041143D01*
X155572658Y-112088762D01*
X155477420Y-112136381D01*
X155382181Y-112136381D01*
X155286943Y-112088762D01*
X155239324Y-112041143D01*
X155191705Y-111945905D01*
X155144086Y-111755429D01*
X155144086Y-111517333D01*
X155191705Y-111326857D01*
X155239324Y-111231619D01*
X155286943Y-111184000D01*
X155382181Y-111136381D01*
X156334562Y-111136381D02*
X156429801Y-111136381D01*
X156525039Y-111184000D01*
X156572658Y-111231619D01*
X156620277Y-111326857D01*
X156667896Y-111517333D01*
X156667896Y-111755429D01*
X156620277Y-111945905D01*
X156572658Y-112041143D01*
X156525039Y-112088762D01*
X156429801Y-112136381D01*
X156334562Y-112136381D01*
X156239324Y-112088762D01*
X156191705Y-112041143D01*
X156144086Y-111945905D01*
X156096467Y-111755429D01*
X156096467Y-111517333D01*
X156144086Y-111326857D01*
X156191705Y-111231619D01*
X156239324Y-111184000D01*
X156334562Y-111136381D01*
X157667896Y-112136381D02*
X157334562Y-111660190D01*
X157096467Y-112136381D02*
X157096467Y-111136381D01*
X157477420Y-111136381D01*
X157572658Y-111184000D01*
X157620277Y-111231619D01*
X157667896Y-111326857D01*
X157667896Y-111469714D01*
X157620277Y-111564952D01*
X157572658Y-111612571D01*
X157477420Y-111660190D01*
X157096467Y-111660190D01*
X148842434Y-75928481D02*
X148509100Y-75452290D01*
X148271005Y-75928481D02*
X148271005Y-74928481D01*
X148651958Y-74928481D01*
X148747196Y-74976100D01*
X148794815Y-75023719D01*
X148842434Y-75118957D01*
X148842434Y-75261814D01*
X148794815Y-75357052D01*
X148747196Y-75404671D01*
X148651958Y-75452290D01*
X148271005Y-75452290D01*
X149413862Y-75357052D02*
X149318624Y-75309433D01*
X149271005Y-75261814D01*
X149223386Y-75166576D01*
X149223386Y-75118957D01*
X149271005Y-75023719D01*
X149318624Y-74976100D01*
X149413862Y-74928481D01*
X149604339Y-74928481D01*
X149699577Y-74976100D01*
X149747196Y-75023719D01*
X149794815Y-75118957D01*
X149794815Y-75166576D01*
X149747196Y-75261814D01*
X149699577Y-75309433D01*
X149604339Y-75357052D01*
X149413862Y-75357052D01*
X149318624Y-75404671D01*
X149271005Y-75452290D01*
X149223386Y-75547529D01*
X149223386Y-75738005D01*
X149271005Y-75833243D01*
X149318624Y-75880862D01*
X149413862Y-75928481D01*
X149604339Y-75928481D01*
X149699577Y-75880862D01*
X149747196Y-75833243D01*
X149794815Y-75738005D01*
X149794815Y-75547529D01*
X149747196Y-75452290D01*
X149699577Y-75404671D01*
X149604339Y-75357052D01*
X148801153Y-73591481D02*
X148229724Y-73591481D01*
X148515438Y-73591481D02*
X148515438Y-72591481D01*
X148420200Y-72734338D01*
X148324962Y-72829576D01*
X148229724Y-72877195D01*
X149229724Y-73591481D02*
X149229724Y-72591481D01*
X149324962Y-73210529D02*
X149610677Y-73591481D01*
X149610677Y-72924814D02*
X149229724Y-73305767D01*
X112405534Y-90266781D02*
X112072200Y-89790590D01*
X111834105Y-90266781D02*
X111834105Y-89266781D01*
X112215058Y-89266781D01*
X112310296Y-89314400D01*
X112357915Y-89362019D01*
X112405534Y-89457257D01*
X112405534Y-89600114D01*
X112357915Y-89695352D01*
X112310296Y-89742971D01*
X112215058Y-89790590D01*
X111834105Y-89790590D01*
X112881724Y-90266781D02*
X113072200Y-90266781D01*
X113167439Y-90219162D01*
X113215058Y-90171543D01*
X113310296Y-90028686D01*
X113357915Y-89838210D01*
X113357915Y-89457257D01*
X113310296Y-89362019D01*
X113262677Y-89314400D01*
X113167439Y-89266781D01*
X112976962Y-89266781D01*
X112881724Y-89314400D01*
X112834105Y-89362019D01*
X112786486Y-89457257D01*
X112786486Y-89695352D01*
X112834105Y-89790590D01*
X112881724Y-89838210D01*
X112976962Y-89885829D01*
X113167439Y-89885829D01*
X113262677Y-89838210D01*
X113310296Y-89790590D01*
X113357915Y-89695352D01*
X118860362Y-90774781D02*
X118288933Y-90774781D01*
X118574647Y-90774781D02*
X118574647Y-89774781D01*
X118479409Y-89917638D01*
X118384171Y-90012876D01*
X118288933Y-90060495D01*
X119288933Y-90774781D02*
X119288933Y-89774781D01*
X119384171Y-90393829D02*
X119669886Y-90774781D01*
X119669886Y-90108114D02*
X119288933Y-90489067D01*
X120241314Y-90203352D02*
X120146076Y-90155733D01*
X120098457Y-90108114D01*
X120050838Y-90012876D01*
X120050838Y-89965257D01*
X120098457Y-89870019D01*
X120146076Y-89822400D01*
X120241314Y-89774781D01*
X120431791Y-89774781D01*
X120527029Y-89822400D01*
X120574648Y-89870019D01*
X120622267Y-89965257D01*
X120622267Y-90012876D01*
X120574648Y-90108114D01*
X120527029Y-90155733D01*
X120431791Y-90203352D01*
X120241314Y-90203352D01*
X120146076Y-90250971D01*
X120098457Y-90298590D01*
X120050838Y-90393829D01*
X120050838Y-90584305D01*
X120098457Y-90679543D01*
X120146076Y-90727162D01*
X120241314Y-90774781D01*
X120431791Y-90774781D01*
X120527029Y-90727162D01*
X120574648Y-90679543D01*
X120622267Y-90584305D01*
X120622267Y-90393829D01*
X120574648Y-90298590D01*
X120527029Y-90250971D01*
X120431791Y-90203352D01*
X133040581Y-121763157D02*
X132564390Y-122096491D01*
X133040581Y-122334586D02*
X132040581Y-122334586D01*
X132040581Y-121953633D01*
X132088200Y-121858395D01*
X132135819Y-121810776D01*
X132231057Y-121763157D01*
X132373914Y-121763157D01*
X132469152Y-121810776D01*
X132516771Y-121858395D01*
X132564390Y-121953633D01*
X132564390Y-122334586D01*
X133040581Y-120810776D02*
X133040581Y-121382205D01*
X133040581Y-121096491D02*
X132040581Y-121096491D01*
X132183438Y-121191729D01*
X132278676Y-121286967D01*
X132326295Y-121382205D01*
X132040581Y-120191729D02*
X132040581Y-120096490D01*
X132088200Y-120001252D01*
X132135819Y-119953633D01*
X132231057Y-119906014D01*
X132421533Y-119858395D01*
X132659629Y-119858395D01*
X132850105Y-119906014D01*
X132945343Y-119953633D01*
X132992962Y-120001252D01*
X133040581Y-120096490D01*
X133040581Y-120191729D01*
X132992962Y-120286967D01*
X132945343Y-120334586D01*
X132850105Y-120382205D01*
X132659629Y-120429824D01*
X132421533Y-120429824D01*
X132231057Y-120382205D01*
X132135819Y-120334586D01*
X132088200Y-120286967D01*
X132040581Y-120191729D01*
X130703781Y-121125047D02*
X130703781Y-121696476D01*
X130703781Y-121410762D02*
X129703781Y-121410762D01*
X129846638Y-121506000D01*
X129941876Y-121601238D01*
X129989495Y-121696476D01*
X130703781Y-120696476D02*
X129703781Y-120696476D01*
X130322829Y-120601238D02*
X130703781Y-120315523D01*
X130037114Y-120315523D02*
X130418067Y-120696476D01*
X133862843Y-62364881D02*
X133529509Y-61888690D01*
X133291414Y-62364881D02*
X133291414Y-61364881D01*
X133672367Y-61364881D01*
X133767605Y-61412500D01*
X133815224Y-61460119D01*
X133862843Y-61555357D01*
X133862843Y-61698214D01*
X133815224Y-61793452D01*
X133767605Y-61841071D01*
X133672367Y-61888690D01*
X133291414Y-61888690D01*
X134815224Y-62364881D02*
X134243795Y-62364881D01*
X134529509Y-62364881D02*
X134529509Y-61364881D01*
X134434271Y-61507738D01*
X134339033Y-61602976D01*
X134243795Y-61650595D01*
X135767605Y-62364881D02*
X135196176Y-62364881D01*
X135481890Y-62364881D02*
X135481890Y-61364881D01*
X135386652Y-61507738D01*
X135291414Y-61602976D01*
X135196176Y-61650595D01*
X132145234Y-64714381D02*
X131573805Y-64714381D01*
X131859519Y-64714381D02*
X131859519Y-63714381D01*
X131764281Y-63857238D01*
X131669043Y-63952476D01*
X131573805Y-64000095D01*
X132764281Y-63714381D02*
X132859520Y-63714381D01*
X132954758Y-63762000D01*
X133002377Y-63809619D01*
X133049996Y-63904857D01*
X133097615Y-64095333D01*
X133097615Y-64333429D01*
X133049996Y-64523905D01*
X133002377Y-64619143D01*
X132954758Y-64666762D01*
X132859520Y-64714381D01*
X132764281Y-64714381D01*
X132669043Y-64666762D01*
X132621424Y-64619143D01*
X132573805Y-64523905D01*
X132526186Y-64333429D01*
X132526186Y-64095333D01*
X132573805Y-63904857D01*
X132621424Y-63809619D01*
X132669043Y-63762000D01*
X132764281Y-63714381D01*
X133716662Y-63714381D02*
X133811901Y-63714381D01*
X133907139Y-63762000D01*
X133954758Y-63809619D01*
X134002377Y-63904857D01*
X134049996Y-64095333D01*
X134049996Y-64333429D01*
X134002377Y-64523905D01*
X133954758Y-64619143D01*
X133907139Y-64666762D01*
X133811901Y-64714381D01*
X133716662Y-64714381D01*
X133621424Y-64666762D01*
X133573805Y-64619143D01*
X133526186Y-64523905D01*
X133478567Y-64333429D01*
X133478567Y-64095333D01*
X133526186Y-63904857D01*
X133573805Y-63809619D01*
X133621424Y-63762000D01*
X133716662Y-63714381D01*
X135049996Y-64714381D02*
X134716662Y-64238190D01*
X134478567Y-64714381D02*
X134478567Y-63714381D01*
X134859520Y-63714381D01*
X134954758Y-63762000D01*
X135002377Y-63809619D01*
X135049996Y-63904857D01*
X135049996Y-64047714D01*
X135002377Y-64142952D01*
X134954758Y-64190571D01*
X134859520Y-64238190D01*
X134478567Y-64238190D01*
X127790501Y-75021677D02*
X127314310Y-75355011D01*
X127790501Y-75593106D02*
X126790501Y-75593106D01*
X126790501Y-75212153D01*
X126838120Y-75116915D01*
X126885739Y-75069296D01*
X126980977Y-75021677D01*
X127123834Y-75021677D01*
X127219072Y-75069296D01*
X127266691Y-75116915D01*
X127314310Y-75212153D01*
X127314310Y-75593106D01*
X127790501Y-74069296D02*
X127790501Y-74640725D01*
X127790501Y-74355011D02*
X126790501Y-74355011D01*
X126933358Y-74450249D01*
X127028596Y-74545487D01*
X127076215Y-74640725D01*
X126885739Y-73688344D02*
X126838120Y-73640725D01*
X126790501Y-73545487D01*
X126790501Y-73307391D01*
X126838120Y-73212153D01*
X126885739Y-73164534D01*
X126980977Y-73116915D01*
X127076215Y-73116915D01*
X127219072Y-73164534D01*
X127790501Y-73735963D01*
X127790501Y-73116915D01*
X123290181Y-75534486D02*
X123290181Y-74867819D01*
X124290181Y-75296391D01*
X124290181Y-74486867D02*
X123290181Y-74486867D01*
X123909229Y-74391629D02*
X124290181Y-74105914D01*
X123623514Y-74105914D02*
X124004467Y-74486867D01*
X123290181Y-73248771D02*
X123290181Y-73439248D01*
X123337800Y-73534486D01*
X123385419Y-73582105D01*
X123528276Y-73677343D01*
X123718752Y-73724962D01*
X124099705Y-73724962D01*
X124194943Y-73677343D01*
X124242562Y-73629724D01*
X124290181Y-73534486D01*
X124290181Y-73344009D01*
X124242562Y-73248771D01*
X124194943Y-73201152D01*
X124099705Y-73153533D01*
X123861610Y-73153533D01*
X123766371Y-73201152D01*
X123718752Y-73248771D01*
X123671133Y-73344009D01*
X123671133Y-73534486D01*
X123718752Y-73629724D01*
X123766371Y-73677343D01*
X123861610Y-73724962D01*
X164319981Y-107475257D02*
X163843790Y-107808591D01*
X164319981Y-108046686D02*
X163319981Y-108046686D01*
X163319981Y-107665733D01*
X163367600Y-107570495D01*
X163415219Y-107522876D01*
X163510457Y-107475257D01*
X163653314Y-107475257D01*
X163748552Y-107522876D01*
X163796171Y-107570495D01*
X163843790Y-107665733D01*
X163843790Y-108046686D01*
X164319981Y-106522876D02*
X164319981Y-107094305D01*
X164319981Y-106808591D02*
X163319981Y-106808591D01*
X163462838Y-106903829D01*
X163558076Y-106999067D01*
X163605695Y-107094305D01*
X163319981Y-106189543D02*
X163319981Y-105570495D01*
X163700933Y-105903829D01*
X163700933Y-105760971D01*
X163748552Y-105665733D01*
X163796171Y-105618114D01*
X163891410Y-105570495D01*
X164129505Y-105570495D01*
X164224743Y-105618114D01*
X164272362Y-105665733D01*
X164319981Y-105760971D01*
X164319981Y-106046686D01*
X164272362Y-106141924D01*
X164224743Y-106189543D01*
X164040581Y-99661647D02*
X164040581Y-100233076D01*
X164040581Y-99947362D02*
X163040581Y-99947362D01*
X163183438Y-100042600D01*
X163278676Y-100137838D01*
X163326295Y-100233076D01*
X164040581Y-99233076D02*
X163040581Y-99233076D01*
X163659629Y-99137838D02*
X164040581Y-98852123D01*
X163373914Y-98852123D02*
X163754867Y-99233076D01*
X148483581Y-114371857D02*
X148007390Y-114705191D01*
X148483581Y-114943286D02*
X147483581Y-114943286D01*
X147483581Y-114562333D01*
X147531200Y-114467095D01*
X147578819Y-114419476D01*
X147674057Y-114371857D01*
X147816914Y-114371857D01*
X147912152Y-114419476D01*
X147959771Y-114467095D01*
X148007390Y-114562333D01*
X148007390Y-114943286D01*
X148483581Y-113419476D02*
X148483581Y-113990905D01*
X148483581Y-113705191D02*
X147483581Y-113705191D01*
X147626438Y-113800429D01*
X147721676Y-113895667D01*
X147769295Y-113990905D01*
X147816914Y-112562333D02*
X148483581Y-112562333D01*
X147435962Y-112800429D02*
X148150248Y-113038524D01*
X148150248Y-112419476D01*
X146248381Y-113721047D02*
X146248381Y-114292476D01*
X146248381Y-114006762D02*
X145248381Y-114006762D01*
X145391238Y-114102000D01*
X145486476Y-114197238D01*
X145534095Y-114292476D01*
X146248381Y-113292476D02*
X145248381Y-113292476D01*
X145867429Y-113197238D02*
X146248381Y-112911523D01*
X145581714Y-112911523D02*
X145962667Y-113292476D01*
X98520381Y-68071905D02*
X98520381Y-67500476D01*
X99520381Y-67786191D02*
X98520381Y-67786191D01*
X99520381Y-66643333D02*
X99520381Y-67214762D01*
X99520381Y-66929048D02*
X98520381Y-66929048D01*
X98663238Y-67024286D01*
X98758476Y-67119524D01*
X98806095Y-67214762D01*
X92569447Y-70835781D02*
X91998018Y-70835781D01*
X92283732Y-70835781D02*
X92283732Y-69835781D01*
X92188494Y-69978638D01*
X92093256Y-70073876D01*
X91998018Y-70121495D01*
X92950399Y-69931019D02*
X92998018Y-69883400D01*
X93093256Y-69835781D01*
X93331352Y-69835781D01*
X93426590Y-69883400D01*
X93474209Y-69931019D01*
X93521828Y-70026257D01*
X93521828Y-70121495D01*
X93474209Y-70264352D01*
X92902780Y-70835781D01*
X93521828Y-70835781D01*
X93855161Y-70169114D02*
X94093256Y-70835781D01*
X94331352Y-70169114D01*
X95140876Y-70835781D02*
X95140876Y-70311971D01*
X95093257Y-70216733D01*
X94998019Y-70169114D01*
X94807542Y-70169114D01*
X94712304Y-70216733D01*
X95140876Y-70788162D02*
X95045638Y-70835781D01*
X94807542Y-70835781D01*
X94712304Y-70788162D01*
X94664685Y-70692924D01*
X94664685Y-70597686D01*
X94712304Y-70502448D01*
X94807542Y-70454829D01*
X95045638Y-70454829D01*
X95140876Y-70407210D01*
X96045638Y-70788162D02*
X95950400Y-70835781D01*
X95759923Y-70835781D01*
X95664685Y-70788162D01*
X95617066Y-70740543D01*
X95569447Y-70645305D01*
X95569447Y-70359590D01*
X95617066Y-70264352D01*
X95664685Y-70216733D01*
X95759923Y-70169114D01*
X95950400Y-70169114D01*
X96045638Y-70216733D01*
X97093257Y-70169114D02*
X97474209Y-70169114D01*
X97236114Y-69835781D02*
X97236114Y-70692924D01*
X97283733Y-70788162D01*
X97378971Y-70835781D01*
X97474209Y-70835781D01*
X97807543Y-70835781D02*
X97807543Y-70169114D01*
X97807543Y-70359590D02*
X97855162Y-70264352D01*
X97902781Y-70216733D01*
X97998019Y-70169114D01*
X98093258Y-70169114D01*
X98855163Y-70835781D02*
X98855163Y-70311971D01*
X98807544Y-70216733D01*
X98712306Y-70169114D01*
X98521829Y-70169114D01*
X98426591Y-70216733D01*
X98855163Y-70788162D02*
X98759925Y-70835781D01*
X98521829Y-70835781D01*
X98426591Y-70788162D01*
X98378972Y-70692924D01*
X98378972Y-70597686D01*
X98426591Y-70502448D01*
X98521829Y-70454829D01*
X98759925Y-70454829D01*
X98855163Y-70407210D01*
X99331353Y-70169114D02*
X99331353Y-70835781D01*
X99331353Y-70264352D02*
X99378972Y-70216733D01*
X99474210Y-70169114D01*
X99617068Y-70169114D01*
X99712306Y-70216733D01*
X99759925Y-70311971D01*
X99759925Y-70835781D01*
X100188496Y-70788162D02*
X100283734Y-70835781D01*
X100474210Y-70835781D01*
X100569449Y-70788162D01*
X100617068Y-70692924D01*
X100617068Y-70645305D01*
X100569449Y-70550067D01*
X100474210Y-70502448D01*
X100331353Y-70502448D01*
X100236115Y-70454829D01*
X100188496Y-70359590D01*
X100188496Y-70311971D01*
X100236115Y-70216733D01*
X100331353Y-70169114D01*
X100474210Y-70169114D01*
X100569449Y-70216733D01*
X100902782Y-70169114D02*
X101283734Y-70169114D01*
X101045639Y-70835781D02*
X101045639Y-69978638D01*
X101093258Y-69883400D01*
X101188496Y-69835781D01*
X101283734Y-69835781D01*
X101759925Y-70835781D02*
X101664687Y-70788162D01*
X101617068Y-70740543D01*
X101569449Y-70645305D01*
X101569449Y-70359590D01*
X101617068Y-70264352D01*
X101664687Y-70216733D01*
X101759925Y-70169114D01*
X101902783Y-70169114D01*
X101998021Y-70216733D01*
X102045640Y-70264352D01*
X102093259Y-70359590D01*
X102093259Y-70645305D01*
X102045640Y-70740543D01*
X101998021Y-70788162D01*
X101902783Y-70835781D01*
X101759925Y-70835781D01*
X102521830Y-70835781D02*
X102521830Y-70169114D01*
X102521830Y-70359590D02*
X102569449Y-70264352D01*
X102617068Y-70216733D01*
X102712306Y-70169114D01*
X102807545Y-70169114D01*
X103140878Y-70835781D02*
X103140878Y-70169114D01*
X103140878Y-70264352D02*
X103188497Y-70216733D01*
X103283735Y-70169114D01*
X103426593Y-70169114D01*
X103521831Y-70216733D01*
X103569450Y-70311971D01*
X103569450Y-70835781D01*
X103569450Y-70311971D02*
X103617069Y-70216733D01*
X103712307Y-70169114D01*
X103855164Y-70169114D01*
X103950402Y-70216733D01*
X103998021Y-70311971D01*
X103998021Y-70835781D01*
X104855164Y-70788162D02*
X104759926Y-70835781D01*
X104569449Y-70835781D01*
X104474211Y-70788162D01*
X104426592Y-70692924D01*
X104426592Y-70311971D01*
X104474211Y-70216733D01*
X104569449Y-70169114D01*
X104759926Y-70169114D01*
X104855164Y-70216733D01*
X104902783Y-70311971D01*
X104902783Y-70407210D01*
X104426592Y-70502448D01*
X89139781Y-117663065D02*
X89949305Y-117663065D01*
X90044543Y-117615446D01*
X90092162Y-117567827D01*
X90139781Y-117472589D01*
X90139781Y-117282112D01*
X90092162Y-117186874D01*
X90044543Y-117139255D01*
X89949305Y-117091636D01*
X89139781Y-117091636D01*
X90139781Y-116091636D02*
X90139781Y-116663065D01*
X90139781Y-116377351D02*
X89139781Y-116377351D01*
X89282638Y-116472589D01*
X89377876Y-116567827D01*
X89425495Y-116663065D01*
X98577661Y-118668406D02*
X97910994Y-118668406D01*
X97577661Y-118668406D02*
X97625280Y-118716025D01*
X97672899Y-118668406D01*
X97625280Y-118620787D01*
X97577661Y-118668406D01*
X97672899Y-118668406D01*
X98577661Y-118192216D02*
X97910994Y-118192216D01*
X98101470Y-118192216D02*
X98006232Y-118144597D01*
X97958613Y-118096978D01*
X97910994Y-118001740D01*
X97910994Y-117906501D01*
X97672899Y-117620787D02*
X97625280Y-117573168D01*
X97577661Y-117477930D01*
X97577661Y-117239834D01*
X97625280Y-117144596D01*
X97672899Y-117096977D01*
X97768137Y-117049358D01*
X97863375Y-117049358D01*
X98006232Y-117096977D01*
X98577661Y-117668406D01*
X98577661Y-117049358D01*
X98577661Y-116096977D02*
X98577661Y-116668406D01*
X98577661Y-116382692D02*
X97577661Y-116382692D01*
X97720518Y-116477930D01*
X97815756Y-116573168D01*
X97863375Y-116668406D01*
X98577661Y-115144596D02*
X98577661Y-115716025D01*
X98577661Y-115430311D02*
X97577661Y-115430311D01*
X97720518Y-115525549D01*
X97815756Y-115620787D01*
X97863375Y-115716025D01*
X97577661Y-114525549D02*
X97577661Y-114430310D01*
X97625280Y-114335072D01*
X97672899Y-114287453D01*
X97768137Y-114239834D01*
X97958613Y-114192215D01*
X98196709Y-114192215D01*
X98387185Y-114239834D01*
X98482423Y-114287453D01*
X98530042Y-114335072D01*
X98577661Y-114430310D01*
X98577661Y-114525549D01*
X98530042Y-114620787D01*
X98482423Y-114668406D01*
X98387185Y-114716025D01*
X98196709Y-114763644D01*
X97958613Y-114763644D01*
X97768137Y-114716025D01*
X97672899Y-114668406D01*
X97625280Y-114620787D01*
X97577661Y-114525549D01*
X88692741Y-99949305D02*
X89502265Y-99949305D01*
X89597503Y-99901686D01*
X89645122Y-99854067D01*
X89692741Y-99758829D01*
X89692741Y-99568352D01*
X89645122Y-99473114D01*
X89597503Y-99425495D01*
X89502265Y-99377876D01*
X88692741Y-99377876D01*
X88787979Y-98949305D02*
X88740360Y-98901686D01*
X88692741Y-98806448D01*
X88692741Y-98568352D01*
X88740360Y-98473114D01*
X88787979Y-98425495D01*
X88883217Y-98377876D01*
X88978455Y-98377876D01*
X89121312Y-98425495D01*
X89692741Y-98996924D01*
X89692741Y-98377876D01*
X94721941Y-98440046D02*
X94055274Y-98440046D01*
X93721941Y-98440046D02*
X93769560Y-98487665D01*
X93817179Y-98440046D01*
X93769560Y-98392427D01*
X93721941Y-98440046D01*
X93817179Y-98440046D01*
X94721941Y-97963856D02*
X94055274Y-97963856D01*
X94245750Y-97963856D02*
X94150512Y-97916237D01*
X94102893Y-97868618D01*
X94055274Y-97773380D01*
X94055274Y-97678141D01*
X93817179Y-97392427D02*
X93769560Y-97344808D01*
X93721941Y-97249570D01*
X93721941Y-97011474D01*
X93769560Y-96916236D01*
X93817179Y-96868617D01*
X93912417Y-96820998D01*
X94007655Y-96820998D01*
X94150512Y-96868617D01*
X94721941Y-97440046D01*
X94721941Y-96820998D01*
X94721941Y-95868617D02*
X94721941Y-96440046D01*
X94721941Y-96154332D02*
X93721941Y-96154332D01*
X93864798Y-96249570D01*
X93960036Y-96344808D01*
X94007655Y-96440046D01*
X94721941Y-94916236D02*
X94721941Y-95487665D01*
X94721941Y-95201951D02*
X93721941Y-95201951D01*
X93864798Y-95297189D01*
X93960036Y-95392427D01*
X94007655Y-95487665D01*
X93721941Y-94297189D02*
X93721941Y-94201950D01*
X93769560Y-94106712D01*
X93817179Y-94059093D01*
X93912417Y-94011474D01*
X94102893Y-93963855D01*
X94340989Y-93963855D01*
X94531465Y-94011474D01*
X94626703Y-94059093D01*
X94674322Y-94106712D01*
X94721941Y-94201950D01*
X94721941Y-94297189D01*
X94674322Y-94392427D01*
X94626703Y-94440046D01*
X94531465Y-94487665D01*
X94340989Y-94535284D01*
X94102893Y-94535284D01*
X93912417Y-94487665D01*
X93817179Y-94440046D01*
X93769560Y-94392427D01*
X93721941Y-94297189D01*
X136817395Y-106779681D02*
X136817395Y-107589205D01*
X136865014Y-107684443D01*
X136912633Y-107732062D01*
X137007871Y-107779681D01*
X137198348Y-107779681D01*
X137293586Y-107732062D01*
X137341205Y-107684443D01*
X137388824Y-107589205D01*
X137388824Y-106779681D01*
X137769776Y-106779681D02*
X138388824Y-106779681D01*
X138055490Y-107160633D01*
X138198348Y-107160633D01*
X138293586Y-107208252D01*
X138341205Y-107255871D01*
X138388824Y-107351110D01*
X138388824Y-107589205D01*
X138341205Y-107684443D01*
X138293586Y-107732062D01*
X138198348Y-107779681D01*
X137912633Y-107779681D01*
X137817395Y-107732062D01*
X137769776Y-107684443D01*
X134645590Y-104655352D02*
X134550352Y-104607733D01*
X134502733Y-104560114D01*
X134455114Y-104464876D01*
X134455114Y-104417257D01*
X134502733Y-104322019D01*
X134550352Y-104274400D01*
X134645590Y-104226781D01*
X134836067Y-104226781D01*
X134931305Y-104274400D01*
X134978924Y-104322019D01*
X135026543Y-104417257D01*
X135026543Y-104464876D01*
X134978924Y-104560114D01*
X134931305Y-104607733D01*
X134836067Y-104655352D01*
X134645590Y-104655352D01*
X134550352Y-104702971D01*
X134502733Y-104750590D01*
X134455114Y-104845829D01*
X134455114Y-105036305D01*
X134502733Y-105131543D01*
X134550352Y-105179162D01*
X134645590Y-105226781D01*
X134836067Y-105226781D01*
X134931305Y-105179162D01*
X134978924Y-105131543D01*
X135026543Y-105036305D01*
X135026543Y-104845829D01*
X134978924Y-104750590D01*
X134931305Y-104702971D01*
X134836067Y-104655352D01*
X135645590Y-104226781D02*
X135740829Y-104226781D01*
X135836067Y-104274400D01*
X135883686Y-104322019D01*
X135931305Y-104417257D01*
X135978924Y-104607733D01*
X135978924Y-104845829D01*
X135931305Y-105036305D01*
X135883686Y-105131543D01*
X135836067Y-105179162D01*
X135740829Y-105226781D01*
X135645590Y-105226781D01*
X135550352Y-105179162D01*
X135502733Y-105131543D01*
X135455114Y-105036305D01*
X135407495Y-104845829D01*
X135407495Y-104607733D01*
X135455114Y-104417257D01*
X135502733Y-104322019D01*
X135550352Y-104274400D01*
X135645590Y-104226781D01*
X136931305Y-105226781D02*
X136359876Y-105226781D01*
X136645590Y-105226781D02*
X136645590Y-104226781D01*
X136550352Y-104369638D01*
X136455114Y-104464876D01*
X136359876Y-104512495D01*
X137550352Y-104226781D02*
X137645591Y-104226781D01*
X137740829Y-104274400D01*
X137788448Y-104322019D01*
X137836067Y-104417257D01*
X137883686Y-104607733D01*
X137883686Y-104845829D01*
X137836067Y-105036305D01*
X137788448Y-105131543D01*
X137740829Y-105179162D01*
X137645591Y-105226781D01*
X137550352Y-105226781D01*
X137455114Y-105179162D01*
X137407495Y-105131543D01*
X137359876Y-105036305D01*
X137312257Y-104845829D01*
X137312257Y-104607733D01*
X137359876Y-104417257D01*
X137407495Y-104322019D01*
X137455114Y-104274400D01*
X137550352Y-104226781D01*
X112561714Y-86229296D02*
X113228381Y-85991201D01*
X112561714Y-85753105D01*
X113228381Y-85229296D02*
X113180762Y-85324534D01*
X113133143Y-85372153D01*
X113037905Y-85419772D01*
X112752190Y-85419772D01*
X112656952Y-85372153D01*
X112609333Y-85324534D01*
X112561714Y-85229296D01*
X112561714Y-85086438D01*
X112609333Y-84991200D01*
X112656952Y-84943581D01*
X112752190Y-84895962D01*
X113037905Y-84895962D01*
X113133143Y-84943581D01*
X113180762Y-84991200D01*
X113228381Y-85086438D01*
X113228381Y-85229296D01*
X113228381Y-84324534D02*
X113180762Y-84419772D01*
X113085524Y-84467391D01*
X112228381Y-84467391D01*
X112561714Y-84086438D02*
X112561714Y-83705486D01*
X112228381Y-83943581D02*
X113085524Y-83943581D01*
X113180762Y-83895962D01*
X113228381Y-83800724D01*
X113228381Y-83705486D01*
X113228381Y-82943580D02*
X112704571Y-82943580D01*
X112609333Y-82991199D01*
X112561714Y-83086437D01*
X112561714Y-83276914D01*
X112609333Y-83372152D01*
X113180762Y-82943580D02*
X113228381Y-83038818D01*
X113228381Y-83276914D01*
X113180762Y-83372152D01*
X113085524Y-83419771D01*
X112990286Y-83419771D01*
X112895048Y-83372152D01*
X112847429Y-83276914D01*
X112847429Y-83038818D01*
X112799810Y-82943580D01*
X112561714Y-82038818D02*
X113371238Y-82038818D01*
X113466476Y-82086437D01*
X113514095Y-82134056D01*
X113561714Y-82229295D01*
X113561714Y-82372152D01*
X113514095Y-82467390D01*
X113180762Y-82038818D02*
X113228381Y-82134056D01*
X113228381Y-82324533D01*
X113180762Y-82419771D01*
X113133143Y-82467390D01*
X113037905Y-82515009D01*
X112752190Y-82515009D01*
X112656952Y-82467390D01*
X112609333Y-82419771D01*
X112561714Y-82324533D01*
X112561714Y-82134056D01*
X112609333Y-82038818D01*
X113180762Y-81181675D02*
X113228381Y-81276913D01*
X113228381Y-81467390D01*
X113180762Y-81562628D01*
X113085524Y-81610247D01*
X112704571Y-81610247D01*
X112609333Y-81562628D01*
X112561714Y-81467390D01*
X112561714Y-81276913D01*
X112609333Y-81181675D01*
X112704571Y-81134056D01*
X112799810Y-81134056D01*
X112895048Y-81610247D01*
X113228381Y-80562628D02*
X113180762Y-80657866D01*
X113133143Y-80705485D01*
X113037905Y-80753104D01*
X112752190Y-80753104D01*
X112656952Y-80705485D01*
X112609333Y-80657866D01*
X112561714Y-80562628D01*
X112561714Y-80419770D01*
X112609333Y-80324532D01*
X112656952Y-80276913D01*
X112752190Y-80229294D01*
X113037905Y-80229294D01*
X113133143Y-80276913D01*
X113180762Y-80324532D01*
X113228381Y-80419770D01*
X113228381Y-80562628D01*
X112561714Y-79372151D02*
X113228381Y-79372151D01*
X112561714Y-79800723D02*
X113085524Y-79800723D01*
X113180762Y-79753104D01*
X113228381Y-79657866D01*
X113228381Y-79515008D01*
X113180762Y-79419770D01*
X113133143Y-79372151D01*
X112561714Y-79038818D02*
X112561714Y-78657866D01*
X112228381Y-78895961D02*
X113085524Y-78895961D01*
X113180762Y-78848342D01*
X113228381Y-78753104D01*
X113228381Y-78657866D01*
X113228381Y-77800722D02*
X113228381Y-78372151D01*
X113228381Y-78086437D02*
X112228381Y-78086437D01*
X112371238Y-78181675D01*
X112466476Y-78276913D01*
X112514095Y-78372151D01*
X118979701Y-80485169D02*
X118979701Y-80961360D01*
X119455891Y-81008979D01*
X119408272Y-80961360D01*
X119360653Y-80866122D01*
X119360653Y-80628026D01*
X119408272Y-80532788D01*
X119455891Y-80485169D01*
X119551130Y-80437550D01*
X119789225Y-80437550D01*
X119884463Y-80485169D01*
X119932082Y-80532788D01*
X119979701Y-80628026D01*
X119979701Y-80866122D01*
X119932082Y-80961360D01*
X119884463Y-81008979D01*
X118979701Y-79818503D02*
X118979701Y-79723264D01*
X119027320Y-79628026D01*
X119074939Y-79580407D01*
X119170177Y-79532788D01*
X119360653Y-79485169D01*
X119598749Y-79485169D01*
X119789225Y-79532788D01*
X119884463Y-79580407D01*
X119932082Y-79628026D01*
X119979701Y-79723264D01*
X119979701Y-79818503D01*
X119932082Y-79913741D01*
X119884463Y-79961360D01*
X119789225Y-80008979D01*
X119598749Y-80056598D01*
X119360653Y-80056598D01*
X119170177Y-80008979D01*
X119074939Y-79961360D01*
X119027320Y-79913741D01*
X118979701Y-79818503D01*
X118979701Y-78866122D02*
X118979701Y-78770883D01*
X119027320Y-78675645D01*
X119074939Y-78628026D01*
X119170177Y-78580407D01*
X119360653Y-78532788D01*
X119598749Y-78532788D01*
X119789225Y-78580407D01*
X119884463Y-78628026D01*
X119932082Y-78675645D01*
X119979701Y-78770883D01*
X119979701Y-78866122D01*
X119932082Y-78961360D01*
X119884463Y-79008979D01*
X119789225Y-79056598D01*
X119598749Y-79104217D01*
X119360653Y-79104217D01*
X119170177Y-79056598D01*
X119074939Y-79008979D01*
X119027320Y-78961360D01*
X118979701Y-78866122D01*
X119979701Y-78104217D02*
X119313034Y-78104217D01*
X119503510Y-78104217D02*
X119408272Y-78056598D01*
X119360653Y-78008979D01*
X119313034Y-77913741D01*
X119313034Y-77818502D01*
X151728190Y-83572291D02*
X152204381Y-83572291D01*
X151204381Y-83905624D02*
X151728190Y-83572291D01*
X151204381Y-83238957D01*
X152204381Y-82381814D02*
X152204381Y-82953243D01*
X152204381Y-82667529D02*
X151204381Y-82667529D01*
X151347238Y-82762767D01*
X151442476Y-82858005D01*
X151490095Y-82953243D01*
X145155881Y-87796096D02*
X145155881Y-88367525D01*
X145155881Y-88081811D02*
X144155881Y-88081811D01*
X144298738Y-88177049D01*
X144393976Y-88272287D01*
X144441595Y-88367525D01*
X144251119Y-87415144D02*
X144203500Y-87367525D01*
X144155881Y-87272287D01*
X144155881Y-87034191D01*
X144203500Y-86938953D01*
X144251119Y-86891334D01*
X144346357Y-86843715D01*
X144441595Y-86843715D01*
X144584452Y-86891334D01*
X145155881Y-87462763D01*
X145155881Y-86843715D01*
X145155881Y-86415144D02*
X144155881Y-86415144D01*
X144870167Y-86081810D01*
X144155881Y-85748477D01*
X145155881Y-85748477D01*
X145155881Y-85272287D02*
X144155881Y-85272287D01*
X144632071Y-85272287D02*
X144632071Y-84700858D01*
X145155881Y-84700858D02*
X144155881Y-84700858D01*
X144155881Y-84319906D02*
X144155881Y-83653239D01*
X145155881Y-84319906D01*
X145155881Y-83653239D01*
X145060643Y-81938953D02*
X145108262Y-81986572D01*
X145155881Y-82129429D01*
X145155881Y-82224667D01*
X145108262Y-82367525D01*
X145013024Y-82462763D01*
X144917786Y-82510382D01*
X144727310Y-82558001D01*
X144584452Y-82558001D01*
X144393976Y-82510382D01*
X144298738Y-82462763D01*
X144203500Y-82367525D01*
X144155881Y-82224667D01*
X144155881Y-82129429D01*
X144203500Y-81986572D01*
X144251119Y-81938953D01*
X145155881Y-81510382D02*
X144489214Y-81510382D01*
X144679690Y-81510382D02*
X144584452Y-81462763D01*
X144536833Y-81415144D01*
X144489214Y-81319906D01*
X144489214Y-81224667D01*
X144489214Y-80986572D02*
X145155881Y-80748477D01*
X144489214Y-80510381D02*
X145155881Y-80748477D01*
X145393976Y-80843715D01*
X145441595Y-80891334D01*
X145489214Y-80986572D01*
X145108262Y-80177048D02*
X145155881Y-80081810D01*
X145155881Y-79891334D01*
X145108262Y-79796095D01*
X145013024Y-79748476D01*
X144965405Y-79748476D01*
X144870167Y-79796095D01*
X144822548Y-79891334D01*
X144822548Y-80034191D01*
X144774929Y-80129429D01*
X144679690Y-80177048D01*
X144632071Y-80177048D01*
X144536833Y-80129429D01*
X144489214Y-80034191D01*
X144489214Y-79891334D01*
X144536833Y-79796095D01*
X144489214Y-79462762D02*
X144489214Y-79081810D01*
X144155881Y-79319905D02*
X145013024Y-79319905D01*
X145108262Y-79272286D01*
X145155881Y-79177048D01*
X145155881Y-79081810D01*
X145155881Y-78319904D02*
X144632071Y-78319904D01*
X144536833Y-78367523D01*
X144489214Y-78462761D01*
X144489214Y-78653238D01*
X144536833Y-78748476D01*
X145108262Y-78319904D02*
X145155881Y-78415142D01*
X145155881Y-78653238D01*
X145108262Y-78748476D01*
X145013024Y-78796095D01*
X144917786Y-78796095D01*
X144822548Y-78748476D01*
X144774929Y-78653238D01*
X144774929Y-78415142D01*
X144727310Y-78319904D01*
X145155881Y-77700857D02*
X145108262Y-77796095D01*
X145013024Y-77843714D01*
X144155881Y-77843714D01*
X77522343Y-75077557D02*
X77569962Y-75125176D01*
X77617581Y-75268033D01*
X77617581Y-75363271D01*
X77569962Y-75506129D01*
X77474724Y-75601367D01*
X77379486Y-75648986D01*
X77189010Y-75696605D01*
X77046152Y-75696605D01*
X76855676Y-75648986D01*
X76760438Y-75601367D01*
X76665200Y-75506129D01*
X76617581Y-75363271D01*
X76617581Y-75268033D01*
X76665200Y-75125176D01*
X76712819Y-75077557D01*
X76712819Y-74696605D02*
X76665200Y-74648986D01*
X76617581Y-74553748D01*
X76617581Y-74315652D01*
X76665200Y-74220414D01*
X76712819Y-74172795D01*
X76808057Y-74125176D01*
X76903295Y-74125176D01*
X77046152Y-74172795D01*
X77617581Y-74744224D01*
X77617581Y-74125176D01*
X76617581Y-73791843D02*
X76617581Y-73172795D01*
X76998533Y-73506129D01*
X76998533Y-73363271D01*
X77046152Y-73268033D01*
X77093771Y-73220414D01*
X77189010Y-73172795D01*
X77427105Y-73172795D01*
X77522343Y-73220414D01*
X77569962Y-73268033D01*
X77617581Y-73363271D01*
X77617581Y-73648986D01*
X77569962Y-73744224D01*
X77522343Y-73791843D01*
X82973919Y-75509310D02*
X82926300Y-75461691D01*
X82878681Y-75366453D01*
X82878681Y-75128357D01*
X82926300Y-75033119D01*
X82973919Y-74985500D01*
X83069157Y-74937881D01*
X83164395Y-74937881D01*
X83307252Y-74985500D01*
X83878681Y-75556929D01*
X83878681Y-74937881D01*
X83212014Y-74080738D02*
X83878681Y-74080738D01*
X83212014Y-74509310D02*
X83735824Y-74509310D01*
X83831062Y-74461691D01*
X83878681Y-74366453D01*
X83878681Y-74223595D01*
X83831062Y-74128357D01*
X83783443Y-74080738D01*
X83212014Y-73747405D02*
X83212014Y-73366453D01*
X83878681Y-73604548D02*
X83021538Y-73604548D01*
X82926300Y-73556929D01*
X82878681Y-73461691D01*
X82878681Y-73366453D01*
X108509095Y-140955381D02*
X108509095Y-141764905D01*
X108556714Y-141860143D01*
X108604333Y-141907762D01*
X108699571Y-141955381D01*
X108890048Y-141955381D01*
X108985286Y-141907762D01*
X109032905Y-141860143D01*
X109080524Y-141764905D01*
X109080524Y-140955381D01*
X109985286Y-141288714D02*
X109985286Y-141955381D01*
X109747190Y-140907762D02*
X109509095Y-141622048D01*
X110128143Y-141622048D01*
X102001000Y-134097381D02*
X102334333Y-135097381D01*
X102667667Y-134097381D01*
X103191476Y-134097381D02*
X103381953Y-134097381D01*
X103477191Y-134145000D01*
X103572429Y-134240238D01*
X103620048Y-134430714D01*
X103620048Y-134764048D01*
X103572429Y-134954524D01*
X103477191Y-135049762D01*
X103381953Y-135097381D01*
X103191476Y-135097381D01*
X103096238Y-135049762D01*
X103001000Y-134954524D01*
X102953381Y-134764048D01*
X102953381Y-134430714D01*
X103001000Y-134240238D01*
X103096238Y-134145000D01*
X103191476Y-134097381D01*
X104524810Y-135097381D02*
X104048619Y-135097381D01*
X104048619Y-134097381D01*
X104715286Y-134097381D02*
X105286715Y-134097381D01*
X105001000Y-135097381D02*
X105001000Y-134097381D01*
X105572429Y-134811667D02*
X106048620Y-134811667D01*
X105477191Y-135097381D02*
X105810524Y-134097381D01*
X106143858Y-135097381D01*
X107001001Y-134145000D02*
X106905763Y-134097381D01*
X106762906Y-134097381D01*
X106620048Y-134145000D01*
X106524810Y-134240238D01*
X106477191Y-134335476D01*
X106429572Y-134525952D01*
X106429572Y-134668810D01*
X106477191Y-134859286D01*
X106524810Y-134954524D01*
X106620048Y-135049762D01*
X106762906Y-135097381D01*
X106858144Y-135097381D01*
X107001001Y-135049762D01*
X107048620Y-135002143D01*
X107048620Y-134668810D01*
X106858144Y-134668810D01*
X107477191Y-134573571D02*
X107810525Y-134573571D01*
X107953382Y-135097381D02*
X107477191Y-135097381D01*
X107477191Y-134097381D01*
X107953382Y-134097381D01*
X108381953Y-135097381D02*
X108381953Y-134097381D01*
X108715287Y-134811667D01*
X109048620Y-134097381D01*
X109048620Y-135097381D01*
X109715286Y-134097381D02*
X109905763Y-134097381D01*
X110001001Y-134145000D01*
X110096239Y-134240238D01*
X110143858Y-134430714D01*
X110143858Y-134764048D01*
X110096239Y-134954524D01*
X110001001Y-135049762D01*
X109905763Y-135097381D01*
X109715286Y-135097381D01*
X109620048Y-135049762D01*
X109524810Y-134954524D01*
X109477191Y-134764048D01*
X109477191Y-134430714D01*
X109524810Y-134240238D01*
X109620048Y-134145000D01*
X109715286Y-134097381D01*
X110572429Y-135097381D02*
X110572429Y-134097381D01*
X110810524Y-134097381D01*
X110953382Y-134145000D01*
X111048620Y-134240238D01*
X111096239Y-134335476D01*
X111143858Y-134525952D01*
X111143858Y-134668810D01*
X111096239Y-134859286D01*
X111048620Y-134954524D01*
X110953382Y-135049762D01*
X110810524Y-135097381D01*
X110572429Y-135097381D01*
X111572429Y-134097381D02*
X111572429Y-134906905D01*
X111620048Y-135002143D01*
X111667667Y-135049762D01*
X111762905Y-135097381D01*
X111953382Y-135097381D01*
X112048620Y-135049762D01*
X112096239Y-135002143D01*
X112143858Y-134906905D01*
X112143858Y-134097381D01*
X113096239Y-135097381D02*
X112620048Y-135097381D01*
X112620048Y-134097381D01*
X113429572Y-134573571D02*
X113762906Y-134573571D01*
X113905763Y-135097381D02*
X113429572Y-135097381D01*
X113429572Y-134097381D01*
X113905763Y-134097381D01*
X135481524Y-120663762D02*
X135386286Y-120711381D01*
X135195809Y-120711381D01*
X135100571Y-120663762D01*
X135052952Y-120616143D01*
X135005333Y-120520905D01*
X135005333Y-120235190D01*
X135052952Y-120139952D01*
X135100571Y-120092333D01*
X135195809Y-120044714D01*
X135386286Y-120044714D01*
X135481524Y-120092333D01*
X136338667Y-120044714D02*
X136338667Y-120711381D01*
X135910095Y-120044714D02*
X135910095Y-120568524D01*
X135957714Y-120663762D01*
X136052952Y-120711381D01*
X136195810Y-120711381D01*
X136291048Y-120663762D01*
X136338667Y-120616143D01*
X136814857Y-120711381D02*
X136814857Y-120044714D01*
X136814857Y-120235190D02*
X136862476Y-120139952D01*
X136910095Y-120092333D01*
X137005333Y-120044714D01*
X137100572Y-120044714D01*
X137433905Y-120711381D02*
X137433905Y-120044714D01*
X137433905Y-120235190D02*
X137481524Y-120139952D01*
X137529143Y-120092333D01*
X137624381Y-120044714D01*
X137719620Y-120044714D01*
X138433906Y-120663762D02*
X138338668Y-120711381D01*
X138148191Y-120711381D01*
X138052953Y-120663762D01*
X138005334Y-120568524D01*
X138005334Y-120187571D01*
X138052953Y-120092333D01*
X138148191Y-120044714D01*
X138338668Y-120044714D01*
X138433906Y-120092333D01*
X138481525Y-120187571D01*
X138481525Y-120282810D01*
X138005334Y-120378048D01*
X138910096Y-120044714D02*
X138910096Y-120711381D01*
X138910096Y-120139952D02*
X138957715Y-120092333D01*
X139052953Y-120044714D01*
X139195811Y-120044714D01*
X139291049Y-120092333D01*
X139338668Y-120187571D01*
X139338668Y-120711381D01*
X139672001Y-120044714D02*
X140052953Y-120044714D01*
X139814858Y-119711381D02*
X139814858Y-120568524D01*
X139862477Y-120663762D01*
X139957715Y-120711381D01*
X140052953Y-120711381D01*
X140529144Y-120711381D02*
X140433906Y-120663762D01*
X140386287Y-120568524D01*
X140386287Y-119711381D01*
X140910097Y-120711381D02*
X140910097Y-120044714D01*
X140910097Y-119711381D02*
X140862478Y-119759000D01*
X140910097Y-119806619D01*
X140957716Y-119759000D01*
X140910097Y-119711381D01*
X140910097Y-119806619D01*
X141386287Y-120711381D02*
X141386287Y-120044714D01*
X141386287Y-120139952D02*
X141433906Y-120092333D01*
X141529144Y-120044714D01*
X141672002Y-120044714D01*
X141767240Y-120092333D01*
X141814859Y-120187571D01*
X141814859Y-120711381D01*
X141814859Y-120187571D02*
X141862478Y-120092333D01*
X141957716Y-120044714D01*
X142100573Y-120044714D01*
X142195811Y-120092333D01*
X142243430Y-120187571D01*
X142243430Y-120711381D01*
X142719620Y-120711381D02*
X142719620Y-120044714D01*
X142719620Y-119711381D02*
X142672001Y-119759000D01*
X142719620Y-119806619D01*
X142767239Y-119759000D01*
X142719620Y-119711381D01*
X142719620Y-119806619D01*
X143052953Y-120044714D02*
X143433905Y-120044714D01*
X143195810Y-119711381D02*
X143195810Y-120568524D01*
X143243429Y-120663762D01*
X143338667Y-120711381D01*
X143433905Y-120711381D01*
X76101107Y-51633381D02*
X75767773Y-51157190D01*
X75529678Y-51633381D02*
X75529678Y-50633381D01*
X75910631Y-50633381D01*
X76005869Y-50681000D01*
X76053488Y-50728619D01*
X76101107Y-50823857D01*
X76101107Y-50966714D01*
X76053488Y-51061952D01*
X76005869Y-51109571D01*
X75910631Y-51157190D01*
X75529678Y-51157190D01*
X76529678Y-51109571D02*
X76863012Y-51109571D01*
X77005869Y-51633381D02*
X76529678Y-51633381D01*
X76529678Y-50633381D01*
X77005869Y-50633381D01*
X77767774Y-51109571D02*
X77434440Y-51109571D01*
X77434440Y-51633381D02*
X77434440Y-50633381D01*
X77910631Y-50633381D01*
X78434440Y-50633381D02*
X78434440Y-50871476D01*
X78196345Y-50776238D02*
X78434440Y-50871476D01*
X78672536Y-50776238D01*
X78291583Y-51061952D02*
X78434440Y-50871476D01*
X78577298Y-51061952D01*
X79196345Y-50633381D02*
X79196345Y-50871476D01*
X78958250Y-50776238D02*
X79196345Y-50871476D01*
X79434441Y-50776238D01*
X79053488Y-51061952D02*
X79196345Y-50871476D01*
X79339203Y-51061952D01*
X76771667Y-143444221D02*
X76438333Y-142968030D01*
X76200238Y-143444221D02*
X76200238Y-142444221D01*
X76581191Y-142444221D01*
X76676429Y-142491840D01*
X76724048Y-142539459D01*
X76771667Y-142634697D01*
X76771667Y-142777554D01*
X76724048Y-142872792D01*
X76676429Y-142920411D01*
X76581191Y-142968030D01*
X76200238Y-142968030D01*
X77200238Y-142920411D02*
X77533572Y-142920411D01*
X77676429Y-143444221D02*
X77200238Y-143444221D01*
X77200238Y-142444221D01*
X77676429Y-142444221D01*
X78438334Y-142920411D02*
X78105000Y-142920411D01*
X78105000Y-143444221D02*
X78105000Y-142444221D01*
X78581191Y-142444221D01*
X79105000Y-142444221D02*
X79105000Y-142682316D01*
X78866905Y-142587078D02*
X79105000Y-142682316D01*
X79343096Y-142587078D01*
X78962143Y-142872792D02*
X79105000Y-142682316D01*
X79247858Y-142872792D01*
X79866905Y-142444221D02*
X79866905Y-142682316D01*
X79628810Y-142587078D02*
X79866905Y-142682316D01*
X80105001Y-142587078D01*
X79724048Y-142872792D02*
X79866905Y-142682316D01*
X80009763Y-142872792D01*
X167759547Y-143195301D02*
X167426213Y-142719110D01*
X167188118Y-143195301D02*
X167188118Y-142195301D01*
X167569071Y-142195301D01*
X167664309Y-142242920D01*
X167711928Y-142290539D01*
X167759547Y-142385777D01*
X167759547Y-142528634D01*
X167711928Y-142623872D01*
X167664309Y-142671491D01*
X167569071Y-142719110D01*
X167188118Y-142719110D01*
X168188118Y-142671491D02*
X168521452Y-142671491D01*
X168664309Y-143195301D02*
X168188118Y-143195301D01*
X168188118Y-142195301D01*
X168664309Y-142195301D01*
X169426214Y-142671491D02*
X169092880Y-142671491D01*
X169092880Y-143195301D02*
X169092880Y-142195301D01*
X169569071Y-142195301D01*
X170092880Y-142195301D02*
X170092880Y-142433396D01*
X169854785Y-142338158D02*
X170092880Y-142433396D01*
X170330976Y-142338158D01*
X169950023Y-142623872D02*
X170092880Y-142433396D01*
X170235738Y-142623872D01*
X170854785Y-142195301D02*
X170854785Y-142433396D01*
X170616690Y-142338158D02*
X170854785Y-142433396D01*
X171092881Y-142338158D01*
X170711928Y-142623872D02*
X170854785Y-142433396D01*
X170997643Y-142623872D01*
X167576667Y-52522381D02*
X167243333Y-52046190D01*
X167005238Y-52522381D02*
X167005238Y-51522381D01*
X167386191Y-51522381D01*
X167481429Y-51570000D01*
X167529048Y-51617619D01*
X167576667Y-51712857D01*
X167576667Y-51855714D01*
X167529048Y-51950952D01*
X167481429Y-51998571D01*
X167386191Y-52046190D01*
X167005238Y-52046190D01*
X168005238Y-51998571D02*
X168338572Y-51998571D01*
X168481429Y-52522381D02*
X168005238Y-52522381D01*
X168005238Y-51522381D01*
X168481429Y-51522381D01*
X169243334Y-51998571D02*
X168910000Y-51998571D01*
X168910000Y-52522381D02*
X168910000Y-51522381D01*
X169386191Y-51522381D01*
X169910000Y-51522381D02*
X169910000Y-51760476D01*
X169671905Y-51665238D02*
X169910000Y-51760476D01*
X170148096Y-51665238D01*
X169767143Y-51950952D02*
X169910000Y-51760476D01*
X170052858Y-51950952D01*
X170671905Y-51522381D02*
X170671905Y-51760476D01*
X170433810Y-51665238D02*
X170671905Y-51760476D01*
X170910001Y-51665238D01*
X170529048Y-51950952D02*
X170671905Y-51760476D01*
X170814763Y-51950952D01*
M02*
