M48
;DRILL file {KiCad 4.0.3+e1-6302~38~ubuntu14.04.1-stable} date Sun Sep  4 17:25:47 2016
;FORMAT={-:-/ absolute / metric / decimal}
FMAT,2
METRIC,TZ
T1C0.762
T2C0.800
T3C0.800
T4C1.001
T5C1.016
T6C1.100
T7C1.200
T8C1.270
T9C1.501
T10C3.048
%
G90
G05
M71
T1
X88.519Y-79.756
X88.646Y-60.452
X89.459Y-130.073
X89.459Y-147.345
X110.871Y-59.69
X110.998Y-78.867
X129.083Y-130.073
X129.083Y-147.345
T2
X85.217Y-94.831
X85.217Y-97.331
X85.611Y-107.38
X85.611Y-109.88
X92.507Y-92.558
X92.507Y-100.178
X93.027Y-113.081
X93.027Y-120.701
X95.047Y-92.558
X95.047Y-100.178
X95.567Y-113.081
X95.567Y-120.701
X97.587Y-92.558
X97.587Y-100.178
X98.108Y-113.081
X98.108Y-120.701
X100.127Y-92.558
X100.127Y-100.178
X100.647Y-113.081
X100.647Y-120.701
X100.724Y-109.525
X102.667Y-92.558
X102.667Y-100.178
X103.188Y-113.081
X103.188Y-120.701
X105.207Y-92.558
X105.207Y-100.178
X105.724Y-109.525
X105.727Y-113.081
X105.727Y-120.701
X107.747Y-92.558
X107.747Y-100.178
X108.267Y-113.081
X108.267Y-120.701
X111.379Y-103.799
X111.379Y-106.299
X111.989Y-94.187
X111.989Y-99.187
X112.649Y-122.555
X112.649Y-125.055
X113.284Y-111.125
X118.284Y-111.125
X118.364Y-96.266
X118.364Y-98.766
X118.745Y-117.983
X121.245Y-117.983
X127.406Y-59.273
X127.406Y-61.773
X127.432Y-68.224
X127.432Y-70.764
X127.432Y-73.304
X127.432Y-75.844
X127.432Y-78.384
X127.432Y-80.924
X127.432Y-83.464
X127.432Y-86.004
X127.432Y-88.544
X127.432Y-91.084
X127.432Y-93.624
X127.432Y-96.164
X127.432Y-98.704
X127.432Y-101.244
X127.432Y-103.784
X127.432Y-106.324
X133.985Y-110.871
X133.985Y-113.371
X136.347Y-138.114
X136.347Y-140.614
X139.7Y-110.236
X139.7Y-115.236
X142.672Y-68.224
X142.672Y-70.764
X142.672Y-73.304
X142.672Y-75.844
X142.672Y-78.384
X142.672Y-80.924
X142.672Y-83.464
X142.672Y-86.004
X142.672Y-88.544
X142.672Y-91.084
X142.672Y-93.624
X142.672Y-96.164
X142.672Y-98.704
X142.672Y-101.244
X142.672Y-103.784
X142.672Y-106.324
X144.361Y-134.341
X146.291Y-138.876
X146.291Y-141.376
X146.562Y-64.999
X147.18Y-70.142
X149.361Y-134.341
X151.562Y-64.999
X151.676Y-85.839
X151.752Y-127.916
X151.752Y-130.416
X152.18Y-70.142
X153.886Y-117.259
X154.229Y-80.632
X158.369Y-71.048
X158.369Y-76.048
X158.886Y-117.259
T3
X147.942Y-80.655
X147.942Y-85.537
X151.729Y-80.632
X154.176Y-85.839
T4
X103.429Y-103.543
X103.759Y-125.222
X114.592Y-58.496
X114.96Y-89.814
X115.214Y-69.088
X118.148Y-54.318
X118.186Y-64.148
X122.58Y-89.814
X123.838Y-70.32
X123.838Y-77.94
X129.794Y-64.211
X130.48Y-117.323
X130.48Y-124.943
X137.414Y-64.211
X145.542Y-73.317
X145.732Y-90.678
X145.974Y-109.792
X145.974Y-117.412
X151.257Y-141.605
X151.257Y-149.225
X152.425Y-111.811
X153.162Y-73.317
X153.352Y-90.678
X154.153Y-148.92
X154.864Y-66.675
X157.442Y-132.55
X159.842Y-145.44
X160.045Y-111.811
X160.731Y-141.618
X160.909Y-138.151
X162.484Y-66.675
X163.868Y-95.936
X163.868Y-103.556
X167.894Y-95.758
X167.894Y-104.013
X170.434Y-95.758
X170.434Y-104.013
X170.548Y-83.147
X170.548Y-90.767
T5
X79.515Y-125.768
X79.515Y-128.308
X79.515Y-130.848
X79.515Y-133.388
X79.515Y-135.928
X82.055Y-125.768
X82.055Y-128.308
X82.055Y-130.848
X82.055Y-133.388
X82.055Y-135.928
T6
X80.62Y-62.586
X80.62Y-84.938
T7
X169.215Y-110.668
X169.215Y-113.208
X169.266Y-116.942
X169.266Y-119.482
X169.266Y-123.876
X169.266Y-126.416
X169.266Y-131.191
X169.266Y-133.731
X169.418Y-138.328
X169.418Y-140.868
T8
X99.619Y-103.543
X99.949Y-125.222
X114.338Y-54.318
X114.376Y-64.148
X115.316Y-84.531
X117.856Y-74.371
X118.402Y-58.496
X119.024Y-69.088
X120.396Y-84.531
X136.632Y-122.799
X136.632Y-127.879
X146.792Y-125.339
X154.153Y-145.11
X156.921Y-141.618
X157.099Y-138.151
X161.252Y-132.55
X163.652Y-145.44
T9
X135.382Y-147.142
X140.97Y-147.142
X146.558Y-147.142
T10
X77.434Y-54.229
X78.105Y-90.805
X78.105Y-146.04
X87.287Y-56.007
X168.91Y-55.118
X169.093Y-145.791
T0
M30
