G04 #@! TF.FileFunction,Soldermask,Top*
%FSLAX46Y46*%
G04 Gerber Fmt 4.6, Leading zero omitted, Abs format (unit mm)*
G04 Created by KiCad (PCBNEW 4.0.4+e1-6308~48~ubuntu14.04.1-stable) date Sat Oct 15 23:07:52 2016*
%MOMM*%
%LPD*%
G01*
G04 APERTURE LIST*
%ADD10C,0.100000*%
%ADD11R,1.700000X1.700000*%
%ADD12C,1.700000*%
%ADD13C,2.398980*%
%ADD14R,2.398980X2.398980*%
%ADD15R,2.300000X2.400000*%
%ADD16C,2.300000*%
%ADD17R,2.127200X2.127200*%
%ADD18O,2.127200X2.127200*%
%ADD19R,3.000000X2.400000*%
%ADD20O,3.000000X2.400000*%
%ADD21C,4.464000*%
%ADD22O,2.899360X4.900880*%
%ADD23C,1.924000*%
%ADD24O,2.000000X2.000000*%
%ADD25C,2.432000*%
%ADD26C,1.901140*%
%ADD27R,2.000000X2.000000*%
%ADD28C,2.000000*%
%ADD29C,1.400760*%
G04 APERTURE END LIST*
D10*
D11*
X85610700Y-109880000D03*
D12*
X85610700Y-107380000D03*
D11*
X146291000Y-141376000D03*
D12*
X146291000Y-138876000D03*
D11*
X144361000Y-134341000D03*
D12*
X149361000Y-134341000D03*
D11*
X118745000Y-117983000D03*
D12*
X121245000Y-117983000D03*
D11*
X153886000Y-117259000D03*
D12*
X158886000Y-117259000D03*
D11*
X112649000Y-122555000D03*
D12*
X112649000Y-125055000D03*
D11*
X111379000Y-106299000D03*
D12*
X111379000Y-103799000D03*
D11*
X113284000Y-111125000D03*
D12*
X118284000Y-111125000D03*
X136347000Y-138114000D03*
D11*
X136347000Y-140614000D03*
X133985000Y-110871000D03*
D12*
X133985000Y-113371000D03*
D11*
X118364000Y-96266000D03*
D12*
X118364000Y-98766000D03*
D11*
X100724000Y-109525000D03*
D12*
X105724000Y-109525000D03*
D11*
X111989000Y-99187000D03*
D12*
X111989000Y-94187000D03*
D11*
X85217000Y-94830900D03*
D12*
X85217000Y-97330900D03*
D11*
X139700000Y-110236000D03*
D12*
X139700000Y-115236000D03*
D11*
X147180000Y-70142100D03*
D12*
X152180000Y-70142100D03*
D11*
X151562000Y-64998600D03*
D12*
X146562000Y-64998600D03*
D11*
X151676000Y-85839300D03*
D12*
X154176000Y-85839300D03*
D11*
X154229000Y-80632300D03*
D12*
X151729000Y-80632300D03*
D11*
X158369000Y-76047600D03*
D12*
X158369000Y-71047600D03*
D11*
X151752000Y-130416000D03*
D12*
X151752000Y-127916000D03*
D11*
X127406000Y-61772800D03*
D12*
X127406000Y-59272800D03*
D13*
X99949000Y-125222000D03*
D14*
X103759000Y-125222000D03*
D13*
X99619000Y-103543000D03*
D14*
X103429000Y-103543000D03*
D13*
X154153000Y-145110000D03*
D14*
X154153000Y-148920000D03*
D15*
X170434000Y-95758000D03*
D16*
X167894000Y-95758000D03*
D13*
X163652000Y-145440000D03*
D14*
X159842000Y-145440000D03*
D13*
X156921000Y-141618000D03*
D14*
X160731000Y-141618000D03*
D13*
X157099000Y-138151000D03*
D14*
X160909000Y-138151000D03*
D13*
X161252000Y-132550000D03*
D14*
X157442000Y-132550000D03*
D13*
X119024000Y-69088000D03*
D14*
X115214000Y-69088000D03*
D13*
X114338000Y-54317900D03*
D14*
X118148000Y-54317900D03*
D13*
X114376000Y-64147700D03*
D14*
X118186000Y-64147700D03*
D13*
X118402000Y-58496200D03*
D14*
X114592000Y-58496200D03*
D15*
X170434000Y-104013000D03*
D16*
X167894000Y-104013000D03*
D17*
X82054700Y-135928000D03*
D18*
X79514700Y-135928000D03*
X82054700Y-133388000D03*
X79514700Y-133388000D03*
X82054700Y-130848000D03*
X79514700Y-130848000D03*
X82054700Y-128308000D03*
X79514700Y-128308000D03*
X82054700Y-125768000D03*
X79514700Y-125768000D03*
D19*
X169215000Y-113208000D03*
D20*
X169215000Y-110668000D03*
D19*
X169266000Y-126416000D03*
D20*
X169266000Y-123876000D03*
D19*
X169266000Y-119482000D03*
D20*
X169266000Y-116942000D03*
D19*
X169418000Y-140868000D03*
D20*
X169418000Y-138328000D03*
D21*
X78105000Y-90805000D03*
X87287100Y-56007000D03*
D19*
X169266000Y-133731000D03*
D20*
X169266000Y-131191000D03*
D22*
X140970000Y-147142000D03*
X146558000Y-147142000D03*
X135382000Y-147142000D03*
D13*
X151257000Y-141605000D03*
X151257000Y-149225000D03*
X170548000Y-83146900D03*
X170548000Y-90766900D03*
X145732000Y-90678000D03*
X153352000Y-90678000D03*
X154864000Y-66675000D03*
X162484000Y-66675000D03*
X160045000Y-111811000D03*
X152425000Y-111811000D03*
X153162000Y-73317100D03*
X145542000Y-73317100D03*
X122580000Y-89814400D03*
X114960000Y-89814400D03*
X130480000Y-124943000D03*
X130480000Y-117323000D03*
X137414000Y-64211200D03*
X129794000Y-64211200D03*
X123838000Y-70319900D03*
X123838000Y-77939900D03*
X163868000Y-95935800D03*
X163868000Y-103555800D03*
X145974000Y-109792000D03*
X145974000Y-117412000D03*
D23*
X110871000Y-59690000D03*
X110998000Y-78867000D03*
X88646000Y-60452000D03*
X88519000Y-79756000D03*
D24*
X93027500Y-120701000D03*
X95567500Y-120701000D03*
X98107500Y-120701000D03*
X100647500Y-120701000D03*
X103187500Y-120701000D03*
X105727500Y-120701000D03*
X108267500Y-120701000D03*
X108267500Y-113081000D03*
X105727500Y-113081000D03*
X103187500Y-113081000D03*
X100647500Y-113081000D03*
X98107500Y-113081000D03*
X95567500Y-113081000D03*
X93027500Y-113081000D03*
X92506800Y-100178000D03*
X95046800Y-100178000D03*
X97586800Y-100178000D03*
X100126800Y-100178000D03*
X102666800Y-100178000D03*
X105206800Y-100178000D03*
X107746800Y-100178000D03*
X107746800Y-92558000D03*
X105206800Y-92558000D03*
X102666800Y-92558000D03*
X100126800Y-92558000D03*
X97586800Y-92558000D03*
X95046800Y-92558000D03*
X92506800Y-92558000D03*
X142672000Y-106324000D03*
X142672000Y-103784000D03*
X142672000Y-101244000D03*
X142672000Y-98704000D03*
X142672000Y-96164000D03*
X142672000Y-93624000D03*
X142672000Y-91084000D03*
X142672000Y-88544000D03*
X142672000Y-86004000D03*
X142672000Y-83464000D03*
X142672000Y-80924000D03*
X142672000Y-78384000D03*
X142672000Y-75844000D03*
X142672000Y-73304000D03*
X142672000Y-70764000D03*
X142672000Y-68224000D03*
X127432000Y-68224000D03*
X127432000Y-70764000D03*
X127432000Y-73304000D03*
X127432000Y-75844000D03*
X127432000Y-78384000D03*
X127432000Y-80924000D03*
X127432000Y-83464000D03*
X127432000Y-86004000D03*
X127432000Y-88544000D03*
X127432000Y-91084000D03*
X127432000Y-93624000D03*
X127432000Y-96164000D03*
X127432000Y-98704000D03*
X127432000Y-101244000D03*
X127432000Y-103784000D03*
X127432000Y-106324000D03*
D25*
X115316000Y-84531200D03*
X117856000Y-74371200D03*
X120396000Y-84531200D03*
D26*
X147942000Y-80655160D03*
X147942000Y-85537040D03*
D27*
X80619600Y-84937600D03*
D28*
X80619600Y-62585600D03*
D23*
X129083000Y-147345000D03*
X129083000Y-130073000D03*
X89459000Y-130073000D03*
X89459000Y-147345000D03*
D11*
X151892000Y-107188000D03*
D12*
X154392000Y-107188000D03*
D11*
X148082000Y-55626000D03*
D12*
X148082000Y-53126000D03*
D13*
X140716000Y-120396000D03*
D14*
X136906000Y-120396000D03*
D13*
X145034000Y-122428000D03*
D14*
X148844000Y-122428000D03*
D15*
X166624000Y-71374000D03*
D16*
X169164000Y-71374000D03*
D13*
X160782000Y-62992000D03*
D14*
X156972000Y-62992000D03*
D13*
X156718000Y-59690000D03*
D14*
X160528000Y-59690000D03*
D13*
X156718000Y-56896000D03*
D14*
X160528000Y-56896000D03*
D13*
X160782000Y-53848000D03*
D14*
X156972000Y-53848000D03*
D19*
X167640000Y-56642000D03*
D20*
X167640000Y-54102000D03*
D19*
X167386000Y-64008000D03*
D20*
X167386000Y-61468000D03*
D13*
X122936000Y-112522000D03*
X122936000Y-104902000D03*
X160274000Y-123190000D03*
X152654000Y-123190000D03*
X147574000Y-102108000D03*
X155194000Y-102108000D03*
X165608000Y-85344000D03*
X165608000Y-77724000D03*
X153670000Y-61214000D03*
X146050000Y-61214000D03*
D25*
X135636000Y-125984000D03*
X145796000Y-128524000D03*
X135636000Y-131064000D03*
X141478000Y-58420000D03*
X131318000Y-55880000D03*
X141478000Y-53340000D03*
D29*
X157480000Y-104140000D03*
X158750000Y-102870000D03*
X158750000Y-105410000D03*
M02*
